<svg width="1199" height="636" viewBox="0 0 1199 636" fill="none" xmlns="http://www.w3.org/2000/svg">
  <g filter="url(#filter0_d_2001_802)">
    <path d="M323.95 332V324.85H326.63C327.09 324.85 327.49 324.93 327.83 325.09C328.17 325.243 328.433 325.463 328.62 325.75C328.807 326.03 328.9 326.36 328.9 326.74C328.9 327.087 328.807 327.393 328.62 327.66C328.433 327.927 328.17 328.137 327.83 328.29C327.49 328.437 327.09 328.51 326.63 328.51H324.82V328.03H326.86C327.333 328.03 327.747 328.11 328.1 328.27C328.453 328.43 328.727 328.657 328.92 328.95C329.12 329.243 329.22 329.59 329.22 329.99C329.22 330.39 329.12 330.743 328.92 331.05C328.727 331.35 328.453 331.583 328.1 331.75C327.747 331.917 327.333 332 326.86 332H323.95ZM324.72 331.32H326.86C327.347 331.32 327.73 331.203 328.01 330.97C328.29 330.737 328.43 330.41 328.43 329.99C328.43 329.57 328.29 329.243 328.01 329.01C327.73 328.777 327.347 328.66 326.86 328.66H324.62V327.98H326.63C327.09 327.98 327.453 327.87 327.72 327.65C327.987 327.43 328.12 327.127 328.12 326.74C328.12 326.367 327.987 326.073 327.72 325.86C327.453 325.64 327.09 325.53 326.63 325.53H324.72V331.32ZM332.828 332.16C332.328 332.16 331.881 332.047 331.488 331.82C331.094 331.593 330.784 331.283 330.558 330.89C330.338 330.497 330.228 330.047 330.228 329.54C330.228 329.033 330.338 328.583 330.558 328.19C330.784 327.797 331.094 327.487 331.488 327.26C331.881 327.033 332.328 326.92 332.828 326.92C333.334 326.92 333.781 327.033 334.168 327.26C334.561 327.487 334.868 327.797 335.088 328.19C335.314 328.583 335.428 329.033 335.428 329.54C335.428 330.047 335.314 330.497 335.088 330.89C334.868 331.283 334.561 331.593 334.168 331.82C333.781 332.047 333.334 332.16 332.828 332.16ZM332.828 331.51C333.188 331.51 333.504 331.427 333.778 331.26C334.051 331.093 334.264 330.863 334.418 330.57C334.571 330.27 334.648 329.927 334.648 329.54C334.648 329.153 334.571 328.813 334.418 328.52C334.264 328.22 334.051 327.987 333.778 327.82C333.504 327.653 333.188 327.57 332.828 327.57C332.468 327.57 332.151 327.653 331.878 327.82C331.604 327.987 331.391 328.22 331.238 328.52C331.084 328.813 331.008 329.153 331.008 329.54C331.008 329.927 331.084 330.27 331.238 330.57C331.391 330.863 331.604 331.093 331.878 331.26C332.151 331.427 332.468 331.51 332.828 331.51ZM336.1 332V331.36H336.5C336.68 331.36 336.817 331.313 336.91 331.22C337.004 331.12 337.06 330.94 337.08 330.68L337.39 327.08H340.89V332H340.15V327.23L340.67 327.71H337.55L338.12 327.23L337.79 330.8C337.75 331.24 337.634 331.55 337.44 331.73C337.254 331.91 336.974 332 336.6 332H336.1ZM342.491 332V327.08H345.921V327.71H342.611L343.231 327.23V332H342.491ZM349.097 332.16C348.597 332.16 348.151 332.047 347.757 331.82C347.364 331.593 347.054 331.283 346.827 330.89C346.607 330.497 346.497 330.047 346.497 329.54C346.497 329.033 346.607 328.583 346.827 328.19C347.054 327.797 347.364 327.487 347.757 327.26C348.151 327.033 348.597 326.92 349.097 326.92C349.604 326.92 350.051 327.033 350.437 327.26C350.831 327.487 351.137 327.797 351.357 328.19C351.584 328.583 351.697 329.033 351.697 329.54C351.697 330.047 351.584 330.497 351.357 330.89C351.137 331.283 350.831 331.593 350.437 331.82C350.051 332.047 349.604 332.16 349.097 332.16ZM349.097 331.51C349.457 331.51 349.774 331.427 350.047 331.26C350.321 331.093 350.534 330.863 350.687 330.57C350.841 330.27 350.917 329.927 350.917 329.54C350.917 329.153 350.841 328.813 350.687 328.52C350.534 328.22 350.321 327.987 350.047 327.82C349.774 327.653 349.457 327.57 349.097 327.57C348.737 327.57 348.421 327.653 348.147 327.82C347.874 327.987 347.661 328.22 347.507 328.52C347.354 328.813 347.277 329.153 347.277 329.54C347.277 329.927 347.354 330.27 347.507 330.57C347.661 330.863 347.874 331.093 348.147 331.26C348.421 331.427 348.737 331.51 349.097 331.51ZM352.97 332V327.08H356.4V327.71H353.09L353.71 327.23V332H352.97ZM358.241 333.94H357.501V327.08H358.231V328.57H358.051C358.111 328.243 358.241 327.957 358.441 327.71C358.648 327.463 358.901 327.27 359.201 327.13C359.508 326.99 359.838 326.92 360.191 326.92C360.671 326.92 361.098 327.037 361.471 327.27C361.845 327.497 362.135 327.807 362.341 328.2C362.555 328.593 362.661 329.04 362.661 329.54C362.661 330.047 362.551 330.497 362.331 330.89C362.118 331.283 361.818 331.593 361.431 331.82C361.051 332.047 360.615 332.16 360.121 332.16C359.675 332.16 359.281 332.07 358.941 331.89C358.608 331.703 358.355 331.453 358.181 331.14C358.015 330.82 357.955 330.463 358.001 330.07L358.141 329.87C358.168 330.183 358.268 330.467 358.441 330.72C358.615 330.967 358.841 331.16 359.121 331.3C359.401 331.44 359.708 331.51 360.041 331.51C360.408 331.51 360.728 331.427 361.001 331.26C361.275 331.087 361.488 330.853 361.641 330.56C361.801 330.26 361.881 329.92 361.881 329.54C361.881 329.16 361.805 328.823 361.651 328.53C361.505 328.23 361.298 327.997 361.031 327.83C360.765 327.657 360.455 327.57 360.101 327.57C359.741 327.57 359.421 327.66 359.141 327.84C358.861 328.02 358.641 328.27 358.481 328.59C358.321 328.903 358.241 329.27 358.241 329.69V333.94ZM367.997 332H367.287V331.04L367.277 330.76V328.92C367.277 328.507 367.144 328.177 366.877 327.93C366.61 327.683 366.25 327.56 365.797 327.56C365.47 327.56 365.174 327.63 364.907 327.77C364.647 327.91 364.417 328.1 364.217 328.34L363.697 327.84C363.97 327.547 364.277 327.32 364.617 327.16C364.964 327 365.357 326.92 365.797 326.92C366.237 326.92 366.62 327.003 366.947 327.17C367.28 327.33 367.537 327.557 367.717 327.85C367.904 328.143 367.997 328.49 367.997 328.89V332ZM365.407 332.16C365.034 332.16 364.704 332.093 364.417 331.96C364.137 331.82 363.917 331.633 363.757 331.4C363.604 331.167 363.527 330.9 363.527 330.6C363.527 330.253 363.624 329.96 363.817 329.72C364.01 329.473 364.274 329.287 364.607 329.16C364.947 329.033 365.33 328.97 365.757 328.97H367.377V329.57H365.857C365.41 329.57 365.037 329.653 364.737 329.82C364.444 329.98 364.297 330.233 364.297 330.58C364.297 330.873 364.407 331.107 364.627 331.28C364.847 331.453 365.137 331.54 365.497 331.54C365.844 331.54 366.157 331.473 366.437 331.34C366.717 331.2 366.94 331.007 367.107 330.76C367.28 330.513 367.377 330.23 367.397 329.91L367.697 330.08C367.697 330.48 367.597 330.837 367.397 331.15C367.204 331.463 366.934 331.71 366.587 331.89C366.24 332.07 365.847 332.16 365.407 332.16ZM369.025 331.8V331.37H369.225C369.358 331.37 369.462 331.34 369.535 331.28C369.615 331.213 369.675 331.107 369.715 330.96C369.762 330.813 369.798 330.613 369.825 330.36L370.215 327.08H373.615V331.7H372.875V327.23L373.395 327.71H370.325L370.925 327.23L370.525 330.42C370.485 330.76 370.422 331.03 370.335 331.23C370.248 331.43 370.125 331.577 369.965 331.67C369.812 331.757 369.598 331.8 369.325 331.8H369.025ZM368.825 333.28V331.37H374.315V333.28H373.615V331.47L374.135 332H369.235L369.525 331.47V333.28H368.825Z" fill="#0F0F0F"/>
    <path d="M347.999 296.641C343.128 296.641 339.164 300.526 339.164 305.303C339.164 306.549 339.424 307.738 339.937 308.839C342.146 313.578 346.381 318.581 347.627 320.001C347.72 320.108 347.856 320.169 348 320.169C348.143 320.169 348.279 320.108 348.372 320.001C349.618 318.581 353.853 313.578 356.063 308.839C356.576 307.738 356.835 306.549 356.835 305.303C356.835 300.526 352.871 296.641 347.999 296.641ZM347.999 309.802C345.469 309.802 343.41 307.783 343.41 305.303C343.41 302.821 345.469 300.803 347.999 300.803C350.53 300.803 352.589 302.821 352.589 305.303C352.589 307.783 350.53 309.802 347.999 309.802Z" fill="#E40000"/>
  </g>
  <defs>
    <filter id="filter0_d_2001_802" x="338.164" y="296.641" width="25.6719" height="31.5281" filterUnits="userSpaceOnUse" color-interpolation-filters="sRGB">
      <feFlood flood-opacity="0" result="BackgroundImageFix"/>
      <feColorMatrix in="SourceAlpha" type="matrix" values="0 0 0 0 0 0 0 0 0 0 0 0 0 0 0 0 0 0 127 0" result="hardAlpha"/>
      <feOffset dx="3" dy="4"/>
      <feGaussianBlur stdDeviation="2"/>
      <feComposite in2="hardAlpha" operator="out"/>
      <feColorMatrix type="matrix" values="0 0 0 0 0 0 0 0 0 0 0 0 0 0 0 0 0 0 0.25 0"/>
      <feBlend mode="normal" in2="BackgroundImageFix" result="effect1_dropShadow_2001_802"/>
      <feBlend mode="normal" in="SourceGraphic" in2="effect1_dropShadow_2001_802" result="shape"/>
    </filter>
  </defs>
</svg>
