<svg width="764" height="284" viewBox="0 0 764 284" fill="none" xmlns="http://www.w3.org/2000/svg">
<g clip-path="url(#clip0_322_2087)">
<path d="M174.832 109.139L169.935 97.4072L165.784 87.4747C164.824 85.1671 162.147 84.1029 159.866 85.1208L140.83 93.6136C138.466 94.668 137.499 97.4987 138.717 99.789L142.67 107.172L143.338 108.417C134.409 111.264 98.2862 123.06 72.9679 135.646C43.885 150.108 58.8461 176.976 58.8461 176.976L94.3181 246.516L81.53 252.222C78.8389 253.422 77.7443 256.66 79.162 259.24L87.7084 274.843C88.9083 277.03 91.5204 278.011 93.8464 277.155L105.283 272.979L118.683 268.081L135.295 262.016L158.4 253.588C160.86 252.687 162.233 250.04 161.524 247.509L155.453 225.568C154.632 222.596 151.362 221.052 148.543 222.31L134.608 228.527C134.608 228.527 121.687 203.372 114.629 188.62C114.613 188.585 114.598 188.55 114.577 188.503C114.473 188.269 114.373 188.047 114.269 187.813C114.18 187.614 114.086 187.403 113.997 187.204C111.395 180.523 114.057 176.081 117.455 173.289C119.782 171.493 122.012 170.484 122.012 170.484L167.446 153.524L169.863 158.03C170.965 160.091 173.463 160.941 175.604 159.986L188.837 154.082C191.048 153.096 192.061 150.525 191.127 148.305L182.173 126.851L174.769 109.125L174.832 109.139Z" fill="#758DBD"/>
<path d="M94.3109 246.534L58.839 176.994C58.839 176.994 43.8843 150.108 72.9607 135.663C102.044 121.201 145.401 107.792 145.401 107.792L167.752 153.458L122.062 170.504C122.062 170.504 110.128 175.828 112.796 184.009C115.463 192.19 134.641 228.541 134.641 228.541L94.3109 246.534Z" fill="#576A91"/>
<path d="M148.577 222.321L126.534 232.156L135.33 262.027L158.435 253.599C160.895 252.698 162.268 250.051 161.559 247.52L155.488 225.579C154.667 222.607 151.397 221.063 148.577 222.321Z" fill="#2C364A"/>
<path d="M81.5363 252.231C78.8453 253.431 77.7507 256.669 79.1683 259.25L87.7148 274.853C88.9146 277.039 91.5268 278.02 93.8527 277.165L105.289 272.988L92.7917 247.209L81.5363 252.231Z" fill="#3A4761"/>
<path d="M109.72 239.66L92.8137 247.203L105.311 272.982L118.705 268.1L109.72 239.66Z" fill="#485878"/>
<path d="M126.534 232.155L109.721 239.656L118.706 268.096L135.318 262.032L126.534 232.155Z" fill="#3A4761"/>
<path d="M158.915 137.514L169.912 158.043C171.014 160.104 173.511 160.954 175.653 159.999L188.885 154.095C191.097 153.109 192.11 150.538 191.176 148.317L182.222 126.864L158.915 137.514Z" fill="#2B3447"/>
<path d="M169.927 97.4175L142.674 107.177L149.34 119.635L174.831 109.132L169.927 97.4175Z" fill="#4B5B7D"/>
<path d="M149.341 119.634L158.917 137.513L182.223 126.863L174.831 109.131L149.341 119.634Z" fill="#3A4761"/>
<path d="M165.788 87.4829C164.828 85.1753 162.151 84.1111 159.869 85.1289L140.833 93.6217C138.47 94.6761 137.502 97.5068 138.72 99.7971L142.674 107.18L169.938 97.4153L165.788 87.4829Z" fill="#3A4761"/>
<path d="M167.748 153.448L125.392 169.258C125.392 169.258 107.582 173.865 114.641 188.617C121.699 203.369 134.63 228.547 134.63 228.547L104.853 241.832L77.1302 179.693C77.1302 179.693 72.5276 164.785 86.2345 157.492C99.9414 150.198 153.077 127.671 153.077 127.671L167.742 153.436L167.748 153.448Z" fill="#677DAB"/>
<path d="M144.969 112.508L73.7229 142.961C73.7229 142.961 54.8464 150.176 60.4581 168.478C66.0815 186.774 97.0254 245.315 97.0254 245.315L100.208 243.895L65.3181 168.554C65.3181 168.554 60.0063 152.56 77.5196 146.346C90.8555 141.617 148.217 118.593 148.217 118.593L144.952 112.502L144.969 112.508Z" fill="#758DBD"/>
<g style="mix-blend-mode:multiply" opacity="0.47">
<path d="M167.746 153.44L120.125 171.473C120.125 171.473 108.231 175.629 115.322 190.016C122.414 204.402 134.623 228.528 134.623 228.528L126.515 232.145L107.827 190.259C107.827 190.259 99.612 175.084 113.968 165.943C128.324 156.803 163.132 144.009 163.132 144.009L167.741 153.428L167.746 153.44Z" fill="#4B5B7D"/>
</g>
<g style="mix-blend-mode:multiply" opacity="0.47">
<path d="M92.1501 242.32L131.775 223.029L134.64 228.54L94.3102 246.533L92.1501 242.32Z" fill="#4B5B7D"/>
</g>
<g style="mix-blend-mode:multiply" opacity="0.47">
<path d="M131.908 229.993C131.908 229.993 147.655 223.908 148.967 226.03C150.278 228.152 157.245 249.805 157.245 249.805C157.245 249.805 155.815 251.159 153.809 252.418C151.804 253.678 88.0667 275.366 88.0667 275.366C88.0667 275.366 89.635 278.692 94.7876 276.814C99.9401 274.936 158.415 253.59 158.415 253.59C158.415 253.59 162.044 251.536 161.538 247.511C161.033 243.486 155.467 225.571 155.467 225.571C155.467 225.571 153.131 220.272 148.557 222.313C143.982 224.354 131.891 229.987 131.891 229.987L131.908 229.993Z" fill="#4B5B7D"/>
</g>
<g style="mix-blend-mode:screen" opacity="0.43">
<path d="M150.865 221.917C150.865 221.917 149.133 222.437 147.523 222.791C145.913 223.144 80.1406 253.162 80.1406 253.162C80.1406 253.162 77.2251 255.683 79.1788 259.245L150.865 221.917Z" fill="#4B5B7D"/>
</g>
<g style="mix-blend-mode:multiply" opacity="0.47">
<path d="M144.298 92.363C144.298 92.363 139.71 95.3497 141.756 99.0242C143.803 102.699 172.997 157.476 174.256 157.531C175.515 157.586 178.206 158.869 178.206 158.869C178.206 158.869 173.021 162.908 170.734 159.102C168.447 155.297 167.877 154.302 167.877 154.302L163.38 155.102L137.922 110.176L143.338 108.419L138.352 98.8456C138.352 98.8456 137.289 93.666 144.304 92.3461L144.298 92.363Z" fill="#4B5B7D"/>
</g>
<g style="mix-blend-mode:screen" opacity="0.43">
<path d="M159.864 85.1484L190.217 153.184C190.217 153.184 192.562 151.773 191.182 148.335C189.802 144.896 165.96 87.1144 165.96 87.1144C165.96 87.1144 163.319 82.7369 159.864 85.1484Z" fill="#4B5B7D"/>
</g>
</g>
<g clip-path="url(#clip1_322_2087)">
<path d="M758.017 92.551L731.907 86.1547L712.977 81.5221L703.023 79.0911L690.649 76.0631C687.378 75.2631 684.146 77.5127 683.744 80.854L681.628 98.9391C681.317 101.634 682.971 104.16 685.569 104.95L691.629 106.783C687.922 115.582 672.166 152.927 668.551 160.343C664.444 168.756 656.837 164.252 656.837 164.252L614.392 145.112L614.548 144.772L620.887 131.331C621.82 129.352 620.75 127.017 618.659 126.423L597.295 120.317C595.494 119.803 593.61 120.78 592.992 122.532L588.857 134.153L584.118 147.486L576.93 167.654L567.824 193.224C567.152 195.093 568.162 197.153 570.063 197.775L584.009 202.34C585.706 202.895 587.545 202.099 588.314 200.486L589.846 197.229C592.78 198.37 623.068 210.148 658.392 223.303C695.576 237.158 707.657 208.473 707.657 208.473L736.498 120.357L746.69 123.437C749.442 124.263 752.376 122.878 753.482 120.233L761.859 100.153C763.183 96.9781 761.356 93.3733 758.017 92.551Z" fill="#758DBD"/>
<path d="M414.424 200.643L437.166 116.604C437.166 116.604 444.932 83.1839 479.782 93.012C514.649 102.831 560.528 124.207 560.528 124.207L544.815 178.689L494.285 158.572C494.285 158.572 480.434 154.039 476.514 162.798C472.595 171.558 461.232 215.964 461.232 215.964L414.424 200.643Z" fill="#576A91"/>
<path d="M620.909 131.31C621.843 129.33 620.773 126.995 618.682 126.401L597.317 120.295C595.516 119.781 593.633 120.758 593.014 122.51L588.88 134.131L614.584 144.755L620.923 131.314L620.909 131.31Z" fill="#3A4761"/>
<path d="M614.57 144.749L588.865 134.125L584.126 147.458L609.075 156.436L614.57 144.749Z" fill="#4B5B7D"/>
<path d="M584.127 147.458L576.939 167.626L600.295 175.045L609.077 156.436L584.127 147.458Z" fill="#3A4761"/>
<path d="M576.938 167.629L567.832 193.199C567.16 195.069 568.17 197.128 570.071 197.75L584.017 202.315C585.715 202.87 587.554 202.074 588.322 200.462L600.298 175.035L576.943 167.616L576.938 167.629Z" fill="#2B3447"/>
<path d="M678.495 190.914C697.663 172.682 706.497 141.326 718.147 112.349L692.442 104.898C692.442 104.898 672.676 151.92 668.583 160.337C664.476 168.75 656.87 164.246 656.87 164.246L614.179 144.981L599.456 176.229C629.166 189.726 658.109 208.596 678.509 190.918L678.495 190.914Z" fill="#576A91"/>
<path d="M718.149 112.348C706.513 141.329 697.664 172.68 678.497 190.912C658.097 208.591 629.154 189.721 599.445 176.223L589.604 197.102C589.604 197.102 621.218 209.419 658.403 223.274C695.588 237.129 707.668 208.444 707.668 208.444L737.305 117.896L718.149 112.348Z" fill="#677DAB"/>
<path d="M690.656 76.0481C687.385 75.248 684.153 77.4977 683.75 80.8389L681.635 98.924C681.324 101.619 682.978 104.145 685.576 104.935L695.356 107.895L703.016 79.0716L690.642 76.0436L690.656 76.0481Z" fill="#3A4761"/>
<path d="M712.979 81.5173L703.029 79.0726L695.369 107.896L705.204 110.875L712.979 81.5173Z" fill="#4B5B7D"/>
<path d="M731.909 86.1527L712.978 81.5202L705.203 110.878L724.312 116.666L731.909 86.1527Z" fill="#3A4761"/>
<path d="M758.017 92.5498L731.906 86.1534L724.309 116.667L746.676 123.431C749.428 124.257 752.362 122.872 753.468 120.227L761.844 100.147C763.169 96.9725 761.342 93.3677 758.003 92.5454L758.017 92.5498Z" fill="#2B3447"/>
<path d="M704.734 111.213C704.734 111.213 678.655 173.848 673.511 177.531C668.371 181.201 609.077 156.441 609.077 156.441L605.518 163.365C605.518 163.365 667.217 186.747 670.234 186.577C673.252 186.407 678.764 185.595 683.449 176.289C688.134 166.983 711.167 112.687 711.167 112.687L704.748 111.217L704.734 111.213Z" fill="#758DBD"/>
<g style="mix-blend-mode:multiply" opacity="0.47">
<path d="M570.972 109.839C570.972 109.839 564.944 108.873 563.884 113.442C562.824 118.012 545.947 185.147 546.946 186.136C547.946 187.125 549.209 190.199 549.209 190.199C549.209 190.199 541.9 189.656 542.859 184.798C543.817 179.94 544.091 178.692 544.091 178.692L539.775 175.986L552.365 119.79L558.158 122.393L561.204 110.746C561.204 110.746 564.203 105.669 570.99 109.83L570.972 109.839Z" fill="#4B5B7D"/>
</g>
<g style="mix-blend-mode:multiply" opacity="0.47">
<path d="M598.38 120.586C598.38 120.586 595.584 118.243 593.004 122.495C590.425 126.748 567.832 193.2 567.832 193.2C567.832 193.2 566.758 196.848 570.071 197.752L602.806 121.855L598.38 120.586Z" fill="#4B5B7D"/>
</g>
<g style="mix-blend-mode:screen" opacity="0.43">
<path d="M617.697 126.108C617.697 126.108 619.369 127.843 617.227 134.388C615.084 140.933 584.019 202.313 584.019 202.313C584.019 202.313 585.831 204.86 588.265 201.192C590.698 197.523 620.004 133.252 620.004 133.252C620.004 133.252 623.903 126.575 617.715 126.098L617.697 126.108Z" fill="#4B5B7D"/>
</g>
<g style="mix-blend-mode:multiply" opacity="0.47">
<path d="M614.415 145.089L589.602 197.105L598.21 200.433L621.748 148.407L614.415 145.089Z" fill="#4B5B7D"/>
</g>
<g style="mix-blend-mode:multiply" opacity="0.47">
<path d="M736.5 120.355L733.646 129.073L688.481 114.29L691.648 106.772L736.5 120.355Z" fill="#4B5B7D"/>
</g>
<g style="mix-blend-mode:multiply" opacity="0.47">
<path d="M682.19 94.2373C682.19 94.2373 683.307 98.587 689.974 100.815C696.642 103.042 750.333 118.556 750.333 118.556L754.445 117.887C754.445 117.887 753.438 125.466 745.423 123.038C737.408 120.61 684.06 104.186 684.06 104.186C684.06 104.186 681.598 102.523 681.637 98.9124C681.676 95.3019 682.176 94.2329 682.176 94.2329L682.19 94.2373Z" fill="#4B5B7D"/>
</g>
<g style="mix-blend-mode:screen" opacity="0.43">
<path d="M683.947 79.9162C683.947 79.9162 685.017 77.4253 691.11 78.5173C697.202 79.6093 756.893 94.3361 756.893 94.3361C756.893 94.3361 762.98 95.2609 761.859 100.156C761.859 100.156 764.261 93.9662 757.533 92.3806C750.806 90.795 690.654 76.0527 690.654 76.0527C690.654 76.0527 685.886 74.3571 683.471 79.7607" fill="#4B5B7D"/>
</g>
<g style="mix-blend-mode:multiply" opacity="0.47">
<path d="M589.602 197.102L665.771 225.746C665.771 225.746 694.652 236.492 708.408 206.176C722.165 175.859 736.503 120.341 736.503 120.341L726.677 117.29C726.677 117.29 702.054 192.52 690.197 204.951C678.341 217.382 655.442 207.602 650.61 205.554L597.25 182.647L589.606 197.088L589.602 197.102Z" fill="#4B5B7D"/>
</g>
</g>
<g clip-path="url(#clip2_322_2087)">
<path d="M364.718 124.382C361.21 124.527 357.309 123.166 353.921 122.35C350.084 121.413 346.266 120.401 342.473 119.306C335.804 117.376 328.863 115.686 321.846 115.774C321.252 115.774 320.215 115.895 319.817 116.414C319.779 116.464 319.754 116.502 319.722 116.546C319.153 117.363 319.735 117.344 320.342 117.793C321.954 119.002 324.033 119.515 325.645 120.875C326.006 121.179 326.353 121.78 325.968 122.046C325.854 122.128 325.709 122.141 325.57 122.154C321.789 122.42 317.997 121.647 314.223 121.54C313.268 121.508 312.307 121.527 311.359 121.61C310.101 121.723 308.369 123.147 307.699 124.16C305.954 126.793 303.489 128.173 300.467 126.027C299.013 124.989 298.084 123.325 297.667 121.591C296.32 124.116 293.583 125.704 290.777 126.249C287.015 126.976 281.522 126.698 278.519 123.983C277.243 122.831 276.351 121.204 276.193 119.477C276.136 118.812 276.585 114.774 277.717 114.774C270.997 113.939 264.65 110.053 261.104 104.275C259.454 101.591 258.443 98.5219 258.12 95.3954C257.754 91.7626 258.304 88.0413 259.859 84.7439C259.947 84.5541 260.042 84.3642 260.137 84.1743C263.152 78.3202 269.341 74.1558 275.915 73.871C282.989 73.5609 289.683 77.5797 294.064 83.206C294.576 83.8516 295.05 84.5351 295.499 85.2249C295.486 85.1616 295.473 85.092 295.467 85.0287C295.107 82.7883 294.765 80.4783 295.277 78.2632C295.796 75.9848 297.427 73.8013 299.715 73.352C301.94 72.9153 304.121 74.1937 305.727 75.8519C305.885 76.0101 306.036 76.1873 306.182 76.3519C308.009 78.4594 309.273 81.0479 309.836 83.7756C309.981 84.4591 310.082 85.1553 310.133 85.8515C310.348 85.5667 310.575 85.2882 310.815 85.0161C311.081 84.706 311.365 84.4022 311.663 84.1174C313.824 82.0035 316.631 80.5352 319.627 80.3391C323.831 80.0669 328.408 82.8453 330.039 86.7375C330.671 88.2375 330.974 89.8387 331.113 91.4588C331.202 92.4272 331.234 93.4018 331.253 94.3701C332.296 93.5347 333.832 93.3765 335.033 93.9714C336.234 94.5663 337.037 95.889 337.005 97.2244C336.986 97.9902 336.796 98.7434 336.746 99.4712C336.689 100.237 336.784 100.984 337.397 101.693C338.219 102.636 339.729 103.009 340.836 103.503C344.553 105.161 348.276 106.825 351.993 108.49C353.194 109.028 362.961 112.863 362.461 114.54C362.164 115.546 355.008 113.452 354.269 113.154C352.044 112.262 349.875 111.23 347.606 110.376C342.549 108.458 337.435 106.541 332.043 105.794C329.129 105.389 329.716 107.04 331.012 108.439C332.555 110.116 336.354 111.148 338.446 111.964C346.677 115.198 354.724 118.23 362.55 122.344C362.967 122.559 363.378 122.78 363.789 123.002C363.839 123.034 365.337 124.356 364.718 124.382Z" fill="#C6C7CD"/>
<path d="M314.223 121.527C313.268 121.496 312.307 121.515 311.359 121.597C310.101 121.711 308.369 123.135 307.699 124.147C305.954 126.78 303.489 128.16 300.467 126.014C299.013 124.977 298.084 123.312 297.667 121.578C296.321 124.103 293.583 125.692 290.777 126.236C287.015 126.964 281.522 126.685 278.52 123.97C277.243 122.818 276.351 121.192 276.193 119.464C276.136 118.8 276.585 114.762 277.717 114.762C270.997 113.926 264.65 110.04 261.104 104.262C259.454 101.579 258.443 98.5093 258.12 95.3828C258.165 95.4904 258.209 95.5917 258.266 95.6929C260.219 99.6042 263.999 102.37 268.064 103.977C272.129 105.585 276.516 106.192 280.852 106.775C280.871 108.053 280.157 109.205 279.727 110.414C278.589 113.591 279.525 117.401 282.003 119.692C284.481 121.983 288.362 122.61 291.428 121.217C293.855 120.116 295.619 117.989 297.3 115.92C298.065 117.445 298.843 118.989 300.038 120.205C301.226 121.42 302.914 122.274 304.602 122.046C305.942 121.863 307.111 121.04 308.413 120.667C310.348 120.116 312.427 120.597 314.235 121.515L314.223 121.527Z" fill="#A3ACB5"/>
<path d="M282.736 109.38C283.254 109.943 283.855 110.424 284.512 110.817C284.676 110.912 285.669 111.791 285.77 111.779C283.646 112.044 281.345 112.101 279.544 110.943C278.064 110 277.129 108.291 277.028 106.538C276.895 104.209 277.995 102.165 280.093 101.216C280.258 101.14 282.262 100.361 282.192 100.444C280.915 102 280.485 104.178 280.966 106.133C281.263 107.348 281.895 108.462 282.742 109.38H282.736Z" fill="#A3ACB5"/>
<path d="M310.328 86.0172C309.905 86.9919 307.68 92.846 308.59 93.7447C306.965 92.1372 304.133 92.3208 302.3 93.6815C300.467 95.0422 299.481 97.2889 298.975 99.5167C297.66 97.118 298.235 93.9156 300.132 91.9474C302.028 89.9791 305.031 89.2639 307.686 89.9031C307.73 87.707 308.514 85.5109 309.835 83.7578C309.981 84.4413 310.082 85.1375 310.132 85.8337C310.347 85.5489 310.575 85.2704 310.815 84.9983C310.644 85.3337 310.48 85.6691 310.335 86.0172H310.328Z" fill="#A3ACB5"/>
<path d="M364.718 124.378C361.21 124.524 357.309 123.163 353.921 122.347C350.084 121.41 346.266 120.397 342.473 119.303C335.804 117.372 328.863 115.682 321.846 115.771C321.252 115.771 320.215 115.891 319.817 116.41C319.779 116.461 319.754 116.499 319.722 116.543C317.238 116.296 314.766 115.632 312.788 114.138C310.493 112.404 309.027 109.347 309.817 106.588C309.968 106.044 310.259 105.113 310.632 104.67C311.492 103.639 312.876 103.158 314.216 103.101C315.557 103.044 316.884 103.348 318.193 103.658C316.903 103.48 315.474 103.322 314.406 104.075C314.001 104.36 313.679 104.759 313.458 105.208C311.024 109.917 315.582 112.29 319.406 112.062C323.37 111.822 327.188 113.676 330.886 114.777C335.892 116.265 340.874 117.866 345.912 119.258C348.542 119.986 351.184 120.657 353.852 121.227C356.121 121.708 358.302 122.834 360.685 122.676C361.317 122.638 361.937 122.505 362.556 122.347C362.973 122.562 363.384 122.783 363.795 123.005C363.846 123.037 365.344 124.359 364.724 124.385L364.718 124.378Z" fill="#A3ACB5"/>
<path d="M296.352 88.5245C292.679 82.0311 285.821 77.3604 278.399 76.6706C274.493 76.3098 270.504 77.0946 266.983 78.816C264.239 80.1577 262.229 82.145 260.124 84.1576C263.14 78.3097 269.328 74.1453 275.902 73.8605C282.976 73.5504 289.67 77.5692 294.051 83.1956C294.563 83.8411 295.037 84.5247 295.486 85.2145C295.474 85.1512 295.461 85.0816 295.455 85.0183C295.625 85.512 295.777 86.0183 295.91 86.5246C296.087 87.1828 296.238 87.8536 296.352 88.5308V88.5245Z" fill="#D9D8DA"/>
<path d="M305.714 75.8363C305.537 75.8173 305.366 75.8046 305.183 75.792C302.977 75.6464 300.132 76.254 298.577 77.9501C297.717 78.8805 297.18 80.0639 296.82 81.2728C296.365 82.8107 295.865 84.8486 295.91 86.513C295.91 86.6333 295.922 86.7472 295.928 86.8611C295.018 85.8612 294.405 84.5891 294.051 83.1904C294.563 83.8359 295.037 84.5195 295.486 85.2093C295.473 85.146 295.461 85.0764 295.454 85.0131C295.094 82.7727 294.753 80.4627 295.265 78.2476C295.783 75.9692 297.414 73.7857 299.702 73.3364C301.927 72.8997 304.108 74.1781 305.714 75.8363Z" fill="#D9D8DA"/>
<path d="M336.992 97.2148C336.973 97.9806 336.784 98.7337 336.733 99.4615C336.48 99.2843 336.227 99.0881 335.993 98.8729C335.545 98.4552 335.14 97.9742 334.622 97.6451C332.864 96.5313 330.589 97.4933 328.743 98.4489C328.793 95.9237 328.705 93.3985 328.477 90.8796C328.262 88.5885 327.845 86.133 326.208 84.5191C324.286 82.6268 321.309 82.4749 318.622 82.4749C317.352 82.4749 315.632 82.361 314.475 82.9622C313.894 83.2723 313.382 84.2533 312.743 84.3545C312.32 84.4178 311.966 84.3103 311.662 84.1014C313.824 81.9876 316.631 80.5193 319.627 80.3231C323.831 80.0509 328.408 82.8293 330.039 86.7215C330.671 88.2215 330.974 89.8227 331.113 91.4429C331.202 92.4112 331.233 93.3858 331.252 94.3541C332.295 93.5187 333.831 93.3605 335.033 93.9554C336.234 94.5503 337.036 95.8731 337.005 97.2084L336.992 97.2148Z" fill="#D9D8DA"/>
<path d="M323.933 92.6835C323.168 92.4873 321.885 92.2278 321.17 92.7215C320.051 93.4936 320.437 94.4619 321.594 94.829C322.574 95.1391 323.553 95.5062 324.375 96.1201C325.355 96.8542 328.655 101.879 326.512 102.867C328.585 101.905 329.527 99.2149 328.844 97.0314C328.162 94.848 326.139 93.2468 323.926 92.6772L323.933 92.6835Z" fill="#D9D8DA"/>
<path d="M371.412 109.275C371.387 106.149 371.349 101.687 371.305 96.333C371.254 90.9851 371.197 84.7385 371.134 78.0552C371.115 74.7136 371.09 71.258 371.065 67.7519C371.027 64.2457 371.027 60.6762 371.02 57.1131C371.008 53.5499 370.982 49.9804 371.001 46.4743C371.001 42.9617 371.001 39.5062 371.001 36.1646C371.02 29.475 371.039 23.2284 371.052 17.8742C371.058 12.5136 371.065 8.05179 371.071 4.92533C371.077 3.36211 371.058 2.13431 371.052 1.29257C371.046 0.457161 371.039 0.0078125 371.039 0.0078125C371.039 0.0078125 370.995 0.450832 370.919 1.28624C370.843 2.12165 370.717 3.34312 370.591 4.90635C370.458 6.46957 370.3 8.3619 370.154 10.539C370.078 11.6276 369.996 12.7858 369.908 14.0072C369.838 15.2287 369.762 16.5135 369.68 17.8489C369.604 19.1906 369.529 20.5829 369.446 22.0322C369.383 23.4752 369.314 24.9751 369.244 26.5067C369.105 29.5825 368.991 32.8229 368.896 36.1772C368.827 39.5315 368.707 42.9997 368.694 46.5186C368.65 50.0374 368.644 53.6195 368.637 57.1953C368.675 60.7711 368.7 64.3469 368.764 67.8658C368.802 71.3846 368.941 74.8402 369.035 78.1945C369.143 81.5424 369.288 84.7765 369.44 87.8396C369.522 89.3712 369.598 90.8585 369.668 92.3015C369.756 93.7381 369.845 95.1305 369.933 96.4659C370.022 97.8013 370.104 99.0797 370.186 100.295C370.281 101.51 370.369 102.662 370.451 103.744C370.609 105.909 370.78 107.795 370.926 109.345C371.065 110.896 371.197 112.111 371.273 112.94C371.355 113.769 371.4 114.212 371.4 114.212C371.4 114.212 371.4 113.763 371.4 112.927C371.4 112.092 371.406 110.858 371.393 109.294L371.412 109.275Z" fill="#D9D8DA"/>
<path d="M376.513 84.213C376.494 82.4789 376.475 80.7701 376.456 79.1182C376.45 77.4664 376.399 75.8652 376.38 74.3526C376.362 72.8337 376.324 71.4034 376.292 70.0743C376.229 67.4225 376.147 65.2137 376.077 63.6632C376.014 62.1126 375.944 61.2266 375.944 61.2266C375.944 61.2266 375.805 62.1063 375.603 63.6505C375.502 64.4226 375.382 65.3593 375.274 66.4352C375.154 67.5111 375.028 68.7263 374.927 70.0553C374.806 71.3844 374.693 72.821 374.61 74.3463C374.509 75.8715 374.421 77.4791 374.358 79.1372C374.301 80.8017 374.238 82.5168 374.212 84.2636C374.174 86.0104 374.181 87.7824 374.174 89.5608C374.2 91.3329 374.212 93.105 374.269 94.8518C374.313 96.5985 374.389 98.3073 374.471 99.9655C374.554 101.624 374.667 103.225 374.781 104.737C374.882 106.256 375.015 107.687 375.148 109.003C375.262 110.319 375.407 111.528 375.54 112.598C375.66 113.667 375.793 114.591 375.9 115.357C376.115 116.883 376.267 117.75 376.267 117.75C376.267 117.75 376.324 116.857 376.368 115.3C376.418 113.743 376.475 111.528 376.507 108.876C376.52 107.547 376.551 106.111 376.551 104.598C376.551 103.079 376.589 101.478 376.576 99.8262C376.576 98.1744 376.576 96.4656 376.576 94.7315C376.57 92.9974 376.564 91.238 376.557 89.4722C376.545 87.7128 376.532 85.9471 376.52 84.213H376.513Z" fill="#D9D8DA"/>
<path d="M382.665 17.0115C382.582 17.7014 382.437 18.7077 382.292 19.9924C382.134 21.2772 381.957 22.8404 381.786 24.6315C381.697 25.5302 381.596 26.4858 381.495 27.4921C381.4 28.4984 381.318 29.5616 381.223 30.6629C381.135 31.7704 381.04 32.9223 380.939 34.1184C380.857 35.3146 380.774 36.5487 380.692 37.8145C380.522 40.3523 380.376 43.0358 380.256 45.8078C380.161 48.5798 380.003 51.4468 379.965 54.3644C379.896 57.282 379.864 60.2376 379.833 63.1995C379.851 66.1614 379.851 69.117 379.902 72.0283C379.921 74.9395 380.054 77.8002 380.13 80.5722C380.231 83.3442 380.357 86.015 380.509 88.5466C380.585 89.8123 380.661 91.0465 380.73 92.2363C380.819 93.4261 380.907 94.5716 380.989 95.6792C381.078 96.7804 381.147 97.8373 381.236 98.8436C381.331 99.8436 381.419 100.799 381.501 101.692C381.659 103.483 381.83 105.033 381.975 106.312C382.115 107.59 382.247 108.59 382.329 109.274C382.412 109.957 382.456 110.324 382.456 110.324C382.456 110.324 382.456 109.957 382.456 109.261C382.456 108.565 382.462 107.546 382.443 106.255C382.418 103.673 382.38 99.9828 382.336 95.5526C382.298 91.1351 382.254 85.9771 382.209 80.452C382.203 77.6926 382.197 74.8383 382.184 71.9396C382.159 69.041 382.184 66.0981 382.197 63.1552C382.209 60.2123 382.203 57.263 382.254 54.3644C382.285 51.4658 382.311 48.6115 382.342 45.8521C382.431 40.327 382.513 35.1627 382.582 30.7388C382.658 26.3086 382.715 22.6189 382.759 20.0304C382.785 18.7393 382.785 17.7204 382.791 17.0242C382.791 16.328 382.797 15.9609 382.797 15.9609L382.665 17.0179V17.0115Z" fill="#D9D8DA"/>
<path d="M352.555 126.969C352.29 131.285 355.355 135.285 359.193 137.259C363.036 139.228 367.512 139.519 371.829 139.38C363.731 142.879 356.158 147.449 348.604 152.012C349.793 147.968 352.132 144.266 355.267 141.455C350.121 141.43 344.969 141.531 339.83 141.772C342.706 139.247 345.583 136.715 348.465 134.19C345.551 133.279 342.567 132.601 339.552 132.165C343.907 130.456 348.257 128.741 352.612 127.032" fill="white"/>
<path d="M399.801 135.785C403.265 134.108 406.249 130.912 406.584 127.07C413.828 128.874 421.079 130.678 428.323 132.481C423.007 132.418 417.691 131.918 412.457 131.001C415.504 133.424 418.55 135.848 421.597 138.266C417.065 136.975 412.368 136.247 407.659 136.108C412.254 140.431 416.856 144.759 421.452 149.082C414.296 145.418 406.97 142.095 399.498 139.139C398.872 141.475 398.581 143.899 398.644 146.31C397.829 144.07 396.514 142.013 394.833 140.323C393.056 144.677 391.969 149.304 391.615 153.993L389.997 142.12C388.909 143.43 388.024 144.911 387.38 146.494C387.114 143.753 387.013 141.006 386.798 138.26C386.785 138.12 386.785 137.969 386.88 137.867C386.975 137.772 387.12 137.766 387.253 137.766C391.666 137.798 395.654 137.791 399.808 135.785H399.801Z" fill="white"/>
<path d="M502.916 89.8428C505.754 94.3616 506.412 100.874 502.67 104.678C500.64 106.741 497.72 107.646 494.863 108.083C492.619 108.424 490.28 108.519 488.086 107.912C485.893 107.31 483.838 105.931 482.795 103.899C483.231 108.785 479.881 113.544 475.393 115.5C470.898 117.456 465.576 116.867 461.182 114.709C456.783 112.557 453.224 108.962 450.341 105.007C449.842 104.323 449.342 103.614 448.634 103.159C447.231 102.254 445.398 102.564 443.767 102.931C438.956 104.007 434.19 105.298 429.487 106.791C427.059 107.557 424.689 108.526 422.255 109.26C421.237 109.57 418.273 110.487 416.092 110.677C415.137 110.76 414.334 110.703 413.898 110.399C413.443 110.076 413.822 109.317 414.334 109.095C420.959 106.253 427.451 103.342 433.589 99.5449C434.487 98.9943 437.325 97.6652 436.788 96.4058C436.181 95.0008 432.755 95.7159 431.769 95.9184C428.191 96.6526 424.746 98.393 421.465 99.6588C420.757 99.9309 418.311 100.785 417.887 99.7347C417.324 98.3234 422.571 96.1463 423.437 95.6273C428.867 92.3806 434.146 88.8681 439.241 85.1214C439.354 85.0392 439.475 84.9379 439.576 84.8303C439.93 84.4822 440.183 84.0202 439.904 83.6531C439.772 83.4822 439.557 83.4 439.361 83.305C437.831 82.5772 436.971 80.8115 436.978 79.1153C436.99 77.4129 437.755 75.799 438.767 74.432C441.188 71.179 445.17 69.1411 449.222 69.0778C447.389 69.0778 447.142 62.3186 447.237 61.2553C447.421 59.1984 447.44 56.7555 448.173 54.8189C450.177 49.5216 456.094 46.7559 461.296 45.8446C463.818 45.4015 466.473 45.2813 468.888 46.123C471.309 46.9648 473.452 48.9077 473.983 51.4203C473.383 49.2115 474.546 46.8129 476.322 45.3699C478.105 43.9332 480.38 43.2814 482.624 42.8447C482.669 42.8447 482.7 42.8257 482.745 42.8194C484.862 42.4017 487.049 42.1485 489.167 42.5346C493.649 43.3636 497.252 47.104 498.731 51.4139C500.217 55.7302 499.819 60.5148 498.497 64.8881C502.625 64.7425 506.703 66.7994 509.25 70.0208C510.167 71.1726 510.881 72.4827 511.343 73.894C513.593 80.8368 509.629 87.7416 502.891 89.8428H502.916Z" fill="#C6C7CD"/>
<path d="M502.916 89.8439C505.755 94.3627 506.412 100.875 502.67 104.679C500.641 106.742 497.72 107.647 494.863 108.084C492.619 108.425 490.28 108.52 488.086 107.913C485.893 107.312 483.838 105.932 482.795 103.9C483.232 108.786 479.881 113.545 475.393 115.501C470.899 117.457 465.576 116.868 461.183 114.71C456.783 112.558 453.224 108.963 450.341 105.008C449.842 104.324 449.343 103.616 448.635 103.16C447.231 102.255 445.398 102.565 443.767 102.932C438.957 104.008 434.19 105.299 429.487 106.793C427.06 107.558 424.689 108.527 422.255 109.261C421.238 109.571 418.273 110.489 416.092 110.679C426.251 106.413 436.675 102.793 447.294 99.8498C448.009 99.6537 448.786 99.4575 449.475 99.7359C450.063 99.9764 450.468 100.514 450.834 101.027C453.451 104.647 456.227 108.508 460.386 110.128C464.849 111.862 470.089 110.533 473.933 107.666C477.264 105.179 479.692 101.698 481.626 98.0018C481.923 97.4322 482.214 96.8626 482.486 96.2804C482.745 96.6854 483.029 97.0778 483.339 97.4449C485.311 99.8245 488.238 101.445 491.31 101.571C494.876 101.723 498.517 99.7612 500.103 96.5652C501.69 93.3628 500.944 89.0908 498.175 86.8314C501.513 85.6036 505.192 84.0657 506.595 80.7937C507.999 77.528 506.709 73.3509 508.821 70.5093C508.953 70.3384 509.092 70.1675 509.25 70.0156C510.167 71.1675 510.881 72.4776 511.343 73.8889C513.593 80.8316 509.63 87.7364 502.891 89.8376L502.916 89.8439Z" fill="#A3ACB5"/>
<path d="M483.907 90.949C484.552 89.6769 484.596 88.1896 484.628 86.7656C485.646 88.8225 486.158 91.1262 486.107 93.4236C486.095 94.1451 486.012 94.8919 485.684 95.5374C485.184 96.5184 484.173 97.1386 483.149 97.5373C479.571 98.9297 475.74 98.3664 472.497 96.4171C476.929 95.7083 481.543 95.6134 483.907 90.9553V90.949Z" fill="#A3ACB5"/>
<path d="M482.763 42.8125C479.034 46.5529 476.48 51.502 475.765 56.7486C473.667 55.0652 473.37 51.9197 471.543 49.9514C469.95 48.2427 467.402 47.7047 465.089 48.0211C462.775 48.3439 460.645 49.4072 458.59 50.5084C455.347 52.2425 452.003 54.2994 450.36 57.5967C447.958 62.4256 449.961 68.1785 451.984 73.1847C449.19 72.9378 446.339 73.3366 443.722 74.3492C441.984 75.02 440.271 76.0326 439.354 77.6528C438.438 79.2794 438.596 81.6147 440.094 82.7096C441.029 83.3868 442.42 83.6273 442.837 84.6969C441.75 84.6462 440.663 84.6969 439.582 84.8361C439.936 84.488 440.189 84.026 439.91 83.6589C439.778 83.488 439.563 83.4058 439.367 83.3108C437.837 82.583 436.977 80.8173 436.984 79.1211C436.996 77.4187 437.761 75.8048 438.773 74.4378C441.194 71.1848 445.176 69.1469 449.228 69.0836C447.395 69.0836 447.148 62.3244 447.243 61.2611C447.427 59.2042 447.446 56.7613 448.179 54.8247C450.183 49.5274 456.1 46.7617 461.302 45.8503C463.824 45.4073 466.479 45.2871 468.894 46.1288C471.315 46.9706 473.458 48.9135 473.989 51.4261C473.389 49.2173 474.552 46.8187 476.328 45.3757C478.111 43.939 480.386 43.2872 482.63 42.8505C482.675 42.8505 482.706 42.8315 482.751 42.8252L482.763 42.8125Z" fill="#D9D8DA"/>
<path d="M467.902 56.067C469.766 55.4594 471.935 55.5796 473.528 56.7252C474.71 57.5796 475.475 58.9149 475.936 60.301C477.03 63.5983 476.505 67.3956 474.552 70.2689C474.368 70.5347 474.166 70.8385 474.217 71.155C474.261 71.4271 474.482 71.6296 474.672 71.8385C476.246 73.5599 475.399 76.8193 473.186 77.5534C475.083 77.3762 477.036 76.3952 477.807 74.6485C478.578 72.9017 477.662 70.4461 475.791 70.0917C478.698 67.0475 478.623 62.2692 477.902 58.1175C477.801 57.5226 477.687 56.9214 477.434 56.3708C476.96 55.3265 476.025 54.5544 475.019 54.0101C472.579 52.681 469.539 52.5165 466.972 53.5734C464.26 54.6936 463.034 57.4277 462.01 59.9845C463.407 58.32 465.86 56.7315 467.902 56.0606V56.067Z" fill="#D9D8DA"/>
<path d="M453.198 100.757C453.938 100.041 454.159 98.9591 454.324 97.9402C454.678 95.7567 454.855 93.2315 453.325 91.6366C456.587 91.0797 459.229 87.9912 459.28 84.6812C459.356 80.0422 455.537 78.846 451.801 77.6815C452.566 76.9727 453.932 77.0043 454.918 77.0929C457.623 77.3271 460.285 78.6119 461.941 80.77C463.597 82.9281 464.135 85.9723 463.06 88.4722C461.985 90.9721 459.229 92.7189 456.536 92.3645C457.99 94.7441 458.287 97.7946 457.326 100.408C455.708 104.813 451.131 104.472 448.615 100.858C449.203 101.7 452.516 101.408 453.205 100.75L453.198 100.757Z" fill="#A3ACB5"/>
<path d="M452.51 120.894C452.396 120.894 452.276 120.869 452.162 120.837C454.349 121.502 454.387 126.052 454.008 127.71C453.445 130.128 450.677 131.685 448.319 130.792C448.647 133.311 447.111 135.944 444.772 136.906C443.066 137.609 441.125 137.45 439.317 137.058C438.148 136.805 436.921 136.406 436.182 135.457C435.208 134.21 435.379 132.444 435.606 130.875C434.462 131.641 432.825 130.508 432.572 129.153C432.319 127.799 432.958 126.451 433.584 125.223C433.931 124.54 434.778 123.495 434.525 122.723C434.298 122.021 432.376 120.989 431.782 120.521C430.48 119.495 428.09 118.47 427.319 116.806C427.231 116.628 427.167 116.445 427.123 116.249C426.99 115.635 429.702 116.983 429.74 116.996C431.036 117.666 432.401 118.223 433.729 118.831C434.658 119.261 435.682 119.698 436.668 119.438C436.713 118.692 435.935 118.198 435.265 117.869C434.601 117.546 433.824 117.065 433.836 116.325C435.025 116.306 435.967 117.261 437.003 117.837C437.32 118.008 437.674 118.154 438.028 118.09C440.366 117.698 437.768 110.584 441.738 111.167C441.997 111.205 442.282 111.274 442.598 111.382C443.85 111.806 444.735 112.907 445.531 113.964C445.936 112.42 447.756 111.414 449.28 111.888C450.803 112.369 451.72 114.243 451.163 115.742C452.282 115.255 453.629 115.939 454.274 116.977C454.767 117.787 454.925 118.837 454.52 119.698C454.166 120.445 453.338 120.964 452.529 120.894H452.516H452.51Z" fill="#C6C7CD"/>
<path d="M444.779 136.905C443.072 137.608 441.131 137.449 439.323 137.057C438.154 136.804 436.928 136.405 436.188 135.456C435.215 134.209 435.385 132.443 435.613 130.874C434.469 131.64 432.831 130.507 432.579 129.152C432.326 127.798 432.964 126.45 433.59 125.222C433.938 124.539 434.785 123.494 434.532 122.722C434.304 122.02 432.383 120.988 431.788 120.52C430.486 119.494 428.097 118.469 427.325 116.805C427.401 116.849 427.483 116.893 427.572 116.95C428.881 117.767 429.949 118.982 431.289 119.798C432.168 120.336 433.091 120.811 434.039 121.216C435.177 121.703 435.885 121.178 437.067 121.039C437.218 121.564 437.699 121.988 437.68 122.539C437.667 122.963 437.332 123.323 436.947 123.494C436.561 123.665 436.125 123.678 435.701 123.678C435.493 123.678 435.284 123.678 435.094 123.76C434.551 124.007 434.083 125.773 433.912 126.317C433.716 126.956 433.356 128.121 434.077 128.576C434.412 128.785 434.842 128.792 435.227 128.684C435.606 128.576 435.948 128.361 436.283 128.146C436.169 129.317 436.055 130.488 435.942 131.652C435.91 131.962 435.885 132.279 435.979 132.57C436.239 133.355 437.61 134.386 438.35 134.671C439.007 134.918 439.728 134.969 440.436 134.937C441.776 134.88 443.167 134.519 444.178 133.62C445.126 132.779 445.639 131.715 445.563 130.443C445.07 130.924 444.343 131.209 443.679 131.038C443.015 130.867 442.49 130.14 442.674 129.475C443.54 130.038 444.772 129.817 445.525 129.114C446.277 128.405 446.58 127.311 446.511 126.285C447.168 126.412 447.484 127.184 447.535 127.855C447.623 129.057 447.908 129.69 448.331 130.779C448.66 133.298 447.124 135.93 444.785 136.892L444.779 136.905Z" fill="#A3ACB5"/>
<path d="M446.296 121.147C446.106 121.35 445.67 121.66 445.405 121.774C445.114 121.9 444.33 121.774 444.166 121.888C444.817 121.426 445.879 120.571 445.923 119.679C445.948 119.122 444.406 117.692 444.298 118.065C444.4 117.704 444.305 117.293 444.052 117.014C443.799 116.736 443.401 116.603 443.028 116.673C443.534 116.293 444.362 116.489 444.646 117.052C444.697 117.154 444.735 117.268 444.829 117.324C444.899 117.362 444.981 117.369 445.057 117.381C445.651 117.457 446.157 117.894 446.422 118.432C446.688 118.97 446.726 119.59 446.656 120.185C446.618 120.533 446.53 120.894 446.29 121.153L446.296 121.147Z" fill="#D9D8DA"/>
<path d="M454.514 119.697C454.16 120.444 453.332 120.963 452.523 120.893H452.51C452.017 120.754 451.568 120.532 451.259 120.127C452.2 119.887 453.281 119.513 453.553 118.589C453.781 117.824 453.288 116.982 452.586 116.596C451.891 116.21 451.05 116.191 450.253 116.292C450.342 115.362 450.165 114.412 449.735 113.577C449.533 113.178 449.223 112.773 448.781 112.71C448.427 112.659 448.073 112.836 447.794 113.058C447.03 113.678 446.587 114.684 446.663 115.672C446.612 115.083 445.241 113.95 444.836 113.545C444.134 112.849 443.376 112.21 442.567 111.64C442.32 111.469 442.029 111.317 441.739 111.172C441.998 111.21 442.282 111.279 442.598 111.387C443.85 111.811 444.735 112.912 445.531 113.969C445.936 112.425 447.756 111.419 449.28 111.893C450.803 112.374 451.72 114.248 451.164 115.748C452.283 115.26 453.629 115.944 454.274 116.982C454.767 117.792 454.925 118.842 454.52 119.703L454.514 119.697Z" fill="#D9D8DA"/>
<path d="M335.539 131.814C335.539 131.89 335.513 131.972 335.444 132.042C334.761 132.662 333.958 133.055 333.137 133.536C331.898 134.27 330.735 135.175 329.546 135.985C330.57 137.453 329.989 139.687 328.528 140.725C327.068 141.763 325.007 141.706 323.421 140.871C322.612 140.44 321.878 139.801 321.556 138.94C321.271 138.187 321.391 137.251 321.922 136.668C321.986 136.592 322.068 136.523 322.156 136.453C320.557 136.453 318.787 136.346 317.725 135.105C316.625 133.814 316.764 131.884 317.852 130.586C319.457 128.656 322.314 128.643 324.426 129.751C323.983 128.909 324.647 127.814 325.557 127.549C328.452 126.707 329.761 129.783 329.786 131.96C331.563 131.998 333.415 131.719 335.216 131.542C335.393 131.523 335.532 131.662 335.545 131.814H335.539Z" fill="#C6C7CD"/>
<path d="M335.539 131.812C335.539 131.888 335.514 131.971 335.444 132.04C334.762 132.661 333.959 133.053 333.137 133.534C331.898 134.268 330.735 135.173 329.546 135.983C330.571 137.452 329.989 139.686 328.529 140.724C327.068 141.761 325.008 141.704 323.421 140.869C322.612 140.439 321.879 139.8 321.556 138.939C321.272 138.186 321.392 137.249 321.923 136.667C322.372 136.546 322.852 136.584 323.257 136.831C323.37 137.667 323.68 138.496 324.268 139.097C324.856 139.705 325.754 140.04 326.569 139.825C327.366 139.61 327.966 138.92 328.282 138.16C328.605 137.401 328.687 136.559 328.782 135.743C328.832 135.376 328.883 134.99 329.091 134.686C329.363 134.293 329.831 134.104 330.273 133.933C331.525 133.445 332.897 133.047 334.092 132.439C334.521 132.218 335.04 131.882 335.533 131.812H335.539Z" fill="#A3ACB5"/>
<path d="M322.365 133.453C322.726 133.257 323.75 132.839 324.142 133.212C324.679 133.725 323.693 135.054 323.92 135.858C324.028 136.244 324.837 137.345 325.355 137.105C324.578 137.472 323.617 137.427 322.871 136.978C322.125 136.529 321.632 135.706 321.588 134.845C321.569 134.51 321.626 134.162 321.815 133.89C321.954 133.7 322.15 133.561 322.359 133.447L322.365 133.453Z" fill="#A3ACB5"/>
<path d="M365.217 85.2723C365.04 85.671 364.68 85.9684 364.301 86.1773C362.897 86.9684 361.254 86.7089 359.964 85.8419C359.591 86.633 359.509 87.6772 358.782 88.2468C358.182 88.7152 354.762 89.0822 354.446 88.1139C354.907 89.5442 354.047 91.1138 352.872 92.0378C352.031 92.7087 350.931 93.1707 349.875 92.9365C348.82 92.7087 347.935 91.6011 348.238 90.5632C346.948 91.31 345.425 92.0695 344.034 91.5315C342.644 90.9935 342.005 89.2088 342.448 87.7848C342.89 86.3608 344.199 85.3229 345.621 84.8546C344.262 84.5888 343.181 83.3926 342.878 82.0446C342.764 81.5572 342.751 81.0446 342.878 80.5509C343.32 78.7029 345.45 77.4498 347.284 77.9624C346.165 76.5891 344.989 75.0069 345.178 73.2538C345.412 71.1526 347.631 69.7286 349.743 69.659C352.827 69.564 355.805 71.9564 356.38 74.9879C357.202 74.1461 358.529 73.8297 359.623 74.2601C360.716 74.6968 361.475 75.8866 361.361 77.0511C361.273 77.9878 360.394 79.0637 359.604 79.532C360.23 79.5193 360.862 79.513 361.462 79.6902C361.854 79.8105 362.234 80.0256 362.505 80.3231C362.651 80.475 362.765 80.6585 362.84 80.8611C363.087 81.5256 362.84 82.2787 362.48 82.8863C363.213 82.7597 364.016 82.8483 364.61 83.2977C365.205 83.7407 365.521 84.5951 365.224 85.2723H365.217Z" fill="#C6C7CD"/>
<path d="M365.217 85.2695C365.04 85.6682 364.68 85.9656 364.301 86.1745C362.897 86.9656 361.254 86.7061 359.964 85.8391C359.591 86.6302 359.509 87.6744 358.782 88.244C358.182 88.7124 354.762 89.0794 354.446 88.1111C354.907 89.5415 354.047 91.111 352.872 92.035C352.031 92.7059 350.931 93.1679 349.875 92.9337C348.82 92.7059 347.935 91.5983 348.238 90.5604C346.948 91.3072 345.425 92.0667 344.034 91.5287C342.644 90.9908 342.005 89.206 342.448 87.782C342.89 86.358 344.199 85.3201 345.621 84.8518C344.262 84.586 343.181 83.3898 342.878 82.0418C343.149 82.681 343.446 83.3202 344.312 83.5987C345.419 83.9594 346.74 83.4721 347.347 82.4721C347.675 84.3138 349.654 85.6935 351.487 85.3454C353.32 85.0037 354.686 83.0164 354.326 81.1747C356.02 81.0102 357.701 81.6241 359.402 81.6177C360.539 81.6177 361.797 81.1367 362.499 80.3203C362.645 80.4722 362.758 80.6557 362.834 80.8583C363.081 81.5228 362.834 82.2759 362.474 82.8835C363.207 82.7569 364.01 82.8455 364.604 83.2949C365.198 83.7379 365.514 84.5923 365.217 85.2695Z" fill="#A3ACB5"/>
<path d="M414.973 84.0454C413.576 85.558 411.395 86.2984 409.373 85.9693C409.954 87.0073 409.986 88.3237 409.448 89.3869C408.892 90.5008 407.824 91.1337 406.654 91.3678C405.889 91.5134 405.068 91.4881 404.322 91.2982C403.31 91.0451 402.375 90.4818 401.648 89.735C401.3 89.3743 400.061 87.906 400.314 87.33C399.574 89.0198 397.621 90.0768 395.807 89.7793C394.821 89.6211 393.847 89.0325 393.5 88.0832C393.158 87.1402 393.708 85.8997 394.694 85.7415C393.196 84.7858 391.325 84.8301 390.029 83.4251C389.397 82.7353 389.049 81.748 389.15 80.843C389.201 80.3999 389.372 79.9696 389.662 79.6152C390.351 78.7924 391.553 78.5709 392.602 78.7734C393.645 78.9823 394.58 79.5582 395.491 80.1215C395.396 79.9253 395.314 79.7228 395.244 79.5139C394.429 77.1469 395.08 74.1154 397.766 73.3686C398.942 73.0458 400.225 73.28 401.313 73.8369C400.712 72.7673 401.167 71.4383 401.641 70.3117C401.989 69.489 402.349 68.6346 403.032 68.0713C404.328 66.9891 406.262 67.3055 407.849 67.8625C409.208 68.3371 410.612 69.0333 411.294 70.2991C411.692 71.0396 411.794 71.8433 411.718 72.6661C411.604 73.8496 411.13 75.0774 410.649 76.1849C411.427 75.8179 412.268 75.4381 413.102 75.3812C413.418 75.3558 413.741 75.3812 414.05 75.4571C415.308 75.7862 416.136 77.033 416.453 78.2924C416.946 80.2924 416.37 82.5201 414.973 84.0327V84.0454Z" fill="#C6C7CD"/>
<path d="M414.973 84.0424C413.576 85.555 411.395 86.2954 409.373 85.9663C409.954 87.0043 409.986 88.3207 409.448 89.3839C408.892 90.4978 407.824 91.1307 406.654 91.3648C405.889 91.5104 405.068 91.4851 404.322 91.2952C403.31 91.0421 402.375 90.4788 401.648 89.732C401.3 89.3713 400.061 87.903 400.314 87.327C399.574 89.0168 397.621 90.0738 395.807 89.7763C394.821 89.6181 393.847 89.0295 393.5 88.0802C393.158 87.1372 393.708 85.8967 394.694 85.7385C393.196 84.7828 391.325 84.8271 390.029 83.4221C389.397 82.7323 389.049 81.745 389.15 80.84C389.441 81.4539 389.814 82.0424 390.446 82.4095C391.034 82.7576 396.028 83.2196 395.725 82.7386C397.052 84.8398 400.542 85.0043 402.071 83.0487C402.982 85.0676 404.568 87.4599 406.73 87.0043C407.268 85.8777 407.305 84.5297 406.85 83.3715C409.853 82.8968 412.394 80.3273 412.837 77.3148C412.931 76.6692 412.938 76.0047 413.108 75.3845C413.425 75.3592 413.747 75.3845 414.057 75.4604C415.315 75.7895 416.143 77.0363 416.459 78.2958C416.952 80.2957 416.377 82.5234 414.98 84.036L414.973 84.0424Z" fill="#A3ACB5"/>
<path d="M411.718 72.6817C410.865 71.0489 409.354 69.7578 407.596 69.1755C406.326 68.7578 404.802 68.7515 403.797 69.6312C402.236 71.0046 402.78 73.5298 403.456 75.498C402.255 75.4094 401.117 74.9538 399.929 74.7512C398.74 74.5424 397.394 74.6373 396.528 75.4854C395.276 76.7069 395.643 78.7701 396.098 80.4535C395.813 80.1434 395.529 79.8396 395.238 79.5295C394.423 77.1625 395.074 74.131 397.76 73.3842C398.936 73.0614 400.219 73.2956 401.307 73.8525C400.706 72.783 401.161 71.4539 401.635 70.3274C401.983 69.5046 402.343 68.6502 403.026 68.087C404.322 67.0047 406.256 67.3212 407.843 67.8781C409.202 68.3528 410.605 69.0489 411.288 70.3147C411.686 71.0552 411.788 71.859 411.712 72.6817H411.718Z" fill="#D9D8DA"/>
</g>
<defs>
<clipPath id="clip0_322_2087">
<rect width="149.896" height="220.36" fill="white" transform="translate(0.339844 82.5972) rotate(-24.0437)"/>
</clipPath>
<clipPath id="clip1_322_2087">
<rect width="158.6" height="164.315" fill="white" transform="translate(612.928 45) rotate(18.1239)"/>
</clipPath>
<clipPath id="clip2_322_2087">
<rect width="254" height="154" fill="white" transform="translate(258)"/>
</clipPath>
</defs>
</svg>
