<svg width="100" height="100" viewBox="0 0 100 100" fill="none" xmlns="http://www.w3.org/2000/svg">
<rect width="100" height="100" rx="20" fill="white"/>
<path d="M52.8797 17.7999C51.8831 17.3293 49.6792 16.3486 49.6792 16.3486C49.6792 16.3486 47.4561 17.3096 46.4212 17.7999L16.8311 32.215V50.5526V68.8902L46.4404 83.3053C47.4561 83.7956 49.6984 84.7566 49.6984 84.7566C49.6984 84.7566 51.9023 83.776 52.8989 83.3053L82.5465 68.8902V50.5526V32.215L52.8797 17.7999ZM79.5377 65.8306L51.1741 51.3175V68.8902H48.1844V51.3175L19.8207 65.8306V50.5526V35.2746L48.1844 49.7877V32.215H51.1741V49.7877L79.5377 35.2746V50.5526V65.8306Z" fill="#E40000"/>
</svg>
