<svg width="127" height="129" viewBox="0 0 127 129" fill="none" xmlns="http://www.w3.org/2000/svg">
<g clip-path="url(#clip0_322_902)">
<path d="M107.672 69.3264C107.792 67.93 107.923 66.7345 107.903 65.8806C107.923 65.0569 107.933 64.5847 107.933 64.5847C107.933 64.5847 107.913 64.0824 107.903 63.2486C107.923 62.4349 107.792 61.2595 107.672 59.8028C107.392 56.9699 106.62 53.3031 105.368 49.7468C104.055 46.1906 102.252 42.8855 100.669 40.5146C100.278 39.9018 99.8775 39.3995 99.5569 38.9374C99.3966 38.6762 99.2162 38.4652 99.0659 38.2844C98.9056 38.0735 98.7654 37.8826 98.6451 37.7118C98.3846 37.4205 98.1843 37.1392 98.044 36.9584C97.9037 36.7876 97.8136 36.7072 97.8136 36.7072C97.8136 36.7072 97.513 36.3456 96.972 35.7227C96.7015 35.4012 96.3508 35.0597 95.95 34.6176C95.7597 34.3866 95.5393 34.1857 95.3289 33.9647C95.0884 33.7035 94.8179 33.4925 94.5774 33.2414C92.5336 31.2724 89.578 28.8513 86.2818 26.9928C84.6687 25.9882 82.9455 25.2347 81.3324 24.5215C79.6993 23.8685 78.1664 23.2959 76.7938 22.894C75.4513 22.5022 74.2891 22.2913 73.4976 22.0803C72.6761 21.9698 72.2252 21.8493 72.2252 21.8493C72.2252 21.8493 72.095 21.8191 71.8846 21.8191C71.6742 21.7488 71.3435 21.6684 70.9328 21.6282C70.522 21.5981 70.0311 21.5278 69.46 21.4575C69.1795 21.367 68.8789 21.367 68.5483 21.367C68.2277 21.3369 67.887 21.2967 67.5363 21.2967C66.1036 21.1661 64.4305 21.1661 62.6371 21.2264C62.1963 21.2264 61.7454 21.2967 61.2845 21.2967C61.0441 21.3369 60.8237 21.367 60.5932 21.367C60.3628 21.367 60.1223 21.367 59.9019 21.4575C58.9802 21.5981 58.0284 21.6684 57.1267 21.8493C55.2431 22.1406 53.4597 22.6831 51.7465 23.1452C51.3357 23.2858 50.925 23.4265 50.5242 23.5269C50.1134 23.6776 49.7227 23.8283 49.362 23.9689C48.6106 24.2904 47.8792 24.5114 47.248 24.8329C46.9274 24.9735 46.6268 25.1142 46.3363 25.2548C46.196 25.3251 46.0558 25.3955 45.9055 25.4457C45.7652 25.506 45.635 25.5763 45.5147 25.6567C45.0138 25.9179 44.5629 26.1288 44.1822 26.3398C43.4709 26.7416 43.0601 26.9928 43.0601 26.9928C43.0601 26.9928 42.9499 27.0631 42.7695 27.1435C42.5692 27.2841 42.2886 27.4248 41.948 27.6357C41.5973 27.8467 41.1765 28.1481 40.6856 28.4293C40.2047 28.7609 39.6837 29.1527 39.1126 29.5746C38.8121 29.7655 38.5215 30.0066 38.2209 30.2376C37.9304 30.4787 37.6098 30.7399 37.2892 30.9911C36.9586 31.2422 36.678 31.5335 36.3374 31.8048C36.1771 31.9454 36.0168 32.0961 35.8565 32.2267C35.6761 32.3372 35.5158 32.4879 35.3555 32.6687C34.7344 33.2715 34.033 33.8843 33.4219 34.6076C33.1013 34.9291 32.7506 35.2405 32.4601 35.6122C32.1595 35.9638 31.8289 36.3255 31.5283 36.6871C29.0737 39.6004 27.11 42.8654 25.8476 45.3668C25.6672 45.6983 25.547 46.0298 25.4168 46.3011C25.2865 46.6025 25.1563 46.8837 25.036 47.1449C24.7856 47.6774 24.6253 48.1094 24.465 48.5011C24.3247 48.8929 24.1944 49.1843 24.1143 49.3952C24.0742 49.5057 24.0442 49.566 24.0241 49.6062C24.0041 49.6765 24.0041 49.7167 24.0041 49.7167C24.0041 49.7167 23.8638 50.1386 23.5933 50.9323C23.5232 51.1131 23.453 51.3341 23.3629 51.5953C23.2927 51.8364 23.2426 52.0574 23.1525 52.3387C23.0823 52.63 22.9922 52.9113 22.902 53.2428C22.8619 53.3835 22.8118 53.5743 22.7517 53.7049C22.7417 53.8456 22.7016 54.0264 22.6415 54.2173C21.9803 56.9397 21.4192 60.6768 21.4092 64.5546C21.4292 68.4022 21.9803 72.1794 22.6415 74.9119C22.7016 75.0425 22.7317 75.2234 22.7517 75.4042C22.8118 75.5549 22.8619 75.6855 22.902 75.8763C22.9922 76.2079 23.0823 76.4791 23.1525 76.7704C23.2426 77.0216 23.2927 77.2727 23.3629 77.5239C23.453 77.775 23.5232 77.986 23.5933 78.1769C23.8638 78.9303 24.0041 79.3924 24.0041 79.3924C24.0041 79.3924 24.0041 79.4326 24.0241 79.4627C24.0442 79.5331 24.0742 79.6034 24.1143 79.7139C24.2045 79.9249 24.3247 80.2162 24.465 80.5778C24.6353 80.9797 24.7856 81.4418 25.036 81.9441C25.1663 82.2254 25.2865 82.5268 25.4168 82.808C25.537 83.0893 25.6672 83.4108 25.8476 83.7021C27.0999 86.2538 29.0737 89.4786 31.5283 92.4321C31.8289 92.7937 32.1595 93.1453 32.4601 93.517C32.7506 93.8686 33.1013 94.1499 33.4219 94.5216C34.033 95.2349 34.7344 95.8176 35.3555 96.4504C35.5158 96.5911 35.6761 96.7518 35.8565 96.8925C36.0168 97.0231 36.1771 97.1738 36.3374 97.3144C36.678 97.5856 36.9586 97.887 37.2892 98.1382C37.6098 98.3893 37.9304 98.6103 38.2209 98.8615C38.5315 99.1126 38.8121 99.3236 39.1126 99.5446C39.6837 99.9364 40.2147 100.338 40.6856 100.66C41.1665 100.971 41.5973 101.232 41.948 101.483C42.2886 101.694 42.5692 101.835 42.7695 101.946C42.9399 102.046 43.0601 102.126 43.0601 102.126C43.0601 102.126 43.4709 102.347 44.1822 102.769C44.5629 102.96 45.0138 103.161 45.5147 103.422C45.635 103.493 45.7652 103.573 45.9055 103.643C46.0558 103.714 46.196 103.784 46.3363 103.844C46.6268 103.985 46.9274 104.105 47.248 104.276C47.8792 104.578 48.6206 104.779 49.362 105.14C49.7227 105.281 50.1134 105.442 50.5242 105.542C50.925 105.683 51.3357 105.813 51.7465 105.984C53.4497 106.436 55.2431 106.979 57.1267 107.22C58.0384 107.431 58.9902 107.511 59.9019 107.662C60.1324 107.702 60.3628 107.732 60.5932 107.732C60.8237 107.732 61.0441 107.732 61.2845 107.762C61.7454 107.802 62.1963 107.883 62.6371 107.883C64.4305 107.953 66.0936 107.903 67.5363 107.812C67.887 107.812 68.2277 107.772 68.5483 107.742C68.8789 107.742 69.1795 107.702 69.46 107.672C70.0311 107.601 70.522 107.521 70.9328 107.441C71.3435 107.441 71.6641 107.34 71.8846 107.3C72.095 107.28 72.2252 107.23 72.2252 107.23C72.2252 107.23 72.6761 107.169 73.4976 107.029C74.2891 106.808 75.4513 106.627 76.7938 106.205C78.1664 105.833 79.6993 105.261 81.3324 104.598C82.9455 103.864 84.6687 103.121 86.2818 102.146C89.578 100.278 92.5336 97.8368 94.5774 95.8979C94.8279 95.6367 95.0884 95.3956 95.3289 95.1746C95.5393 94.9536 95.7597 94.7527 95.95 94.5317C96.3508 94.0997 96.7015 93.738 96.972 93.4166C97.513 92.7535 97.8136 92.4421 97.8136 92.4421C97.8136 92.4421 97.9037 92.3316 98.044 92.1407C98.1843 92.0101 98.3846 91.7188 98.6451 91.3973C98.7654 91.2165 98.9056 91.0658 99.0659 90.8549C99.2162 90.6539 99.3865 90.4631 99.5569 90.2119C99.8775 89.7498 100.268 89.2073 100.669 88.6347C102.252 86.2538 104.055 82.9085 105.368 79.3924C106.62 75.8261 107.392 72.1393 107.672 69.2963V69.3264ZM93.0145 89.8804C92.8041 90.1818 92.4434 90.4932 92.1128 90.8649C91.9525 91.0357 91.7521 91.2265 91.5618 91.4476C91.3514 91.6686 91.1209 91.8695 90.9105 92.0503C89.0871 93.7983 86.5122 95.9481 83.6167 97.5555C82.2041 98.4496 80.6912 99.1126 79.2886 99.7455C77.8659 100.288 76.5233 100.8 75.3211 101.132C74.1488 101.504 73.1369 101.644 72.4356 101.845C71.7243 101.966 71.3235 102.046 71.3235 102.046C71.3235 102.046 71.2233 102.046 71.033 102.096C70.8426 102.136 70.5721 102.227 70.2114 102.227C69.8307 102.267 69.4099 102.307 68.9089 102.398C68.6585 102.478 68.388 102.478 68.0874 102.478C67.8169 102.478 67.5263 102.508 67.2157 102.568C65.9534 102.639 64.4605 102.639 62.8675 102.599C62.4668 102.599 62.0961 102.508 61.6953 102.488H61.0842C60.8738 102.488 60.6734 102.448 60.473 102.408C59.6514 102.277 58.8199 102.237 58.0083 102.056C56.3753 101.805 54.8223 101.313 53.3395 100.941C52.9688 100.81 52.6182 100.69 52.2575 100.549C51.8968 100.469 51.5662 100.378 51.2355 100.208C50.5943 99.9163 49.9531 99.7455 49.4021 99.4441C49.1316 99.2734 48.851 99.203 48.6006 99.0825C48.4603 99.0323 48.3301 98.9519 48.1998 98.8916C48.0896 98.8615 47.9694 98.7811 47.8592 98.7309C47.4183 98.4797 47.0276 98.2688 46.707 98.1482C46.0758 97.7564 45.7251 97.5555 45.7251 97.5555C45.7251 97.5555 45.635 97.5254 45.4646 97.435C45.2943 97.3445 45.0238 97.224 44.7533 97.003C44.4427 96.8121 44.052 96.5609 43.6412 96.2897C43.2204 96.0084 42.7796 95.6669 42.2586 95.3253C41.9881 95.1746 41.7276 94.9134 41.4771 94.6924C41.2066 94.4814 40.9261 94.2805 40.6355 94.0695C40.355 93.8485 40.1045 93.5773 39.814 93.3563C39.6637 93.2257 39.5134 93.0951 39.3731 92.9645C39.2228 92.854 39.0726 92.7234 38.9523 92.5928C38.3913 92.0604 37.7701 91.5078 37.2291 90.8749C36.9485 90.5736 36.638 90.2822 36.3674 89.9809C36.117 89.6393 35.8465 89.348 35.5559 89.0064C33.4018 86.4748 31.6686 83.6218 30.5765 81.4016C30.4362 81.1002 30.306 80.8491 30.2058 80.608C30.1056 80.3368 29.9653 80.0856 29.8652 79.8445C29.6347 79.4226 29.5045 79.0006 29.3843 78.6591C29.254 78.3376 29.1338 78.0865 29.0737 77.8956C29.0336 77.8052 29.0035 77.7248 28.9935 77.6846C28.9635 77.6444 28.9635 77.6143 28.9635 77.6143C28.9635 77.6143 28.8432 77.2225 28.6028 76.5394C28.5527 76.3686 28.4825 76.1677 28.3924 75.9567C28.3323 75.7859 28.2822 75.5348 28.2321 75.2635C28.1619 75.0224 28.0818 74.7713 28.0016 74.5201C27.9716 74.3795 27.9215 74.279 27.8814 74.1083C27.8614 73.9777 27.8213 73.8069 27.8013 73.6763C27.2101 71.2753 26.7192 67.9903 26.7092 64.5847C26.7192 61.1289 27.2101 57.8841 27.8013 55.4931C27.8213 55.3223 27.8614 55.1917 27.8814 55.0812C27.9215 54.8803 27.9716 54.7799 28.0016 54.6392C28.0918 54.3479 28.172 54.0867 28.2321 53.8858C28.2922 53.6346 28.3323 53.3634 28.3924 53.1725C28.4825 52.9515 28.5427 52.7807 28.6028 52.63C28.8432 51.9469 28.9635 51.535 28.9635 51.535L28.9935 51.4848C28.9935 51.4848 29.0336 51.3642 29.0737 51.2738C29.1438 51.103 29.264 50.8519 29.3843 50.5103C29.5045 50.1788 29.6347 49.7468 29.8652 49.3048C29.9653 49.0838 30.1056 48.8327 30.2058 48.5916C30.306 48.3203 30.4362 48.029 30.5765 47.7678C31.6686 45.5376 33.4119 42.6845 35.5559 40.163C35.8465 39.8214 36.117 39.4799 36.3674 39.1986C36.648 38.847 36.9586 38.5758 37.2291 38.3146C37.7701 37.6314 38.4013 37.1392 38.9523 36.5867C39.0726 36.4561 39.2228 36.2953 39.3731 36.215C39.5234 36.0442 39.6637 35.9638 39.814 35.8232C40.1045 35.5821 40.355 35.3309 40.6355 35.1099C40.9261 34.8688 41.2066 34.698 41.4771 34.4469C41.7276 34.266 41.9781 34.0048 42.2586 33.8542C42.7796 33.5226 43.2204 33.1911 43.6412 32.8897C44.052 32.5884 44.4327 32.3674 44.7533 32.1765C45.0338 31.9555 45.3043 31.8249 45.4646 31.7445C45.6249 31.6641 45.7251 31.5737 45.7251 31.5737C45.7251 31.5737 46.0758 31.413 46.707 31.0312C47.0276 30.8605 47.4183 30.6696 47.8592 30.4486C47.9894 30.3984 48.0896 30.318 48.2198 30.2276C48.32 30.1974 48.4503 30.1472 48.6006 30.0568C48.851 29.9865 49.1215 29.8559 49.4021 29.7353C49.9431 29.4339 50.5943 29.2632 51.2456 28.9718C51.5662 28.801 51.8968 28.7207 52.2475 28.58C52.6081 28.4595 52.9588 28.3892 53.3295 28.2184C54.8123 27.8266 56.3652 27.3645 57.9983 27.1133C58.7998 26.9425 59.6414 26.8722 60.463 26.7818C60.6533 26.6713 60.8637 26.6713 61.0741 26.6713C61.2645 26.6713 61.4749 26.6713 61.6853 26.6512C62.086 26.601 62.4567 26.5608 62.8575 26.5608C64.4505 26.5106 65.9534 26.5106 67.2057 26.601C67.5163 26.6512 67.8069 26.6713 68.0774 26.6713C68.3779 26.6713 68.6484 26.6713 68.8989 26.7818C69.3999 26.8119 69.8207 26.8622 70.2014 26.9425C70.5621 26.9425 70.8326 27.0229 71.0229 27.0229C71.2133 27.1133 71.3135 27.1133 71.3135 27.1133C71.3135 27.1133 71.7042 27.2037 72.4256 27.2841C73.1269 27.5051 74.1288 27.6759 75.311 28.0376C76.5033 28.3892 77.8458 28.8814 79.2785 29.4339C80.6912 30.0568 82.194 30.75 83.6067 31.5737C86.5022 33.2313 89.077 35.3711 90.9005 37.109C91.1209 37.32 91.3513 37.5209 91.5517 37.7319C91.7421 37.9027 91.9324 38.1438 92.1028 38.3246C92.4334 38.6662 92.7941 38.9876 93.0045 39.2388C93.4553 39.8315 93.7559 40.1731 93.7559 40.1731C93.7559 40.1731 93.826 40.2233 93.9463 40.3438C94.0765 40.5046 94.2368 40.7557 94.4672 41.027C94.5774 41.1977 94.6977 41.3484 94.858 41.5192C94.9782 41.69 95.1385 41.8608 95.2688 42.1019C95.5693 42.5339 95.8999 42.9457 96.2606 43.4681C97.6533 45.5577 99.2262 48.5212 100.358 51.5551C101.45 54.6593 102.152 57.9042 102.402 60.3955C102.492 61.6513 102.613 62.6659 102.593 63.4194C102.613 64.1728 102.653 64.6048 102.653 64.6048C102.653 64.6048 102.613 65.0167 102.593 65.7802C102.613 66.5437 102.492 67.5483 102.402 68.804C102.152 71.2954 101.45 74.5402 100.358 77.6243C99.2262 80.6884 97.6533 83.6318 96.2606 85.6912C95.8999 86.2438 95.5693 86.6556 95.2688 87.0977C95.1485 87.3388 94.9782 87.5096 94.858 87.6703C94.6977 87.8411 94.5774 88.0018 94.4672 88.1324C94.2368 88.4338 94.0765 88.6849 93.9463 88.8256C93.826 88.9361 93.7559 89.0164 93.7559 89.0164C93.7559 89.0164 93.4553 89.358 93.0045 89.9005L93.0145 89.8804Z" fill="#9D9D9D"/>
<path d="M123.663 79.9959C123.102 79.4433 122.46 78.8908 121.839 78.3182C120.577 77.2232 119.304 76.1583 118.332 75.4149C117.341 74.6615 116.669 74.1793 116.669 74.1793C116.669 74.1793 116.77 73.5966 116.92 72.6925C117 72.2404 117.05 71.718 117.13 71.1554C117.2 70.6029 117.281 70.0002 117.311 69.3974C117.361 68.7946 117.411 68.2019 117.451 67.6394C117.491 67.0768 117.491 66.5443 117.511 66.1023C117.531 65.1881 117.541 64.5854 117.541 64.5854C117.541 64.5854 117.541 63.9726 117.511 63.0684C117.491 62.6164 117.491 62.094 117.451 61.5214C117.401 60.9588 117.361 60.346 117.311 59.7533C117.271 59.1505 117.19 58.5578 117.13 57.9952C117.06 57.4226 117 56.9203 116.92 56.4683C116.77 55.5541 116.669 54.9513 116.669 54.9513C116.669 54.9513 117.341 54.5394 118.343 53.8563C119.354 53.1732 120.637 52.2791 121.939 51.2645C123.232 50.29 124.514 49.2452 125.436 48.4616C126.368 47.6479 126.979 47.1054 126.979 47.1054C126.979 47.1054 126.829 46.5529 126.608 45.7693C126.498 45.3775 126.348 44.9154 126.167 44.4031C125.997 43.9209 125.817 43.4085 125.646 42.8761C125.466 42.3437 125.266 41.8112 125.085 41.3491C124.885 40.8569 124.715 40.4249 124.554 40.0331C124.404 39.6413 124.284 39.3299 124.174 39.1089C124.063 38.8778 124.013 38.7472 124.013 38.7472C124.013 38.7472 123.162 38.6468 121.899 38.5463C120.627 38.4257 118.964 38.3152 117.281 38.2751C115.597 38.2349 113.954 38.265 112.722 38.3152C111.48 38.3755 110.668 38.4257 110.668 38.4257C110.668 38.4257 110.367 37.9034 109.917 37.1298C109.666 36.7481 109.386 36.296 109.085 35.8238C108.774 35.3316 108.454 34.8393 108.093 34.3471C107.742 33.8548 107.402 33.3726 107.071 32.8904C106.721 32.4484 106.4 32.0265 106.119 31.6749C105.839 31.3333 105.608 31.0319 105.448 30.821C105.268 30.61 105.178 30.4995 105.178 30.4995C105.178 30.4995 104.787 30.0474 104.186 29.3643C103.895 29.0026 103.545 28.6309 103.144 28.209C102.763 27.8172 102.342 27.3652 101.921 26.9432C101.05 26.1094 100.188 25.2354 99.4969 24.6728C98.8056 24.0701 98.3447 23.6984 98.3447 23.6984C98.3447 23.6984 98.4048 23.5075 98.5151 23.166C98.6052 22.8244 98.7655 22.3522 98.9258 21.7696C99.2565 20.6243 99.6672 19.0572 100.038 17.4699C100.389 15.8826 100.699 14.2954 100.89 13.0698C101.1 11.8442 101.21 11.0304 101.21 11.0304C101.21 11.0304 101.09 10.94 100.9 10.8195C100.699 10.6788 100.409 10.488 100.058 10.2569C99.7073 10.0359 99.3065 9.78475 98.8657 9.50346C98.6553 9.35278 98.4249 9.22218 98.1945 9.08153C97.964 8.93085 97.7236 8.80025 97.4931 8.66965C96.5313 8.10708 95.5795 7.54451 94.8481 7.17281C94.1067 6.80111 93.6158 6.56 93.6158 6.56C93.6158 6.56 92.9044 7.01207 91.8525 7.72533C90.8105 8.47878 89.4379 9.47333 88.1354 10.5181C87.8148 10.7793 87.4942 11.0505 87.1736 11.2916C86.853 11.5528 86.5424 11.8241 86.2519 12.0652C85.6507 12.5876 85.1097 13.0698 84.6589 13.4817C83.7471 14.3255 83.166 14.8981 83.166 14.8981C83.166 14.8981 83.0258 14.8178 82.7753 14.7474C82.5248 14.657 82.1642 14.5465 81.7434 14.3858C81.3025 14.2552 80.8116 14.0643 80.2706 13.8935C79.7296 13.7429 79.1384 13.5721 78.5573 13.4013C77.9863 13.2406 77.3851 13.0999 76.8341 12.9693C76.2931 12.8588 75.7721 12.7282 75.3312 12.6278C74.4396 12.467 73.8384 12.3666 73.8384 12.3666C73.8384 12.3666 73.6881 12.3264 73.4276 12.2862C73.1672 12.246 72.8065 12.1556 72.3456 12.1054C71.8948 12.0652 71.3738 11.9848 70.8127 11.9145C70.5322 11.8743 70.2416 11.8442 69.9511 11.804C69.6605 11.804 69.36 11.7638 69.0594 11.7437C68.4583 11.6935 67.8571 11.6533 67.286 11.6131C66.735 11.6131 66.204 11.5729 65.7531 11.5729C65.3023 11.5729 64.9216 11.5528 64.6611 11.5428C64.4006 11.5428 64.2403 11.5428 64.2403 11.5428C64.2403 11.5428 63.9497 10.8094 63.4588 9.71443C62.9679 8.62947 62.2966 7.15271 61.5452 5.7061C60.8038 4.25948 60.0123 2.85305 59.3911 1.77813C58.7699 0.713262 58.3291 0 58.3291 0C58.3291 0 58.1889 0.0200919 57.9484 0.0401838C57.7079 0.0602757 57.3673 0.120551 56.9565 0.180827C56.5558 0.221011 56.0749 0.291332 55.5639 0.351608C55.3134 0.381746 55.0429 0.401838 54.7724 0.462113C54.5019 0.502297 54.2414 0.552527 53.9609 0.592711C53.4198 0.713262 52.8688 0.783584 52.3679 0.894089C52.1074 0.934273 51.8669 0.974457 51.6264 1.00459C51.406 1.07492 51.1756 1.1151 50.9752 1.15528C50.1737 1.34616 49.6327 1.47675 49.6327 1.47675C49.6327 1.47675 49.3822 2.28043 49.0416 3.51608C48.7109 4.74169 48.3002 6.40931 47.9796 8.0468C47.6389 9.67425 47.3884 11.3318 47.2281 12.5574C47.0578 13.8132 46.9777 14.6068 46.9777 14.6068C46.9777 14.6068 46.8374 14.6671 46.5869 14.7474C46.3264 14.8278 45.9758 14.9785 45.555 15.1292C45.1442 15.3 44.6433 15.5009 44.1223 15.7119C43.6013 15.9429 43.0502 16.1941 42.4892 16.4452C42.2187 16.5557 41.9482 16.6863 41.6676 16.8069C41.4071 16.9375 41.1466 17.0882 40.8962 17.1987C40.3852 17.4599 39.9243 17.711 39.5236 17.922C38.7321 18.3539 38.2111 18.6754 38.2111 18.6754C38.2111 18.6754 38.0808 18.7457 37.8504 18.8562C37.62 19.017 37.2894 19.1777 36.9086 19.4188C36.1572 19.9111 35.1253 20.554 34.1534 21.2773C33.913 21.438 33.6625 21.6088 33.422 21.7997C33.1716 21.9604 32.9411 22.1413 32.7207 22.312C32.2699 22.6737 31.8591 22.9952 31.5084 23.2765C31.3281 23.4071 31.1678 23.5377 31.0175 23.6582C30.8772 23.7687 30.767 23.8792 30.6568 23.9596C30.4564 24.1505 30.3462 24.2409 30.3462 24.2409C30.3462 24.2409 29.6449 23.8792 28.5629 23.3468C28.0218 23.0755 27.3906 22.7742 26.6993 22.4527C26.0181 22.1513 25.2767 21.8298 24.5252 21.5084C23.0424 20.8855 21.5095 20.3029 20.3473 19.8809C19.7662 19.67 19.2853 19.4992 18.9347 19.3887C18.594 19.2782 18.4037 19.2179 18.4037 19.2179C18.4037 19.2179 18.0229 19.6197 17.4519 20.2225C16.8808 20.8052 16.1594 21.649 15.4381 22.4929C14.7167 23.3267 14.0454 24.2007 13.5345 24.8336C13.284 25.1651 13.0636 25.4363 12.9233 25.6172C12.8532 25.7176 12.7931 25.7879 12.753 25.8482C12.7129 25.8984 12.7029 25.9286 12.7029 25.9286C12.7029 25.9286 13.0335 26.7122 13.5846 27.8875C13.8451 28.4602 14.1657 29.1332 14.5163 29.8365C14.867 30.5397 15.2577 31.2931 15.6685 32.0265C16.47 33.5133 17.3216 34.9298 17.9729 35.9645C18.2935 36.4969 18.594 36.9088 18.7844 37.2102C18.9948 37.5216 19.105 37.7024 19.105 37.7024C19.105 37.7024 18.8044 38.2148 18.3536 38.9984C18.1231 39.3902 17.8927 39.8623 17.6422 40.3847C17.512 40.6258 17.3817 40.887 17.2415 41.1582C17.1713 41.2788 17.1112 41.4194 17.0411 41.55L16.8507 41.972C16.6003 42.5144 16.3498 43.067 16.1194 43.5894C16.0091 43.8506 15.8989 44.1017 15.7987 44.3528C15.7086 44.5739 15.6184 44.815 15.5383 45.0259C15.3679 45.4378 15.2277 45.7995 15.1375 46.0406C15.0974 46.1611 15.0573 46.2616 15.0273 46.3419C15.0072 46.4022 14.9972 46.4424 14.9972 46.4424C14.9972 46.4424 14.7969 47.005 14.5063 47.8689C14.1957 48.7128 13.8851 49.8882 13.5545 51.0635C13.3942 51.6462 13.274 52.2389 13.1337 52.8015C13.0135 53.344 12.8933 53.8563 12.8131 54.3084C12.6528 55.2226 12.5526 55.7952 12.5526 55.7952C12.5526 55.7952 11.7711 55.966 10.5989 56.2774C9.44674 56.5587 7.89381 56.9906 6.34087 57.4628C5.56941 57.714 4.78794 57.9752 4.06657 58.2163C3.34521 58.4574 2.68396 58.7085 2.10286 58.9195C0.950685 59.3715 0.189246 59.6729 0.189246 59.6729C0.189246 59.6729 0.149171 60.2254 0.0890572 61.0492C0.0489815 61.8629 0.0289436 62.978 0.00890572 64.073C-0.0111321 64.6155 0.00890572 65.1681 0.00890572 65.6804C0.0189247 66.2028 0.0389625 66.6749 0.0489815 67.0969C0.0690193 67.9006 0.119114 68.4732 0.119114 68.4732C0.119114 68.4732 0.880553 68.8549 2.04275 69.3974C2.61383 69.6586 3.2851 69.9801 4.00646 70.2814C4.36714 70.4321 4.73784 70.6029 5.11856 70.7536C5.5093 70.9244 5.90004 71.0751 6.29078 71.2358C7.85373 71.8386 9.41668 72.381 10.5889 72.7628C11.17 72.9436 11.681 73.0943 12.0216 73.1948C12.3723 73.3053 12.5726 73.3455 12.5726 73.3455C12.5726 73.3455 12.6829 73.9482 12.8331 74.8624C12.9133 75.3145 13.0335 75.8067 13.1537 76.3693C13.294 76.9118 13.4142 77.5246 13.5745 78.1072C13.9052 79.2826 14.2158 80.4479 14.5263 81.2918C14.8169 82.1457 15.0173 82.7284 15.0173 82.7284L15.0473 82.8288C15.0774 82.9092 15.1175 82.9996 15.1575 83.1302C15.2577 83.3613 15.398 83.7229 15.5583 84.1549C15.6485 84.3659 15.7286 84.5869 15.8188 84.828C15.919 85.059 16.0192 85.3202 16.1394 85.5915C16.3798 86.0938 16.6203 86.6463 16.8708 87.2189L17.0611 87.6308C17.1212 87.7413 17.1914 87.892 17.2615 88.0326C17.4018 88.3039 17.532 88.545 17.6623 88.8062C17.9127 89.2984 18.1532 89.7907 18.3736 90.1825C18.8245 90.956 19.125 91.4884 19.125 91.4884C19.125 91.4884 18.6341 92.1314 17.9228 93.1159C17.2214 94.0803 16.3097 95.3963 15.4381 96.7726C14.9972 97.4457 14.5564 98.1489 14.1657 98.8119C13.7749 99.4549 13.4243 100.088 13.1237 100.62C12.5226 101.675 12.1418 102.428 12.1418 102.428C12.1418 102.428 12.222 102.539 12.3622 102.73C12.5025 102.921 12.7029 103.202 12.9433 103.523C13.4543 104.207 14.1256 105.071 14.8169 105.924C15.5282 106.778 16.2496 107.602 16.8006 108.205C17.3617 108.808 17.7424 109.22 17.7424 109.22C17.7424 109.22 18.584 109.019 19.7963 108.697C21.0086 108.366 22.6517 107.883 24.2347 107.331C25.0262 107.07 25.8077 106.808 26.519 106.527C27.2504 106.256 27.9317 105.975 28.4927 105.754C29.6449 105.261 30.3863 104.92 30.3863 104.92C30.3863 104.92 30.4965 105.04 30.6969 105.201C30.7971 105.302 30.9173 105.392 31.0576 105.523C31.2079 105.643 31.3682 105.754 31.5485 105.904C31.8992 106.176 32.3099 106.517 32.7608 106.859C32.9812 107.04 33.2116 107.22 33.4621 107.381C33.7026 107.552 33.9531 107.713 34.1935 107.914C35.1653 108.627 36.1973 109.25 36.9487 109.742C37.3294 109.983 37.6601 110.184 37.8905 110.304C38.1109 110.435 38.2512 110.515 38.2512 110.515C38.2512 110.515 38.7822 110.817 39.5637 111.259C39.9644 111.47 40.4353 111.711 40.9362 111.982C41.1867 112.093 41.4472 112.223 41.7077 112.354C41.9782 112.484 42.2487 112.625 42.5293 112.736C43.0903 112.997 43.6414 113.228 44.1623 113.469C44.6833 113.68 45.1743 113.871 45.5951 114.042C46.0158 114.212 46.3665 114.363 46.627 114.433C46.8775 114.534 47.0177 114.584 47.0177 114.584C47.0177 114.584 47.0478 115.378 47.1279 116.573C47.2081 117.769 47.3484 119.406 47.5688 121.003C47.7792 122.591 48.0397 124.218 48.2701 125.444C48.3803 126.046 48.4905 126.559 48.5607 126.91C48.6408 127.272 48.6809 127.463 48.6809 127.463C48.6809 127.463 49.2219 127.584 50.0234 127.784C50.4342 127.875 50.8951 127.985 51.406 128.106C51.907 128.216 52.448 128.287 52.999 128.407C53.5401 128.508 54.0811 128.598 54.6021 128.689C55.113 128.789 55.5839 128.829 55.9947 128.9C56.8163 128.99 57.3573 129.05 57.3573 129.05C57.3573 129.05 57.4875 128.9 57.7079 128.608C57.9284 128.297 58.2389 127.875 58.5996 127.342C59.331 126.288 60.2728 124.871 61.1344 123.455C61.3548 123.093 61.5652 122.741 61.7756 122.38C61.976 122.038 62.1664 121.676 62.3667 121.325C62.7475 120.652 63.0781 119.999 63.3686 119.476C63.9397 118.381 64.2804 117.628 64.2804 117.628C64.2804 117.628 64.4306 117.648 64.7012 117.648C64.9717 117.648 65.3424 117.628 65.7932 117.628C66.2441 117.608 66.755 117.588 67.3261 117.588C67.8872 117.548 68.4983 117.497 69.0995 117.457C69.4 117.437 69.7006 117.397 69.9911 117.387C70.2817 117.367 70.5723 117.307 70.8528 117.286C71.4239 117.206 71.9448 117.136 72.3857 117.075C72.8365 117.015 73.2072 116.945 73.4677 116.905C73.7282 116.864 73.8785 116.824 73.8785 116.824C73.8785 116.824 74.4696 116.714 75.3713 116.563C75.8121 116.443 76.3331 116.332 76.8742 116.222C77.4252 116.091 78.0263 115.96 78.5974 115.769C79.1785 115.619 79.7596 115.448 80.3107 115.277C80.8517 115.137 81.3426 114.936 81.7834 114.795C82.2042 114.664 82.5649 114.524 82.8154 114.453C83.0558 114.353 83.2061 114.303 83.2061 114.303C83.2061 114.303 83.7371 114.885 84.5787 115.759C85.4103 116.633 86.5524 117.779 87.7447 118.884C88.9269 119.979 90.1693 121.024 91.1211 121.817C92.0729 122.611 92.7341 123.103 92.7341 123.103C92.7341 123.103 92.8544 123.043 93.0748 122.952C93.2952 122.842 93.6058 122.681 93.9665 122.5C94.6978 122.119 95.6897 121.616 96.6415 121.044C97.1224 120.762 97.5933 120.501 98.0442 120.24C98.485 119.979 98.8958 119.707 99.2364 119.486C99.9377 119.044 100.399 118.753 100.399 118.753C100.399 118.753 100.389 118.542 100.369 118.16C100.338 117.789 100.298 117.256 100.248 116.623C100.138 115.327 99.9478 113.66 99.6973 112.022C99.4468 110.355 99.1262 108.737 98.8557 107.532C98.7255 106.929 98.6052 106.417 98.5251 106.075C98.4249 105.724 98.3848 105.523 98.3848 105.523C98.3848 105.523 98.8457 105.121 99.5169 104.548C100.218 103.965 101.08 103.112 101.952 102.288C102.372 101.866 102.793 101.414 103.174 101.002C103.575 100.6 103.925 100.208 104.216 99.8768C104.817 99.1937 105.208 98.7416 105.208 98.7416C105.208 98.7416 105.308 98.621 105.478 98.4201C105.639 98.2192 105.869 97.9178 106.149 97.5662C106.43 97.1945 106.751 96.7826 107.101 96.3306C107.432 95.8785 107.783 95.3963 108.123 94.9041C108.484 94.4118 108.804 93.8995 109.115 93.4273C109.416 92.935 109.696 92.5031 109.947 92.1113C110.398 91.3377 110.698 90.8053 110.698 90.8053C110.698 90.8053 111.49 90.9258 112.682 91.0564C113.884 91.187 115.477 91.3277 117.1 91.398C118.723 91.4683 120.376 91.5085 121.589 91.4683C122.821 91.4683 123.643 91.4382 123.643 91.4382C123.643 91.4382 123.873 90.9259 124.204 90.1724C124.534 89.3989 124.925 88.3842 125.336 87.3395C125.716 86.3047 126.057 85.2499 126.328 84.4563C126.398 84.2654 126.448 84.0745 126.508 83.9238C126.558 83.7731 126.588 83.6225 126.628 83.5019C126.698 83.2809 126.728 83.1202 126.728 83.1202C126.728 83.1202 126.147 82.5074 125.246 81.5932C124.805 81.1411 124.274 80.6288 123.703 80.0762L123.663 79.9959ZM99.6873 95.8584C99.3967 96.21 99.006 96.5817 98.5752 97.0237C98.3648 97.2849 98.1343 97.4959 97.8939 97.7571C97.6434 98.0384 97.3729 98.2494 97.1024 98.5106C94.8682 100.68 91.6721 103.292 88.1054 105.302C86.3621 106.387 84.4885 107.2 82.7453 107.984C80.9719 108.697 79.2987 109.3 77.826 109.712C76.3732 110.184 75.1208 110.395 74.2492 110.626C73.3775 110.787 72.8666 110.857 72.8666 110.857C72.8666 110.857 72.7464 110.897 72.5059 110.927C72.2654 110.968 71.9248 111.068 71.474 111.108C71.0331 111.138 70.4921 111.209 69.8609 111.309C69.5603 111.329 69.2197 111.379 68.879 111.399C68.5284 111.399 68.1577 111.44 67.787 111.49C66.2441 111.61 64.4306 111.61 62.487 111.54C62.0061 111.54 61.5252 111.49 61.0342 111.43C60.7838 111.389 60.5433 111.389 60.2928 111.369C60.0424 111.369 59.7819 111.319 59.5314 111.299C58.5495 111.158 57.5076 111.058 56.5157 110.847C54.5019 110.546 52.5382 109.973 50.6947 109.451C50.2338 109.28 49.793 109.149 49.3521 109.009C48.9314 108.848 48.4905 108.747 48.0898 108.536C47.2983 108.185 46.4968 107.924 45.8255 107.582C45.4748 107.461 45.1342 107.281 44.8336 107.15C44.6533 107.08 44.513 107.009 44.3627 106.949C44.2124 106.889 44.0722 106.778 43.9319 106.708C43.3809 106.437 42.91 106.156 42.4992 105.995C41.7177 105.553 41.2769 105.282 41.2769 105.282C41.2769 105.282 41.1567 105.221 40.9563 105.071C40.7459 104.97 40.4253 104.809 40.0546 104.568C39.6939 104.347 39.223 104.026 38.702 103.704C38.171 103.353 37.62 102.911 36.9888 102.509C36.6481 102.308 36.3676 102.027 36.027 101.755C35.6963 101.494 35.3657 101.253 35.0151 100.982C34.6744 100.67 34.3338 100.409 34.0031 100.068C33.8128 99.927 33.6425 99.7864 33.4621 99.6256C33.2718 99.4448 33.1014 99.3142 32.9311 99.1334C32.2398 98.4503 31.4884 97.8073 30.8171 97.0338C30.4865 96.652 30.1058 96.3205 29.7651 95.9187C29.4445 95.5369 29.1139 95.1652 28.7733 94.7433C26.1082 91.6291 23.9842 88.0628 22.6216 85.3202C22.4413 84.9787 22.291 84.6471 22.1507 84.3357C22.0005 84.0343 21.8602 83.6928 21.74 83.4115C21.4594 82.8791 21.2791 82.3265 21.1188 81.9347C20.9685 81.5329 20.8282 81.1813 20.7281 80.9804C20.698 80.8699 20.6579 80.7794 20.6279 80.7192C20.6078 80.679 20.6078 80.6488 20.6078 80.6488C20.6078 80.6488 20.4375 80.1666 20.167 79.2826C20.0868 79.0817 19.9967 78.8808 19.9165 78.6095C19.8364 78.3282 19.7562 78.057 19.6861 77.7456C19.5959 77.4542 19.5158 77.1428 19.4156 76.8013C19.3655 76.6305 19.3154 76.4597 19.2553 76.2889C19.2252 76.1282 19.1952 75.9273 19.1451 75.7464C18.4237 72.7628 17.8226 68.6942 17.7925 64.5553C17.8226 60.4163 18.4237 56.3377 19.1451 53.354C19.1952 53.1431 19.2252 52.9723 19.2553 52.8115C19.3054 52.6006 19.3655 52.4599 19.4156 52.259C19.5158 51.9275 19.5959 51.6161 19.6861 51.3147C19.7662 51.0434 19.8364 50.7421 19.9165 50.501C20.0067 50.2297 20.0868 49.9886 20.167 49.7877C20.4375 48.9539 20.6078 48.4616 20.6078 48.4616C20.6078 48.4616 20.6078 48.4315 20.6279 48.3712C20.6579 48.321 20.698 48.2406 20.7281 48.1301C20.8282 47.889 20.9585 47.5977 21.1188 47.1557C21.2891 46.7337 21.4594 46.2314 21.74 45.699C21.8602 45.3876 22.0005 45.0862 22.1507 44.7748C22.281 44.4433 22.4413 44.1318 22.6216 43.8003C23.9742 41.0075 26.1082 37.4814 28.7733 34.3672C29.1139 33.9553 29.4445 33.5434 29.7651 33.1717C30.1058 32.79 30.4765 32.4585 30.8171 32.0667C31.4984 31.3132 32.2398 30.6703 32.9311 29.9871C33.1014 29.8164 33.2718 29.6456 33.4621 29.4748C33.6425 29.3442 33.8128 29.2036 34.0031 29.0328C34.3538 28.7314 34.6744 28.43 35.0151 28.1588C35.3657 27.8875 35.7064 27.6163 36.027 27.3752C36.3576 27.104 36.6481 26.8327 36.9888 26.6218C37.61 26.1898 38.171 25.7377 38.702 25.4062C39.223 25.0747 39.6839 24.7934 40.0546 24.5222C40.4353 24.281 40.7459 24.1203 40.9563 24.0199C41.1567 23.9194 41.2769 23.8491 41.2769 23.8491C41.2769 23.8491 41.7177 23.5778 42.4992 23.1258C42.91 22.9248 43.3809 22.6837 43.9319 22.3924C44.0722 22.3221 44.2024 22.2518 44.3627 22.1513C44.523 22.081 44.6633 22.0107 44.8336 21.9504C45.1342 21.8198 45.4748 21.6691 45.8255 21.5084C46.5068 21.1568 47.2983 20.9358 48.1098 20.5841C48.5005 20.3933 48.9414 20.2526 49.3822 20.122C49.803 19.9814 50.2438 19.8106 50.7047 19.6398C52.5482 19.1576 54.5019 18.5448 56.5257 18.2836C57.5176 18.0425 58.5495 17.9722 59.5414 17.8115C59.7919 17.8115 60.0524 17.7713 60.3028 17.7512C60.5533 17.7512 60.7938 17.7512 61.0442 17.711C61.5452 17.6809 62.0261 17.6105 62.497 17.6105C64.4407 17.5302 66.2541 17.5302 67.797 17.6809C68.1677 17.6809 68.5384 17.711 68.8891 17.7512C69.2497 17.7813 69.5704 17.7813 69.8709 17.8316C70.4921 17.9019 71.0331 17.9722 71.484 18.0425C71.9348 18.0827 72.2755 18.153 72.5159 18.2133C72.7464 18.2535 72.8766 18.2836 72.8766 18.2836C72.8766 18.2836 73.3775 18.3539 74.2592 18.5247C75.1309 18.7658 76.3832 18.9667 77.836 19.4389C79.3088 19.8508 80.9819 20.4535 82.7553 21.1367C84.4986 21.9604 86.3821 22.7742 88.1154 23.8591C91.6821 25.8583 94.8882 28.4702 97.1124 30.61C97.3829 30.8812 97.6534 31.1223 97.9039 31.3936C98.1443 31.6246 98.3848 31.8657 98.5852 32.1068C99.026 32.5489 99.4168 32.9407 99.6973 33.2923C100.268 33.9653 100.609 34.3772 100.609 34.3772C100.609 34.3772 100.689 34.4475 100.859 34.6485C100.99 34.8393 101.21 35.1106 101.481 35.4521C101.631 35.6129 101.791 35.8339 101.952 36.0348C102.132 36.2659 102.312 36.4768 102.483 36.738C102.833 37.2504 103.254 37.833 103.685 38.4458C105.408 41.0176 107.352 44.6442 108.764 48.4817C110.147 52.3293 110.979 56.3578 111.299 59.4218C111.419 60.9387 111.56 62.2246 111.54 63.1589C111.57 64.0429 111.59 64.5854 111.59 64.5854C111.59 64.5854 111.57 65.0877 111.54 66.0019C111.56 66.8859 111.419 68.1818 111.299 69.739C110.979 72.7929 110.147 76.8013 108.764 80.6689C107.352 84.4965 105.408 88.123 103.685 90.6747C103.254 91.3176 102.843 91.8702 102.483 92.4026C102.312 92.6739 102.132 92.8848 101.952 93.0857C101.791 93.2867 101.631 93.4876 101.481 93.6885C101.21 94.0301 100.99 94.3013 100.859 94.5022C100.689 94.673 100.609 94.7735 100.609 94.7735C100.609 94.7735 100.268 95.1954 99.6973 95.8584H99.6873Z" fill="white"/>
<path opacity="0.05" d="M97.3232 64.7062C97.3232 82.7086 82.7656 97.2953 64.8217 97.2953C46.8778 97.2953 32.3203 82.6985 32.3203 64.7062C32.3203 46.714 46.8778 32.1172 64.8217 32.1172C82.7656 32.1172 97.3232 46.714 97.3232 64.7062Z" fill="white"/>
<path opacity="0.1" d="M90.7012 64.7087C90.7012 79.0443 79.1093 90.6574 64.8223 90.6574C50.5353 90.6574 38.9434 79.0342 38.9434 64.7087C38.9434 50.3832 50.5353 38.75 64.8223 38.75C79.1093 38.75 90.7012 50.3732 90.7012 64.7087Z" fill="white"/>
<path opacity="0.2" d="M85.4511 64.708C85.4511 76.1303 76.2136 85.3826 64.8321 85.3826C53.4506 85.3826 44.2031 76.1202 44.2031 64.708C44.2031 53.2958 53.4406 44.0234 64.8321 44.0234C76.2236 44.0234 85.4511 53.2858 85.4511 64.708Z" fill="white"/>
<g clip-path="url(#clip1_322_902)">
<path d="M66.0273 56.75V54H67.4023C67.767 54 68.1168 53.8551 68.3746 53.5973C68.6325 53.3394 68.7773 52.9897 68.7773 52.625V44.375C68.7773 44.0103 68.6325 43.6606 68.3746 43.4027C68.1168 43.1449 67.767 43 67.4023 43H49.5273C49.1627 43 48.8129 43.1449 48.5551 43.4027C48.2972 43.6606 48.1523 44.0103 48.1523 44.375V52.625C48.1523 52.9897 48.2972 53.3394 48.5551 53.5973C48.8129 53.8551 49.1627 54 49.5273 54H50.9023V56.75C50.9023 57.1147 51.0472 57.4644 51.3051 57.7223C51.5629 57.9801 51.9127 58.125 52.2773 58.125H52.9648V82.875C52.9648 83.969 53.3994 85.0182 54.173 85.7918C54.9466 86.5654 55.9958 87 57.0898 87H59.8398C60.9339 87 61.9831 86.5654 62.7567 85.7918C63.5302 85.0182 63.9648 83.969 63.9648 82.875V58.125H64.6523C65.017 58.125 65.3668 57.9801 65.6246 57.7223C65.8825 57.4644 66.0273 57.1147 66.0273 56.75ZM50.9023 51.25V45.75H53.6523V51.25H50.9023ZM61.2148 76.99L55.7148 78.365V77.0725L61.2148 75.6975V76.99ZM61.2148 72.865L55.7148 74.24V72.9475L61.2148 71.5725V72.865ZM61.2148 68.74L55.7148 70.115V68.8225L61.2148 67.4475V68.74ZM61.2148 64.615L55.7148 65.99V64.6975L61.2148 63.3225V64.615ZM63.2773 55.375H53.6523V54H63.2773V55.375ZM63.2773 51.25V45.75H66.0273V51.25H63.2773Z" fill="white"/>
<path d="M82.5544 67.2344C82.4333 67.0245 82.2588 66.8504 82.0488 66.7297C81.8387 66.609 81.6005 66.5459 81.3582 66.5469H71.1419C70.8996 66.5459 70.6614 66.609 70.4513 66.7297C70.2412 66.8504 70.0668 67.0245 69.9457 67.2344L64.8375 76.0894C64.7169 76.2984 64.6533 76.5355 64.6533 76.7769C64.6533 77.0182 64.7169 77.2553 64.8375 77.4644L69.9457 86.3125C70.0668 86.5223 70.2412 86.6964 70.4513 86.8171C70.6614 86.9379 70.8996 87.001 71.1419 87H81.3582C81.6005 87.001 81.8387 86.9379 82.0488 86.8171C82.2588 86.6964 82.4333 86.5223 82.5544 86.3125L87.6625 77.4644C87.7832 77.2553 87.8468 77.0182 87.8468 76.7769C87.8468 76.5355 87.7832 76.2984 87.6625 76.0894L82.5544 67.2344ZM76.25 82.9644C75.0263 82.9644 73.83 82.6015 72.8124 81.9216C71.7949 81.2417 71.0018 80.2753 70.5335 79.1447C70.0652 78.0141 69.9427 76.77 70.1814 75.5697C70.4202 74.3695 71.0095 73.267 71.8748 72.4016C72.7402 71.5363 73.8427 70.947 75.0429 70.7083C76.2432 70.4695 77.4873 70.592 78.6179 71.0604C79.7485 71.5287 80.7149 72.3218 81.3948 73.3393C82.0746 74.3568 82.4375 75.5531 82.4375 76.7769C82.4375 78.4179 81.7856 79.9917 80.6253 81.1521C79.4649 82.3125 77.8911 82.9644 76.25 82.9644Z" fill="white"/>
</g>
</g>
<defs>
<clipPath id="clip0_322_902">
<rect width="127" height="129" fill="white"/>
</clipPath>
<clipPath id="clip1_322_902">
<rect width="44" height="44" fill="white" transform="translate(46 43)"/>
</clipPath>
</defs>
</svg>
