<svg width="127" height="129" viewBox="0 0 127 129" fill="none" xmlns="http://www.w3.org/2000/svg">
<g clip-path="url(#clip0_322_950)">
<path d="M107.694 69.3186C107.814 67.9222 107.944 66.7267 107.924 65.8728C107.944 65.049 107.954 64.5769 107.954 64.5769C107.954 64.5769 107.934 64.0746 107.924 63.2408C107.944 62.4271 107.814 61.2517 107.694 59.795C107.413 56.9621 106.642 53.2953 105.389 49.739C104.077 46.1828 102.273 42.8776 100.69 40.5068C100.3 39.894 99.8989 39.3917 99.5783 38.9296C99.418 38.6684 99.2377 38.4574 99.0874 38.2766C98.9271 38.0656 98.7868 37.8748 98.6666 37.704C98.4061 37.4127 98.2057 37.1314 98.0655 36.9505C97.9252 36.7798 97.835 36.6994 97.835 36.6994C97.835 36.6994 97.5345 36.3377 96.9935 35.7149C96.7229 35.3934 96.3723 35.0519 95.9715 34.6098C95.7812 34.3788 95.5607 34.1779 95.3503 33.9568C95.1099 33.6957 94.8394 33.4847 94.5989 33.2335C92.5551 31.2645 89.5995 28.8435 86.3033 26.985C84.6902 25.9804 82.9669 25.2269 81.3539 24.5137C79.7208 23.8607 78.1879 23.2881 76.8153 22.8862C75.4728 22.4944 74.3106 22.2835 73.5191 22.0725C72.6975 21.962 72.2467 21.8414 72.2467 21.8414C72.2467 21.8414 72.1164 21.8113 71.906 21.8113C71.6956 21.741 71.365 21.6606 70.9543 21.6204C70.5435 21.5903 70.0525 21.52 69.4815 21.4496C69.2009 21.3592 68.9004 21.3592 68.5697 21.3592C68.2491 21.3291 67.9085 21.2889 67.5578 21.2889C66.1251 21.1583 64.452 21.1583 62.6586 21.2186C62.2177 21.2186 61.7669 21.2889 61.306 21.2889C61.0656 21.3291 60.8451 21.3592 60.6147 21.3592C60.3843 21.3592 60.1438 21.3592 59.9234 21.4496C59.0017 21.5903 58.0499 21.6606 57.1482 21.8414C55.2646 22.1328 53.4812 22.6753 51.768 23.1374C51.3572 23.278 50.9464 23.4187 50.5457 23.5191C50.1349 23.6698 49.7442 23.8205 49.3835 23.9611C48.6321 24.2826 47.9007 24.5036 47.2695 24.8251C46.9489 24.9657 46.6483 25.1064 46.3578 25.247C46.2175 25.3173 46.0772 25.3877 45.927 25.4379C45.7867 25.4982 45.6564 25.5685 45.5362 25.6489C45.0353 25.91 44.5844 26.121 44.2037 26.332C43.4924 26.7338 43.0816 26.985 43.0816 26.985C43.0816 26.985 42.9714 27.0553 42.791 27.1357C42.5907 27.2763 42.3101 27.4169 41.9695 27.6279C41.6188 27.8389 41.198 28.1402 40.7071 28.4215C40.2262 28.7531 39.7052 29.1448 39.1341 29.5668C38.8336 29.7576 38.543 29.9987 38.2424 30.2298C37.9519 30.4709 37.6313 30.7321 37.3107 30.9832C36.9801 31.2344 36.6995 31.5257 36.3589 31.797C36.1986 31.9376 36.0383 32.0883 35.878 32.2189C35.6976 32.3294 35.5373 32.4801 35.377 32.6609C34.7558 33.2637 34.0545 33.8765 33.4434 34.5998C33.1228 34.9213 32.7721 35.2327 32.4815 35.6044C32.181 35.956 31.8504 36.3176 31.5498 36.6793C29.0951 39.5926 27.1314 42.8576 25.8691 45.359C25.6887 45.6905 25.5685 46.022 25.4382 46.2933C25.308 46.5947 25.1777 46.8759 25.0575 47.1371C24.807 47.6696 24.6467 48.1015 24.4864 48.4933C24.3462 48.8851 24.2159 49.1765 24.1358 49.3874C24.0957 49.4979 24.0656 49.5582 24.0456 49.5984C24.0256 49.6687 24.0256 49.7089 24.0256 49.7089C24.0256 49.7089 23.8853 50.1308 23.6148 50.9244C23.5447 51.1053 23.4745 51.3263 23.3844 51.5875C23.3142 51.8286 23.2641 52.0496 23.174 52.3309C23.1038 52.6222 23.0137 52.9035 22.9235 53.235C22.8834 53.3757 22.8333 53.5665 22.7732 53.6971C22.7632 53.8378 22.7231 54.0186 22.663 54.2095C22.0017 56.9319 21.4407 60.669 21.4307 64.5468C21.4507 68.3944 22.0017 72.1716 22.663 74.9041C22.7231 75.0347 22.7532 75.2155 22.7732 75.3964C22.8333 75.5471 22.8834 75.6777 22.9235 75.8685C23.0137 76.2 23.1038 76.4713 23.174 76.7626C23.2641 77.0138 23.3142 77.2649 23.3844 77.5161C23.4745 77.7672 23.5447 77.9782 23.6148 78.1691C23.8853 78.9225 24.0256 79.3846 24.0256 79.3846C24.0256 79.3846 24.0256 79.4248 24.0456 79.4549C24.0656 79.5253 24.0957 79.5956 24.1358 79.7061C24.2259 79.917 24.3462 80.2084 24.4864 80.57C24.6568 80.9719 24.807 81.434 25.0575 81.9363C25.1878 82.2176 25.308 82.5189 25.4382 82.8002C25.5585 83.0815 25.6887 83.403 25.8691 83.6943C27.1214 86.246 29.0951 89.4707 31.5498 92.4243C31.8504 92.7859 32.181 93.1375 32.4815 93.5092C32.7721 93.8608 33.1228 94.1421 33.4434 94.5138C34.0545 95.2271 34.7558 95.8097 35.377 96.4426C35.5373 96.5833 35.6976 96.744 35.878 96.8847C36.0383 97.0153 36.1986 97.1659 36.3589 97.3066C36.6995 97.5778 36.9801 97.8792 37.3107 98.1303C37.6313 98.3815 37.9519 98.6025 38.2424 98.8537C38.553 99.1048 38.8336 99.3158 39.1341 99.5368C39.7052 99.9286 40.2362 100.33 40.7071 100.652C41.188 100.963 41.6188 101.225 41.9695 101.476C42.3101 101.687 42.5907 101.827 42.791 101.938C42.9613 102.038 43.0816 102.119 43.0816 102.119C43.0816 102.119 43.4924 102.34 44.2037 102.762C44.5844 102.952 45.0353 103.153 45.5362 103.415C45.6564 103.485 45.7867 103.565 45.927 103.636C46.0772 103.706 46.2175 103.776 46.3578 103.836C46.6483 103.977 46.9489 104.098 47.2695 104.268C47.9007 104.57 48.6421 104.771 49.3835 105.132C49.7442 105.273 50.1349 105.434 50.5457 105.534C50.9464 105.675 51.3572 105.805 51.768 105.976C53.4712 106.428 55.2646 106.971 57.1482 107.212C58.0599 107.423 59.0117 107.503 59.9234 107.654C60.1538 107.694 60.3843 107.724 60.6147 107.724C60.8451 107.724 61.0656 107.724 61.306 107.754C61.7669 107.795 62.2177 107.875 62.6586 107.875C64.452 107.945 66.1151 107.895 67.5578 107.805C67.9085 107.805 68.2491 107.764 68.5697 107.734C68.9004 107.734 69.2009 107.694 69.4815 107.664C70.0525 107.594 70.5435 107.513 70.9543 107.433C71.365 107.433 71.6856 107.332 71.906 107.292C72.1164 107.272 72.2467 107.222 72.2467 107.222C72.2467 107.222 72.6975 107.162 73.5191 107.021C74.3106 106.8 75.4728 106.619 76.8153 106.197C78.1879 105.826 79.7208 105.253 81.3539 104.59C82.9669 103.857 84.6902 103.113 86.3033 102.139C89.5995 100.27 92.5551 97.829 94.5989 95.8901C94.8494 95.6289 95.1099 95.3878 95.3503 95.1668C95.5607 94.9458 95.7812 94.7449 95.9715 94.5238C96.3723 94.0919 96.7229 93.7302 96.9935 93.4088C97.5345 92.7457 97.835 92.4343 97.835 92.4343C97.835 92.4343 97.9252 92.3238 98.0655 92.1329C98.2057 92.0023 98.4061 91.711 98.6666 91.3895C98.7868 91.2087 98.9271 91.058 99.0874 90.847C99.2377 90.6461 99.408 90.4552 99.5783 90.2041C99.8989 89.742 100.29 89.1995 100.69 88.6269C102.273 86.246 104.077 82.9007 105.389 79.3846C106.642 75.8183 107.413 72.1314 107.694 69.2884V69.3186ZM93.036 89.8726C92.8256 90.174 92.4649 90.4854 92.1343 90.8571C91.974 91.0279 91.7736 91.2187 91.5832 91.4397C91.3728 91.6608 91.1424 91.8617 90.932 92.0425C89.1086 93.7905 86.5337 95.9403 83.6382 97.5477C82.2256 98.4418 80.7127 99.1048 79.31 99.7377C77.8874 100.28 76.5448 100.793 75.3425 101.124C74.1703 101.496 73.1584 101.636 72.4571 101.837C71.7457 101.958 71.345 102.038 71.345 102.038C71.345 102.038 71.2448 102.038 71.0544 102.088C70.8641 102.129 70.5936 102.219 70.2329 102.219C69.8522 102.259 69.4314 102.299 68.9304 102.39C68.68 102.47 68.4094 102.47 68.1089 102.47C67.8384 102.47 67.5478 102.5 67.2372 102.561C65.9748 102.631 64.482 102.631 62.889 102.591C62.4883 102.591 62.1175 102.5 61.7168 102.48H61.1056C60.8952 102.48 60.6949 102.44 60.4945 102.4C59.6729 102.269 58.8414 102.229 58.0298 102.048C56.3967 101.797 54.8438 101.305 53.361 100.933C52.9903 100.803 52.6396 100.682 52.279 100.541C51.9183 100.461 51.5877 100.371 51.257 100.2C50.6158 99.9085 49.9746 99.7377 49.4236 99.4363C49.1531 99.2655 48.8725 99.1952 48.622 99.0747C48.4818 99.0244 48.3515 98.9441 48.2213 98.8838C48.1111 98.8537 47.9909 98.7733 47.8806 98.7231C47.4398 98.4719 47.0491 98.2609 46.7285 98.1404C46.0973 97.7486 45.7466 97.5477 45.7466 97.5477C45.7466 97.5477 45.6564 97.5175 45.4861 97.4271C45.3158 97.3367 45.0453 97.2162 44.7748 96.9952C44.4642 96.8043 44.0735 96.5531 43.6627 96.2819C43.2419 96.0006 42.801 95.659 42.2801 95.3175C42.0096 95.1668 41.7491 94.9056 41.4986 94.6846C41.2281 94.4736 40.9475 94.2727 40.657 94.0617C40.3765 93.8407 40.126 93.5695 39.8354 93.3485C39.6852 93.2179 39.5349 93.0873 39.3946 92.9567C39.2443 92.8462 39.094 92.7156 38.9738 92.585C38.4128 92.0526 37.7916 91.5 37.2506 90.8671C36.97 90.5658 36.6594 90.2744 36.3889 89.973C36.1385 89.6315 35.8679 89.3401 35.5774 88.9986C33.4233 86.467 31.6901 83.614 30.598 81.3938C30.4577 81.0924 30.3275 80.8413 30.2273 80.6002C30.1271 80.3289 29.9868 80.0778 29.8866 79.8367C29.6562 79.4148 29.526 78.9928 29.4057 78.6513C29.2755 78.3298 29.1553 78.0786 29.0951 77.8878C29.0551 77.7974 29.025 77.717 29.015 77.6768C28.9849 77.6366 28.9849 77.6065 28.9849 77.6065C28.9849 77.6065 28.8647 77.2147 28.6243 76.5316C28.5742 76.3608 28.504 76.1599 28.4139 75.9489C28.3537 75.7781 28.3037 75.527 28.2536 75.2557C28.1834 75.0146 28.1033 74.7635 28.0231 74.5123C27.9931 74.3717 27.943 74.2712 27.9029 74.1004C27.8829 73.9699 27.8428 73.7991 27.8227 73.6685C27.2316 71.2675 26.7407 67.9825 26.7307 64.5769C26.7407 61.1211 27.2316 57.8762 27.8227 55.4853C27.8428 55.3145 27.8829 55.1839 27.9029 55.0734C27.943 54.8725 27.9931 54.772 28.0231 54.6314C28.1133 54.3401 28.1934 54.0789 28.2536 53.878C28.3137 53.6268 28.3537 53.3556 28.4139 53.1647C28.504 52.9437 28.5641 52.7729 28.6243 52.6222C28.8647 51.9391 28.9849 51.5272 28.9849 51.5272L29.015 51.477C29.015 51.477 29.0551 51.3564 29.0951 51.266C29.1653 51.0952 29.2855 50.8441 29.4057 50.5025C29.526 50.171 29.6562 49.739 29.8866 49.297C29.9868 49.076 30.1271 48.8248 30.2273 48.5837C30.3275 48.3125 30.4577 48.0212 30.598 47.76C31.6901 45.5298 33.4333 42.6767 35.5774 40.1552C35.8679 39.8136 36.1385 39.4721 36.3889 39.1908C36.6695 38.8392 36.98 38.5679 37.2506 38.3067C37.7916 37.6236 38.4228 37.1314 38.9738 36.5788C39.094 36.4482 39.2443 36.2875 39.3946 36.2071C39.5449 36.0364 39.6852 35.956 39.8354 35.8154C40.126 35.5742 40.3765 35.3231 40.657 35.1021C40.9475 34.861 41.2281 34.6902 41.4986 34.4391C41.7491 34.2582 41.9995 33.997 42.2801 33.8463C42.801 33.5148 43.2419 33.1833 43.6627 32.8819C44.0735 32.5806 44.4542 32.3595 44.7748 32.1687C45.0553 31.9477 45.3258 31.8171 45.4861 31.7367C45.6464 31.6563 45.7466 31.5659 45.7466 31.5659C45.7466 31.5659 46.0973 31.4052 46.7285 31.0234C47.0491 30.8527 47.4398 30.6618 47.8806 30.4408C48.0109 30.3905 48.1111 30.3102 48.2413 30.2198C48.3415 30.1896 48.4718 30.1394 48.622 30.049C48.8725 29.9787 49.143 29.8481 49.4236 29.7275C49.9646 29.4261 50.6158 29.2553 51.267 28.964C51.5877 28.7932 51.9183 28.7129 52.2689 28.5722C52.6296 28.4517 52.9803 28.3813 53.351 28.2106C54.8338 27.8188 56.3867 27.3567 58.0198 27.1055C58.8213 26.9347 59.6629 26.8644 60.4845 26.774C60.6748 26.6635 60.8852 26.6635 61.0956 26.6635C61.286 26.6635 61.4964 26.6635 61.7068 26.6434C62.1075 26.5932 62.4782 26.553 62.879 26.553C64.472 26.5028 65.9748 26.5028 67.2272 26.5932C67.5378 26.6434 67.8283 26.6635 68.0989 26.6635C68.3994 26.6635 68.6699 26.6635 68.9204 26.774C69.4214 26.8041 69.8421 26.8544 70.2229 26.9347C70.5835 26.9347 70.8541 27.0151 71.0444 27.0151C71.2348 27.1055 71.335 27.1055 71.335 27.1055C71.335 27.1055 71.7257 27.1959 72.4471 27.2763C73.1484 27.4973 74.1503 27.6681 75.3325 28.0297C76.5248 28.3813 77.8673 28.8736 79.3 29.4261C80.7127 30.049 82.2155 30.7421 83.6282 31.5659C86.5237 33.2235 89.0985 35.3633 90.922 37.1012C91.1424 37.3122 91.3728 37.5131 91.5732 37.7241C91.7636 37.8949 91.9539 38.136 92.1243 38.3168C92.4549 38.6583 92.8156 38.9798 93.026 39.231C93.4768 39.8237 93.7774 40.1652 93.7774 40.1652C93.7774 40.1652 93.8475 40.2155 93.9677 40.336C94.098 40.4968 94.2583 40.7479 94.4887 41.0191C94.5989 41.1899 94.7192 41.3406 94.8795 41.5114C94.9997 41.6822 95.16 41.853 95.2902 42.0941C95.5908 42.526 95.9214 42.9379 96.2821 43.4603C97.6747 45.5499 99.2477 48.5134 100.38 51.5473C101.472 54.6515 102.173 57.8963 102.424 60.3877C102.514 61.6435 102.634 62.6581 102.614 63.4116C102.634 64.165 102.674 64.597 102.674 64.597C102.674 64.597 102.634 65.0089 102.614 65.7724C102.634 66.5359 102.514 67.5404 102.424 68.7962C102.173 71.2876 101.472 74.5324 100.38 77.6165C99.2477 80.6805 97.6747 83.624 96.2821 85.6834C95.9214 86.236 95.5908 86.6478 95.2902 87.0899C95.17 87.331 94.9997 87.5017 94.8795 87.6625C94.7192 87.8333 94.5989 87.994 94.4887 88.1246C94.2583 88.426 94.098 88.6771 93.9677 88.8178C93.8475 88.9283 93.7774 89.0086 93.7774 89.0086C93.7774 89.0086 93.4768 89.3502 93.026 89.8927L93.036 89.8726Z" fill="#9D9D9D"/>
<path d="M123.684 79.9881C123.123 79.4355 122.482 78.883 121.861 78.3104C120.598 77.2154 119.326 76.1505 118.354 75.4071C117.362 74.6537 116.691 74.1715 116.691 74.1715C116.691 74.1715 116.791 73.5888 116.941 72.6847C117.021 72.2326 117.072 71.7102 117.152 71.1476C117.222 70.5951 117.302 69.9923 117.332 69.3896C117.382 68.7868 117.432 68.1941 117.472 67.6315C117.512 67.069 117.512 66.5365 117.532 66.0945C117.552 65.1803 117.562 64.5776 117.562 64.5776C117.562 64.5776 117.562 63.9648 117.532 63.0606C117.512 62.6086 117.512 62.0862 117.472 61.5136C117.422 60.951 117.382 60.3382 117.332 59.7455C117.292 59.1427 117.212 58.55 117.152 57.9874C117.082 57.4148 117.021 56.9125 116.941 56.4604C116.791 55.5463 116.691 54.9435 116.691 54.9435C116.691 54.9435 117.362 54.5316 118.364 53.8485C119.376 53.1654 120.658 52.2713 121.961 51.2566C123.253 50.2822 124.536 49.2374 125.457 48.4538C126.389 47.6401 127 47.0976 127 47.0976C127 47.0976 126.85 46.5451 126.63 45.7615C126.519 45.3697 126.369 44.9076 126.189 44.3953C126.018 43.9131 125.838 43.4007 125.668 42.8683C125.487 42.3358 125.287 41.8034 125.107 41.3413C124.906 40.849 124.736 40.4171 124.576 40.0253C124.425 39.6335 124.305 39.3221 124.195 39.1011C124.085 38.87 124.035 38.7394 124.035 38.7394C124.035 38.7394 123.183 38.6389 121.921 38.5385C120.648 38.4179 118.985 38.3074 117.302 38.2672C115.619 38.2271 113.976 38.2572 112.743 38.3074C111.501 38.3677 110.69 38.4179 110.69 38.4179C110.69 38.4179 110.389 37.8955 109.938 37.122C109.688 36.7403 109.407 36.2882 109.107 35.816C108.796 35.3238 108.475 34.8315 108.115 34.3393C107.764 33.847 107.423 33.3648 107.093 32.8826C106.742 32.4406 106.421 32.0187 106.141 31.6671C105.86 31.3255 105.63 31.0241 105.47 30.8131C105.289 30.6022 105.199 30.4917 105.199 30.4917C105.199 30.4917 104.808 30.0396 104.207 29.3565C103.917 28.9948 103.566 28.6231 103.165 28.2012C102.785 27.8094 102.364 27.3573 101.943 26.9354C101.071 26.1016 100.21 25.2276 99.5184 24.665C98.8271 24.0623 98.3662 23.6906 98.3662 23.6906C98.3662 23.6906 98.4263 23.4997 98.5365 23.1581C98.6267 22.8166 98.787 22.3444 98.9473 21.7618C99.2779 20.6165 99.6887 19.0493 100.059 17.4621C100.41 15.8748 100.721 14.2876 100.911 13.062C101.121 11.8364 101.232 11.0226 101.232 11.0226C101.232 11.0226 101.111 10.9322 100.921 10.8117C100.721 10.671 100.43 10.4802 100.079 10.2491C99.7288 10.0281 99.328 9.77694 98.8872 9.49565C98.6768 9.34496 98.4464 9.21437 98.2159 9.07372C97.9855 8.92303 97.745 8.79244 97.5146 8.66184C96.5528 8.09927 95.601 7.53669 94.8696 7.16499C94.1282 6.79329 93.6373 6.55219 93.6373 6.55219C93.6373 6.55219 92.9259 7.00426 91.8739 7.71752C90.832 8.47097 89.4594 9.46551 88.1569 10.5103C87.8363 10.7715 87.5157 11.0427 87.1951 11.2838C86.8745 11.545 86.5639 11.8163 86.2734 12.0574C85.6722 12.5798 85.1312 13.062 84.6804 13.4738C83.7686 14.3177 83.1875 14.8903 83.1875 14.8903C83.1875 14.8903 83.0473 14.81 82.7968 14.7396C82.5463 14.6492 82.1856 14.5387 81.7648 14.378C81.324 14.2474 80.8331 14.0565 80.2921 13.8857C79.751 13.735 79.1599 13.5643 78.5788 13.3935C78.0077 13.2327 77.4066 13.0921 76.8556 12.9615C76.3145 12.851 75.7936 12.7204 75.3527 12.6199C74.461 12.4592 73.8599 12.3587 73.8599 12.3587C73.8599 12.3587 73.7096 12.3186 73.4491 12.2784C73.1886 12.2382 72.828 12.1478 72.3671 12.0976C71.9162 12.0574 71.3952 11.977 70.8342 11.9067C70.5537 11.8665 70.2631 11.8364 69.9726 11.7962C69.682 11.7962 69.3814 11.756 69.0809 11.7359C68.4797 11.6857 67.8786 11.6455 67.3075 11.6053C66.7565 11.6053 66.2255 11.5651 65.7746 11.5651C65.3238 11.5651 64.9431 11.545 64.6826 11.535C64.4221 11.535 64.2618 11.535 64.2618 11.535C64.2618 11.535 63.9712 10.8016 63.4803 9.70662C62.9894 8.62165 62.3181 7.1449 61.5667 5.69829C60.8253 4.25167 60.0338 2.84524 59.4126 1.77032C58.7914 0.70545 58.3506 -0.0078125 58.3506 -0.0078125C58.3506 -0.0078125 58.2103 0.0122794 57.9699 0.0323713C57.7294 0.0524632 57.3888 0.112739 56.978 0.173015C56.5772 0.213198 56.0963 0.28352 55.5854 0.343796C55.3349 0.373933 55.0644 0.394025 54.7939 0.454301C54.5234 0.494485 54.2629 0.544715 53.9823 0.584898C53.4413 0.70545 52.8903 0.775771 52.3893 0.886277C52.1288 0.92646 51.8884 0.966644 51.6479 0.996782C51.4275 1.0671 51.1971 1.10729 50.9967 1.14747C50.1952 1.33834 49.6542 1.46894 49.6542 1.46894C49.6542 1.46894 49.4037 2.27262 49.063 3.50827C48.7324 4.73387 48.3216 6.4015 48.001 8.03899C47.6604 9.66643 47.4099 11.324 47.2496 12.5496C47.0793 13.8054 46.9991 14.599 46.9991 14.599C46.9991 14.599 46.8589 14.6593 46.6084 14.7396C46.3479 14.82 45.9973 14.9707 45.5765 15.1214C45.1657 15.2922 44.6647 15.4931 44.1438 15.704C43.6228 15.9351 43.0717 16.1863 42.5107 16.4374C42.2402 16.5479 41.9696 16.6785 41.6891 16.7991C41.4286 16.9297 41.1681 17.0803 40.9177 17.1908C40.4067 17.452 39.9458 17.7032 39.5451 17.9142C38.7536 18.3461 38.2326 18.6676 38.2326 18.6676C38.2326 18.6676 38.1023 18.7379 37.8719 18.8484C37.6415 19.0092 37.3108 19.1699 36.9301 19.411C36.1787 19.9033 35.1468 20.5462 34.1749 21.2695C33.9345 21.4302 33.684 21.601 33.4435 21.7919C33.1931 21.9526 32.9626 22.1335 32.7422 22.3042C32.2914 22.6659 31.8806 22.9874 31.5299 23.2686C31.3496 23.3992 31.1893 23.5298 31.039 23.6504C30.8987 23.7609 30.7885 23.8714 30.6783 23.9518C30.4779 24.1426 30.3677 24.2331 30.3677 24.2331C30.3677 24.2331 29.6664 23.8714 28.5844 23.339C28.0433 23.0677 27.4121 22.7663 26.7208 22.4449C26.0395 22.1435 25.2981 21.822 24.5467 21.5006C23.0639 20.8777 21.531 20.295 20.3688 19.8731C19.7877 19.6621 19.3068 19.4914 18.9562 19.3809C18.6155 19.2704 18.4251 19.2101 18.4251 19.2101C18.4251 19.2101 18.0444 19.6119 17.4734 20.2147C16.9023 20.7973 16.1809 21.6412 15.4595 22.4851C14.7382 23.3189 14.0669 24.1929 13.5559 24.8258C13.3055 25.1573 13.0851 25.4285 12.9448 25.6093C12.8747 25.7098 12.8145 25.7801 12.7745 25.8404C12.7344 25.8906 12.7244 25.9208 12.7244 25.9208C12.7244 25.9208 13.055 26.7044 13.606 27.8797C13.8665 28.4524 14.1871 29.1254 14.5378 29.8286C14.8885 30.5319 15.2792 31.2853 15.69 32.0187C16.4915 33.5055 17.3431 34.9219 17.9943 35.9567C18.3149 36.4891 18.6155 36.901 18.8059 37.2024C19.0163 37.5138 19.1265 37.6946 19.1265 37.6946C19.1265 37.6946 18.8259 38.207 18.3751 38.9905C18.1446 39.3823 17.9142 39.8545 17.6637 40.3769C17.5335 40.618 17.4032 40.8792 17.263 41.1504C17.1928 41.271 17.1327 41.4116 17.0626 41.5422L16.8722 41.9641C16.6217 42.5066 16.3713 43.0592 16.1408 43.5815C16.0306 43.8427 15.9204 44.0939 15.8202 44.345C15.7301 44.566 15.6399 44.8072 15.5597 45.0181C15.3894 45.43 15.2491 45.7917 15.159 46.0328C15.1189 46.1533 15.0788 46.2538 15.0488 46.3341C15.0287 46.3944 15.0187 46.4346 15.0187 46.4346C15.0187 46.4346 14.8183 46.9972 14.5278 47.8611C14.2172 48.705 13.9066 49.8804 13.576 51.0557C13.4157 51.6384 13.2955 52.2311 13.1552 52.7937C13.035 53.3362 12.9147 53.8485 12.8346 54.3006C12.6743 55.2147 12.5741 55.7874 12.5741 55.7874C12.5741 55.7874 11.7926 55.9581 10.6204 56.2696C9.46822 56.5509 7.91529 56.9828 6.36236 57.455C5.5909 57.7061 4.80942 57.9673 4.08806 58.2084C3.36669 58.4495 2.70545 58.7007 2.12435 58.9117C0.97217 59.3637 0.210731 59.6651 0.210731 59.6651C0.210731 59.6651 0.170655 60.2176 0.110542 61.0414C0.0704658 61.8551 0.050428 62.9702 0.0303901 64.0652C0.0103522 64.6077 0.0303901 65.1602 0.0303901 65.6726C0.040409 66.195 0.0604469 66.6671 0.0704658 67.0891C0.0905037 67.8927 0.140598 68.4654 0.140598 68.4654C0.140598 68.4654 0.902037 68.8471 2.06423 69.3896C2.63531 69.6508 3.30658 69.9722 4.02794 70.2736C4.38863 70.4243 4.75933 70.5951 5.14005 70.7458C5.53078 70.9166 5.92152 71.0673 6.31226 71.228C7.87521 71.8307 9.43817 72.3732 10.6104 72.755C11.1915 72.9358 11.7024 73.0865 12.0431 73.187C12.3938 73.2975 12.5941 73.3376 12.5941 73.3376C12.5941 73.3376 12.7043 73.9404 12.8546 74.8546C12.9348 75.3066 13.055 75.7989 13.1752 76.3615C13.3155 76.904 13.4357 77.5167 13.596 78.0994C13.9266 79.2748 14.2372 80.4401 14.5478 81.284C14.8384 82.1379 15.0388 82.7206 15.0388 82.7206L15.0688 82.821C15.0989 82.9014 15.1389 82.9918 15.179 83.1224C15.2792 83.3534 15.4195 83.7151 15.5798 84.1471C15.6699 84.358 15.7501 84.5791 15.8403 84.8202C15.9405 85.0512 16.0406 85.3124 16.1609 85.5836C16.4013 86.0859 16.6418 86.6385 16.8923 87.2111L17.0826 87.623C17.1427 87.7335 17.2129 87.8842 17.283 88.0248C17.4233 88.2961 17.5535 88.5372 17.6838 88.7983C17.9342 89.2906 18.1747 89.7829 18.3951 90.1746C18.8459 90.9482 19.1465 91.4806 19.1465 91.4806C19.1465 91.4806 18.6556 92.1236 17.9442 93.1081C17.2429 94.0725 16.3312 95.3885 15.4595 96.7648C15.0187 97.4379 14.5779 98.1411 14.1871 98.8041C13.7964 99.4471 13.4457 100.08 13.1452 100.612C12.544 101.667 12.1633 102.421 12.1633 102.421C12.1633 102.421 12.2435 102.531 12.3837 102.722C12.524 102.913 12.7244 103.194 12.9648 103.516C13.4758 104.199 14.1471 105.063 14.8384 105.917C15.5497 106.771 16.2711 107.594 16.8221 108.197C17.3832 108.8 17.7639 109.212 17.7639 109.212C17.7639 109.212 18.6055 109.011 19.8178 108.689C21.0301 108.358 22.6732 107.876 24.2562 107.323C25.0477 107.062 25.8291 106.801 26.5405 106.519C27.2719 106.248 27.9532 105.967 28.5142 105.746C29.6664 105.254 30.4078 104.912 30.4078 104.912C30.4078 104.912 30.518 105.033 30.7184 105.193C30.8186 105.294 30.9388 105.384 31.0791 105.515C31.2293 105.635 31.3897 105.746 31.57 105.897C31.9207 106.168 32.3314 106.509 32.7823 106.851C33.0027 107.032 33.2331 107.213 33.4836 107.373C33.7241 107.544 33.9745 107.705 34.215 107.906C35.1868 108.619 36.2188 109.242 36.9702 109.734C37.3509 109.975 37.6815 110.176 37.912 110.297C38.1324 110.427 38.2727 110.508 38.2727 110.508C38.2727 110.508 38.8037 110.809 39.5851 111.251C39.9859 111.462 40.4568 111.703 40.9577 111.974C41.2082 112.085 41.4687 112.215 41.7292 112.346C41.9997 112.477 42.2702 112.617 42.5507 112.728C43.1118 112.989 43.6628 113.22 44.1838 113.461C44.7048 113.672 45.1957 113.863 45.6165 114.034C46.0373 114.205 46.388 114.355 46.6485 114.426C46.899 114.526 47.0392 114.576 47.0392 114.576C47.0392 114.576 47.0693 115.37 47.1494 116.565C47.2296 117.761 47.3698 119.398 47.5903 120.996C47.8007 122.583 48.0612 124.21 48.2916 125.436C48.4018 126.039 48.512 126.551 48.5821 126.903C48.6623 127.264 48.7024 127.455 48.7024 127.455C48.7024 127.455 49.2434 127.576 50.0449 127.777C50.4557 127.867 50.9166 127.978 51.4275 128.098C51.9285 128.209 52.4695 128.279 53.0205 128.399C53.5615 128.5 54.1026 128.59 54.6236 128.681C55.1345 128.781 55.6054 128.821 56.0162 128.892C56.8377 128.982 57.3788 129.042 57.3788 129.042C57.3788 129.042 57.509 128.892 57.7294 128.6C57.9498 128.289 58.2604 127.867 58.6211 127.335C59.3525 126.28 60.2943 124.863 61.1559 123.447C61.3763 123.085 61.5867 122.734 61.7971 122.372C61.9975 122.03 62.1879 121.669 62.3882 121.317C62.7689 120.644 63.0996 119.991 63.3901 119.469C63.9612 118.374 64.3018 117.62 64.3018 117.62C64.3018 117.62 64.4521 117.64 64.7226 117.64C64.9931 117.64 65.3639 117.62 65.8147 117.62C66.2656 117.6 66.7765 117.58 67.3476 117.58C67.9087 117.54 68.5198 117.49 69.1209 117.449C69.4215 117.429 69.7221 117.389 70.0126 117.379C70.3032 117.359 70.5937 117.299 70.8743 117.279C71.4453 117.198 71.9663 117.128 72.4072 117.068C72.858 117.007 73.2287 116.937 73.4892 116.897C73.7497 116.857 73.9 116.816 73.9 116.816C73.9 116.816 74.4911 116.706 75.3928 116.555C75.8336 116.435 76.3546 116.324 76.8956 116.214C77.4467 116.083 78.0478 115.953 78.6189 115.762C79.2 115.611 79.7811 115.44 80.3321 115.269C80.8732 115.129 81.3641 114.928 81.8049 114.787C82.2257 114.657 82.5864 114.516 82.8369 114.446C83.0773 114.345 83.2276 114.295 83.2276 114.295C83.2276 114.295 83.7586 114.878 84.6002 115.752C85.4318 116.626 86.5739 117.771 87.7662 118.876C88.9484 119.971 90.1908 121.016 91.1426 121.809C92.0944 122.603 92.7556 123.095 92.7556 123.095C92.7556 123.095 92.8758 123.035 93.0963 122.945C93.3167 122.834 93.6273 122.673 93.9879 122.492C94.7193 122.111 95.7112 121.608 96.663 121.036C97.1439 120.755 97.6148 120.493 98.0656 120.232C98.5065 119.971 98.9173 119.7 99.2579 119.479C99.9592 119.037 100.42 118.745 100.42 118.745C100.42 118.745 100.41 118.534 100.39 118.153C100.36 117.781 100.32 117.248 100.27 116.616C100.16 115.32 99.9692 113.652 99.7188 112.015C99.4683 110.347 99.1477 108.73 98.8772 107.524C98.7469 106.921 98.6267 106.409 98.5466 106.067C98.4464 105.716 98.4063 105.515 98.4063 105.515C98.4063 105.515 98.8672 105.113 99.5384 104.54C100.24 103.958 101.101 103.104 101.973 102.28C102.394 101.858 102.815 101.406 103.195 100.994C103.596 100.592 103.947 100.201 104.237 99.869C104.838 99.1859 105.229 98.7338 105.229 98.7338C105.229 98.7338 105.329 98.6132 105.5 98.4123C105.66 98.2114 105.89 97.91 106.171 97.5584C106.451 97.1867 106.772 96.7748 107.123 96.3228C107.453 95.8707 107.804 95.3885 108.145 94.8962C108.505 94.404 108.826 93.8916 109.137 93.4195C109.437 92.9272 109.718 92.4953 109.968 92.1035C110.419 91.3299 110.72 90.7975 110.72 90.7975C110.72 90.7975 111.511 90.918 112.703 91.0486C113.906 91.1792 115.499 91.3199 117.122 91.3902C118.745 91.4605 120.398 91.5007 121.61 91.4605C122.842 91.4605 123.664 91.4304 123.664 91.4304C123.664 91.4304 123.894 90.918 124.225 90.1646C124.556 89.3911 124.946 88.3764 125.357 87.3316C125.738 86.2969 126.079 85.2421 126.349 84.4485C126.419 84.2576 126.469 84.0667 126.529 83.916C126.58 83.7653 126.61 83.6146 126.65 83.4941C126.72 83.2731 126.75 83.1124 126.75 83.1124C126.75 83.1124 126.169 82.4995 125.267 81.5854C124.826 81.1333 124.295 80.6209 123.724 80.0684L123.684 79.9881ZM99.7087 95.8506C99.4182 96.2022 99.0275 96.5739 98.5967 97.0159C98.3863 97.2771 98.1558 97.4881 97.9154 97.7493C97.6649 98.0306 97.3944 98.2415 97.1239 98.5027C94.8896 100.673 91.6936 103.285 88.1269 105.294C86.3836 106.379 84.51 107.192 82.7667 107.976C80.9934 108.689 79.3202 109.292 77.8474 109.704C76.3947 110.176 75.1423 110.387 74.2707 110.618C73.399 110.779 72.8881 110.849 72.8881 110.849C72.8881 110.849 72.7678 110.889 72.5274 110.92C72.2869 110.96 71.9463 111.06 71.4954 111.1C71.0546 111.13 70.5136 111.201 69.8824 111.301C69.5818 111.321 69.2412 111.372 68.9005 111.392C68.5499 111.392 68.1792 111.432 67.8085 111.482C66.2656 111.603 64.4521 111.603 62.5085 111.532C62.0275 111.532 61.5466 111.482 61.0557 111.422C60.8052 111.382 60.5648 111.382 60.3143 111.362C60.0638 111.362 59.8033 111.311 59.5529 111.291C58.571 111.151 57.529 111.05 56.5372 110.839C54.5234 110.538 52.5597 109.965 50.7162 109.443C50.2553 109.272 49.8145 109.141 49.3736 109.001C48.9528 108.84 48.512 108.74 48.1112 108.529C47.3198 108.177 46.5182 107.916 45.847 107.574C45.4963 107.454 45.1557 107.273 44.8551 107.142C44.6748 107.072 44.5345 107.002 44.3842 106.941C44.2339 106.881 44.0937 106.771 43.9534 106.7C43.4024 106.429 42.9315 106.148 42.5207 105.987C41.7392 105.545 41.2984 105.274 41.2984 105.274C41.2984 105.274 41.1782 105.213 40.9778 105.063C40.7674 104.962 40.4468 104.802 40.0761 104.56C39.7154 104.339 39.2445 104.018 38.7235 103.696C38.1925 103.345 37.6415 102.903 37.0103 102.501C36.6696 102.3 36.3891 102.019 36.0485 101.748C35.7178 101.486 35.3872 101.245 35.0365 100.974C34.6959 100.663 34.3553 100.401 34.0246 100.06C33.8343 99.9192 33.6639 99.7786 33.4836 99.6178C33.2932 99.437 33.1229 99.3064 32.9526 99.1256C32.2613 98.4425 31.5099 97.7995 30.8386 97.026C30.508 96.6442 30.1273 96.3127 29.7866 95.9109C29.466 95.5291 29.1354 95.1574 28.7947 94.7355C26.1297 91.6213 24.0057 88.0549 22.6431 85.3124C22.4628 84.9708 22.3125 84.6393 22.1722 84.3279C22.0219 84.0265 21.8817 83.685 21.7615 83.4037C21.4809 82.8712 21.3006 82.3187 21.1403 81.9269C20.99 81.5251 20.8497 81.1735 20.7495 80.9726C20.7195 80.8621 20.6794 80.7716 20.6494 80.7114C20.6293 80.6712 20.6293 80.641 20.6293 80.641C20.6293 80.641 20.459 80.1588 20.1885 79.2748C20.1083 79.0739 20.0182 78.873 19.938 78.6017C19.8579 78.3204 19.7777 78.0492 19.7076 77.7378C19.6174 77.4464 19.5373 77.135 19.4371 76.7934C19.387 76.6227 19.3369 76.4519 19.2768 76.2811C19.2467 76.1204 19.2166 75.9194 19.1666 75.7386C18.4452 72.755 17.8441 68.6864 17.814 64.5474C17.8441 60.4085 18.4452 56.3298 19.1666 53.3462C19.2166 53.1352 19.2467 52.9645 19.2768 52.8037C19.3269 52.5928 19.387 52.4521 19.4371 52.2512C19.5373 51.9197 19.6174 51.6083 19.7076 51.3069C19.7877 51.0356 19.8579 50.7343 19.938 50.4932C20.0282 50.2219 20.1083 49.9808 20.1885 49.7799C20.459 48.9461 20.6293 48.4538 20.6293 48.4538C20.6293 48.4538 20.6293 48.4237 20.6494 48.3634C20.6794 48.3132 20.7195 48.2328 20.7495 48.1223C20.8497 47.8812 20.98 47.5899 21.1403 47.1479C21.3106 46.7259 21.4809 46.2236 21.7615 45.6912C21.8817 45.3798 22.0219 45.0784 22.1722 44.767C22.3025 44.4355 22.4628 44.124 22.6431 43.7925C23.9957 40.9997 26.1297 37.4736 28.7947 34.3594C29.1354 33.9475 29.466 33.5356 29.7866 33.1639C30.1273 32.7822 30.498 32.4506 30.8386 32.0588C31.5199 31.3054 32.2613 30.6625 32.9526 29.9793C33.1229 29.8086 33.2932 29.6378 33.4836 29.467C33.6639 29.3364 33.8343 29.1958 34.0246 29.025C34.3753 28.7236 34.6959 28.4222 35.0365 28.151C35.3872 27.8797 35.7278 27.6085 36.0485 27.3674C36.3791 27.0961 36.6696 26.8249 37.0103 26.6139C37.6314 26.182 38.1925 25.7299 38.7235 25.3984C39.2445 25.0669 39.7054 24.7856 40.0761 24.5143C40.4568 24.2732 40.7674 24.1125 40.9778 24.012C41.1782 23.9116 41.2984 23.8413 41.2984 23.8413C41.2984 23.8413 41.7392 23.57 42.5207 23.118C42.9315 22.917 43.4024 22.6759 43.9534 22.3846C44.0937 22.3143 44.2239 22.244 44.3842 22.1435C44.5445 22.0732 44.6848 22.0029 44.8551 21.9426C45.1557 21.812 45.4963 21.6613 45.847 21.5006C46.5283 21.1489 47.3198 20.9279 48.1313 20.5763C48.522 20.3855 48.9629 20.2448 49.4037 20.1142C49.8245 19.9736 50.2653 19.8028 50.7262 19.632C52.5697 19.1498 54.5234 18.537 56.5472 18.2758C57.5391 18.0347 58.571 17.9644 59.5629 17.8036C59.8134 17.8036 60.0739 17.7635 60.3243 17.7434C60.5748 17.7434 60.8153 17.7434 61.0657 17.7032C61.5667 17.6731 62.0476 17.6027 62.5185 17.6027C64.4622 17.5224 66.2756 17.5224 67.8185 17.6731C68.1892 17.6731 68.5599 17.7032 68.9106 17.7434C69.2712 17.7735 69.5918 17.7735 69.8924 17.8237C70.5136 17.8941 71.0546 17.9644 71.5055 18.0347C71.9563 18.0749 72.297 18.1452 72.5374 18.2055C72.7678 18.2457 72.8981 18.2758 72.8981 18.2758C72.8981 18.2758 73.399 18.3461 74.2807 18.5169C75.1524 18.758 76.4047 18.9589 77.8575 19.4311C79.3302 19.843 81.0034 20.4457 82.7768 21.1289C84.5201 21.9526 86.4036 22.7663 88.1369 23.8513C91.7036 25.8505 94.9097 28.4624 97.1339 30.6022C97.4044 30.8734 97.6749 31.1145 97.9254 31.3858C98.1658 31.6168 98.4063 31.8579 98.6067 32.099C99.0475 32.5411 99.4382 32.9328 99.7188 33.2845C100.29 33.9575 100.631 34.3694 100.631 34.3694C100.631 34.3694 100.711 34.4397 100.881 34.6407C101.011 34.8315 101.232 35.1028 101.502 35.4443C101.652 35.6051 101.813 35.8261 101.973 36.027C102.153 36.258 102.334 36.469 102.504 36.7302C102.855 37.2426 103.275 37.8252 103.706 38.438C105.43 41.0098 107.373 44.6364 108.786 48.4739C110.169 52.3215 111 56.3499 111.321 59.414C111.441 60.9309 111.581 62.2168 111.561 63.151C111.591 64.0351 111.611 64.5776 111.611 64.5776C111.611 64.5776 111.591 65.0799 111.561 65.9941C111.581 66.8781 111.441 68.174 111.321 69.7311C111 72.7851 110.169 76.7934 108.786 80.6611C107.373 84.4886 105.43 88.1152 103.706 90.6669C103.275 91.3098 102.865 91.8624 102.504 92.3948C102.334 92.666 102.153 92.877 101.973 93.0779C101.813 93.2788 101.652 93.4798 101.502 93.6807C101.232 94.0222 101.011 94.2935 100.881 94.4944C100.711 94.6652 100.631 94.7656 100.631 94.7656C100.631 94.7656 100.29 95.1876 99.7188 95.8506H99.7087Z" fill="white"/>
<path opacity="0.05" d="M97.3446 64.6984C97.3446 82.7008 82.7871 97.2875 64.8432 97.2875C46.8993 97.2875 32.3418 82.6907 32.3418 64.6984C32.3418 46.7061 46.8993 32.1094 64.8432 32.1094C82.7871 32.1094 97.3446 46.7061 97.3446 64.6984Z" fill="white"/>
<path opacity="0.1" d="M90.7227 64.7009C90.7227 79.0365 79.1307 90.6496 64.8438 90.6496C50.5568 90.6496 38.9648 79.0264 38.9648 64.7009C38.9648 50.3754 50.5568 38.7422 64.8438 38.7422C79.1307 38.7422 90.7227 50.3653 90.7227 64.7009Z" fill="white"/>
<path opacity="0.2" d="M85.4726 64.7002C85.4726 76.1225 76.2351 85.3748 64.8536 85.3748C53.4721 85.3748 44.2246 76.1124 44.2246 64.7002C44.2246 53.288 53.4621 44.0156 64.8536 44.0156C76.2451 44.0156 85.4726 53.278 85.4726 64.7002Z" fill="white"/>
<g clip-path="url(#clip1_322_950)">
<path d="M73.9344 71.2656C73.2778 72.2799 72.435 73.1869 71.4928 73.9023H60.8193C60.0916 73.9023 59.501 73.3117 59.501 72.584C59.501 71.8563 60.0916 71.2656 60.8193 71.2656H73.9344Z" fill="white"/>
<path d="M70.9707 61.5117V63.2695C70.9707 63.9973 70.3801 64.5879 69.6523 64.5879H64.3789C63.6512 64.5879 63.0605 63.9973 63.0605 63.2695V61.5117H70.9707Z" fill="white"/>
<path d="M86.0002 66.4336C86.0002 70.4089 84.782 74.2066 82.5241 77.39C81.683 76.9857 80.7417 76.7599 79.7485 76.7599H71.9658C75.5351 74.6391 78.09 70.5662 78.09 66.4336C78.09 63.5464 76.9606 60.8402 75.0578 58.8249C75.2405 58.712 75.1065 49.6785 75.1457 49.2773C77.7446 50.514 80.0605 52.3395 81.8702 54.6105C84.572 58.0014 86.0002 62.0892 86.0002 66.4336Z" fill="white"/>
<path d="M50.2285 54.3906C45.1396 54.3906 41 58.5303 41 63.6191C41 68.708 45.1396 72.8477 50.2285 72.8477C55.3174 72.8477 59.457 68.708 59.457 63.6191C59.457 58.5303 55.3174 54.3906 50.2285 54.3906ZM53.5446 63.4091L50.4245 66.5292C49.9221 67.0382 49.0693 67.0463 48.5595 66.5292L46.7366 64.7063C46.2216 64.1913 46.2216 63.3563 46.7366 62.8413C47.2517 62.3263 48.0866 62.3263 48.6017 62.8413L49.492 63.7325L51.6796 61.544C52.1946 61.0299 53.0296 61.0299 53.5446 61.544C54.0597 62.0591 54.0597 62.894 53.5446 63.4091Z" fill="white"/>
<path d="M73.0801 42H60.9512C60.2234 42 59.6328 42.5906 59.6328 43.3184C59.6328 44.0461 60.2234 44.6367 60.9512 44.6367H61.5225V57.5566C61.5225 58.2844 62.1131 58.875 62.8408 58.875H71.1904C71.9182 58.875 72.5088 58.2844 72.5088 57.5566V44.6367H73.0801C73.8078 44.6367 74.3984 44.0461 74.3984 43.3184C74.3984 42.5906 73.8078 42 73.0801 42Z" fill="white"/>
<path d="M79.7482 79.3984H55.8318C53.7355 79.3984 52.0303 81.1037 52.0303 83.2C52.0303 85.2962 53.7355 87.0015 55.8318 87.0015H79.7482C81.8444 87.0015 83.5497 85.2962 83.5497 83.2C83.5497 81.1037 81.8444 79.3984 79.7482 79.3984Z" fill="white"/>
</g>
</g>
<defs>
<clipPath id="clip0_322_950">
<rect width="127" height="129" fill="white"/>
</clipPath>
<clipPath id="clip1_322_950">
<rect width="45" height="45" fill="white" transform="translate(41 42)"/>
</clipPath>
</defs>
</svg>
