<svg width="117" height="31" viewBox="0 0 117 31" fill="none" xmlns="http://www.w3.org/2000/svg">
<path d="M21.247 2.35958C20.8414 2.17074 19.9444 1.77734 19.9444 1.77734C19.9444 1.77734 19.0396 2.16288 18.6184 2.35958L6.5752 8.14257V15.4992V22.8558L18.6262 28.6388C19.0396 28.8355 19.9522 29.221 19.9522 29.221C19.9522 29.221 20.8492 28.8276 21.2548 28.6388L33.3214 22.8558V15.4992V8.14257L21.247 2.35958ZM32.0968 21.6284L20.5528 15.806V22.8558H19.336V15.806L7.792 21.6284V15.4992V9.36998L19.336 15.1923V8.14257H20.5528V15.1923L32.0968 9.36998V15.4992V21.6284Z" fill="#E40000"/>
<path d="M81.4401 11.8164V11.4624V9.58191H75.7227V25.6956H81.4401V19.5507V19.1966L83.6631 21.4311H91.4241V9.58191H83.6631L81.4401 11.8164ZM85.7067 12.3042V12.4616V18.5515V18.7088H85.5507H81.5961H81.4401V18.5515V12.4616V12.3042H81.5961H85.5507H85.7067Z" fill="white"/>
<path d="M110.425 9.58191H103.982L99.8399 14.7276H98.9195V14.6253V9.58191H93.2021V15.5065V21.4311H98.9195V16.3877V16.2855H99.8399L103.982 21.4311H110.425L105.128 15.5065L110.425 9.58191Z" fill="white"/>
<path d="M40.334 15.5067V15.6877V21.4313H56.4566V18.709L53.4848 15.6169L53.3756 15.5067L53.4926 15.3887L56.4644 12.2966V9.57422H40.334V15.5067ZM46.0436 18.5516V15.5146V12.4697V12.3123H46.1996H50.5754H50.9576L50.6846 12.5877L47.783 15.5224L50.6846 18.4493L50.9576 18.7247H50.5754H46.1996H46.0436V18.5516Z" fill="white"/>
<path d="M68.2272 11.4625V11.8165L66.0432 9.58203H58.2432V15.5067V21.4313H66.0432L68.2272 19.1968V19.5508V21.4313H73.9446V15.5067V9.58203H68.2272V11.4625ZM68.2272 12.4617V15.5067V18.5516V18.7089H68.0712H64.1166H63.9606V18.5516V15.5067V12.4617V12.3044H64.1166H68.0712H68.2272V12.4617Z" fill="white"/>
</svg>
