<svg width="393" height="403" viewBox="0 0 393 403" fill="none" xmlns="http://www.w3.org/2000/svg">
  <path d="M215.45 8.54988C209.494 5.77695 196.322 0 196.322 0C196.322 0 183.035 5.66141 176.85 8.54988L0 93.471V201.5V309.529L176.965 394.45C183.035 397.339 196.436 403 196.436 403C196.436 403 209.608 397.223 215.565 394.45L392.758 309.529V201.5V93.471L215.45 8.54988ZM374.775 291.505L205.256 206.006V309.529H187.388V206.006L17.8683 291.505V201.5V111.495L187.388 196.994V93.471H205.256V196.994L374.775 111.495V201.5V291.505Z" fill="#E40000" fill-opacity="0.6"/>
</svg>
