<svg viewBox="0 0 24 24" xmlns="http://www.w3.org/2000/svg">
  <path d="M16.5 3V18C16.5 20.4855 14.4855 22.5 12 22.5C9.51452 22.5 7.5 20.4855 7.5 18V4.5C7.5 2.84324 8.84324 1.5 10.5 1.5C12.1568 1.5 13.5 2.84324 13.5 4.5V18C13.5 18.8288 12.828 19.5 12 19.5C11.1712 19.5 10.5 18.8288 10.5 18V6H9V18C9 19.6568 10.3432 21 12 21C13.6568 21 15 19.6568 15 18V4.5C15 2.01452 12.9855 0 10.5 0C8.01452 0 6 2.01452 6 4.5V18.75C6.36976 21.7088 8.94076 24 12 24C15.0592 24 17.6302 21.7088 18 18.75V3H16.5Z" />
</svg>
