<svg viewBox="0 0 36 36" xmlns="http://www.w3.org/2000/svg">
<g clip-path="url(#clip0_322_824)">
<path d="M30.9017 21.082C30.4277 21.7379 29.7785 22.2717 29.0009 22.602L27.9556 23.046L27.5117 24.0913C26.7968 25.7744 25.154 26.862 23.3267 26.862C23.1421 26.862 22.9551 26.8505 22.7714 26.8281L21.6441 26.6899L20.737 27.3732C20.6743 27.4205 20.6105 27.466 20.5459 27.5098L25.4487 36.0018L29.436 30.7273L35.9989 29.9104L30.9017 21.082Z" />
<path d="M14.3567 26.6899L13.2295 26.8281C13.0457 26.8505 12.8589 26.862 12.6744 26.862C10.8468 26.862 9.20407 25.7744 8.4891 24.0913L8.04522 23.046L6.99991 22.602C6.22237 22.2717 5.57314 21.7379 5.09902 21.082L0.00195312 29.9104L6.56481 30.7273L10.5521 36.0018L15.4549 27.5098C15.3903 27.466 15.3266 27.4205 15.2638 27.3732L14.3567 26.6899Z" />
<path d="M24.6134 13.09C24.6134 9.44336 21.6467 6.47656 18.0001 6.47656C14.3534 6.47656 11.3867 9.44336 11.3867 13.09C11.3867 16.7366 14.3534 19.7034 18.0001 19.7034C21.6467 19.7034 24.6134 16.7366 24.6134 13.09ZM14.0789 13.3462L15.5702 11.8549L17.3589 13.6436L20.7032 10.2993L22.1945 11.7906L17.3589 16.6263L14.0789 13.3462Z" />
<path d="M19.4682 25.6868L21.0556 24.4911L23.0281 24.7329C23.1269 24.745 23.2274 24.7512 23.3266 24.7512C24.3063 24.7512 25.1871 24.1679 25.5705 23.265L26.3474 21.4359L28.1765 20.659C29.1725 20.236 29.7761 19.1906 29.6444 18.1166L29.4027 16.144L30.5983 14.5566C31.2494 13.6924 31.2494 12.4852 30.5983 11.6209L29.4027 10.0335L29.6444 8.06098C29.7761 6.98699 29.1725 5.94153 28.1765 5.51853L26.3474 4.74184L25.5705 2.91273C25.187 2.00999 24.3062 1.42656 23.3264 1.42656C23.2273 1.42656 23.1268 1.43274 23.028 1.44484L21.0555 1.6866L19.4682 0.490986C19.0417 0.169778 18.5342 0 18.0003 0C17.4665 0 16.9589 0.169778 16.5324 0.490986L14.9451 1.6866L12.9726 1.44484C12.8737 1.43274 12.7733 1.42656 12.6741 1.42656C11.6943 1.42656 10.8135 2.00992 10.4301 2.91273L9.65321 4.74184L7.82418 5.51867C6.82821 5.94167 6.22461 6.98713 6.35628 8.06112L6.59805 10.0336L5.40236 11.621C4.7513 12.4853 4.7513 13.6925 5.40236 14.5568L6.59805 16.1442L6.35628 18.1167C6.22461 19.1907 6.82821 20.2361 7.82418 20.6592L9.65328 21.4361L10.4302 23.2652C10.8136 24.1679 11.6944 24.7513 12.6742 24.7513C12.7733 24.7513 12.8738 24.7451 12.9726 24.7331L14.9452 24.4913L16.5325 25.6869C16.9589 26.0081 17.4665 26.1779 18.0004 26.1779C18.5343 26.1779 19.0417 26.008 19.4682 25.6868ZM9.27794 13.0889C9.27794 8.27927 13.1908 4.36643 18.0003 4.36643C22.8099 4.36643 26.7227 8.27927 26.7227 13.0889C26.7227 17.8985 22.8099 21.8113 18.0003 21.8113C13.1908 21.8113 9.27794 17.8985 9.27794 13.0889Z" />
</g>
<defs>
<clipPath id="clip0_322_824">
<rect width="36" height="36" fill="white"/>
</clipPath>
</defs>
</svg>
