<svg viewBox="0 0 24 24" xmlns="http://www.w3.org/2000/svg">
<g clip-path="url(#clip0_322_2258)">
<path fill-rule="evenodd" clip-rule="evenodd" d="M23.5451 2.64928C23.6892 2.50535 23.8036 2.33444 23.8816 2.14632C23.9597 1.9582 23.9999 1.75654 24 1.55286C24.0001 1.34918 23.9602 1.14748 23.8823 0.959266C23.8045 0.771047 23.6904 0.6 23.5464 0.455892C23.4025 0.311784 23.2315 0.197436 23.0435 0.119378C22.8553 0.0413191 22.6537 0.0010785 22.45 0.000953318C22.2463 0.000828134 22.0446 0.0408209 21.8564 0.118648C21.6682 0.196475 21.4972 0.310613 21.353 0.454543L11.9998 9.80777L2.64928 0.454543C2.35824 0.163504 1.9635 -3.0666e-09 1.55191 0C1.14032 3.0666e-09 0.745583 0.163504 0.454543 0.454543C0.163504 0.745583 3.0666e-09 1.14032 0 1.55191C-3.0666e-09 1.9635 0.163504 2.35824 0.454543 2.64928L9.80777 11.9998L0.454543 21.3503C0.310435 21.4944 0.196122 21.6655 0.118132 21.8538C0.0401411 22.0421 0 22.2439 0 22.4477C0 22.6514 0.0401411 22.8533 0.118132 23.0416C0.196122 23.2298 0.310435 23.401 0.454543 23.5451C0.745583 23.8361 1.14032 23.9996 1.55191 23.9996C1.75571 23.9996 1.95751 23.9594 2.1458 23.8814C2.33408 23.8034 2.50517 23.6892 2.64928 23.5451L11.9998 14.1918L21.353 23.5451C21.644 23.8357 22.0386 23.9989 22.45 23.9987C22.8613 23.9984 23.2558 23.8348 23.5464 23.5438C23.837 23.2526 24.0002 22.8581 24 22.4467C23.9998 22.0354 23.8361 21.641 23.5451 21.3503L14.1918 11.9998L23.5451 2.64928Z" />
</g>
<defs>
<clipPath id="clip0_322_2258">
<rect width="24" height="24" fill="white"/>
</clipPath>
</defs>
</svg>
