<svg width="23" height="28" viewBox="0 0 23 28" fill="none" xmlns="http://www.w3.org/2000/svg">
  <path fill-rule="evenodd" clip-rule="evenodd" d="M11.4999 23.0573C16.0365 23.0573 19.7141 19.3702 19.7141 14.822C19.7141 10.2738 16.0365 6.58671 11.4999 6.58671C6.96324 6.58671 3.28557 10.2738 3.28557 14.822C3.28557 19.3702 6.96324 23.0573 11.4999 23.0573ZM11.4999 25.5279C17.3975 25.5279 22.1784 20.7347 22.1784 14.822C22.1784 8.90931 17.3975 4.11612 11.4999 4.11612C5.60225 4.11612 0.821289 8.90931 0.821289 14.822C0.821289 20.7347 5.60225 25.5279 11.4999 25.5279Z" fill="#333333"/>
  <path fill-rule="evenodd" clip-rule="evenodd" d="M21.8431 0.652136C22.3903 1.05765 22.5061 1.83114 22.1016 2.37978L3.94802 27.0033C3.54355 27.5519 2.77203 27.668 2.22479 27.2625C1.67755 26.8569 1.56183 26.0834 1.9663 25.5348L20.1199 0.911282C20.5244 0.362646 21.2959 0.246622 21.8431 0.652136Z" fill="#333333"/>
</svg>
