<svg viewBox="0 0 19 22" xmlns="http://www.w3.org/2000/svg">
  <path d="M9.49855 1.35938C5.64189 1.35938 2.50391 4.57526 2.50391 8.52807C2.50391 9.55912 2.70983 10.5435 3.11564 11.4542C4.86449 15.3761 8.21754 19.5169 9.20377 20.6924C9.27766 20.7803 9.38539 20.8309 9.49875 20.8309C9.61211 20.8309 9.71984 20.7803 9.79373 20.6924C10.7796 19.5171 14.1326 15.3765 15.8821 11.4542C16.2881 10.5435 16.4938 9.55912 16.4938 8.52807C16.4934 4.57526 13.3554 1.35938 9.49855 1.35938ZM9.49855 12.2515C7.49517 12.2515 5.86512 10.581 5.86512 8.52787C5.86512 6.47455 7.49517 4.80403 9.49855 4.80403C11.5019 4.80403 13.132 6.47455 13.132 8.52787C13.1322 10.581 11.5021 12.2515 9.49855 12.2515Z" />
</svg>
