<svg viewBox="0 0 14 22" xmlns="http://www.w3.org/2000/svg">
<g clip-path="url(#clip0_322_2304)">
<path d="M3.14822 0.48327C2.49214 -0.16109 1.42841 -0.16109 0.77233 0.48327C0.116255 1.12763 0.116255 2.17236 0.77233 2.81673L3.14822 0.48327ZM11.4803 11L12.6682 12.1668C13.3243 11.5224 13.3243 10.4777 12.6682 9.8333L11.4803 11ZM0.77233 19.1835C0.116255 19.8278 0.116255 20.8724 0.77233 21.5167C1.42841 22.1611 2.49214 22.1611 3.14822 21.5167L0.77233 19.1835ZM0.77233 2.81673L10.2924 12.1668L12.6682 9.8333L3.14822 0.48327L0.77233 2.81673ZM10.2924 9.8333L0.77233 19.1835L3.14822 21.5167L12.6682 12.1668L10.2924 9.8333Z"/>
</g>
<defs>
<clipPath id="clip0_322_2304">
<rect width="14" height="22" fill="white"/>
</clipPath>
</defs>
</svg>
