<svg width="28" height="28" viewBox="0 0 28 28" fill="none" xmlns="http://www.w3.org/2000/svg">
<g clip-path="url(#clip0_322_1125)">
<path d="M13.9996 9.625C13.4246 9.63504 13.4247 10.49 13.9996 10.5C14.5746 10.4899 14.5745 9.63496 13.9996 9.625Z" fill="#0F0F0F"/>
<path d="M20.9999 10.0625C20.9999 6.20276 17.8597 3.0625 13.9999 3.0625C4.71351 3.4471 4.7162 16.6793 14 17.0625C17.8597 17.0625 20.9999 13.9222 20.9999 10.0625ZM16.1874 14.4375H11.8124C11.2383 14.4283 11.2366 13.572 11.8125 13.5625C11.8124 13.5625 16.1874 13.5625 16.1874 13.5625C16.7612 13.5716 16.7636 14.4279 16.1874 14.4375ZM15.3124 10.0625C15.3124 10.7863 14.7237 11.375 13.9999 11.375C12.5303 11.3614 12.1935 9.32019 13.5624 8.83062V6.125C13.5624 5.88318 13.7581 5.6875 13.9999 5.6875C14.2418 5.6875 14.4374 5.88318 14.4374 6.125V8.83062C14.9456 9.0118 15.3124 9.4929 15.3124 10.0625ZM9.18744 10.0625C9.18744 10.3043 8.99176 10.5 8.74994 10.5C8.50812 10.5 8.31244 10.3043 8.31244 10.0625C8.31244 6.92651 10.864 4.375 13.9999 4.375C17.1359 4.375 19.6874 6.92651 19.6874 10.0625C19.6758 10.6378 18.8233 10.638 18.8124 10.0625C18.5477 3.67728 9.45049 3.68067 9.18744 10.0625Z" fill="#0F0F0F"/>
<path d="M16.3753 18.9291C26.9751 15.7667 24.497 0.593568 13.5008 0.891033C3.16016 1.71899 1.58757 15.9336 11.5673 18.916C11.9785 19.0297 12.2497 19.371 12.2497 19.7691C12.2561 19.8351 12.2383 20.9585 12.2585 21.0029C12.4033 23.3508 15.6649 23.2898 15.7497 21.0028C15.7497 21.0029 15.7497 19.7691 15.7497 19.7691C15.7497 19.3754 16.0078 19.0297 16.3753 18.9291ZM14.8747 19.7691V21.0029C14.841 22.1233 13.2158 22.1916 13.1379 21.0028C13.1148 20.9398 13.1274 19.8638 13.1247 19.7691C13.1247 18.9816 12.5778 18.286 11.7991 18.0716C2.52279 15.2833 4.36964 2.00356 14.0042 1.75285C23.6824 1.97979 25.4815 15.3465 16.1521 18.0847C15.3997 18.286 14.8747 18.9772 14.8747 19.7691Z" fill="#0F0F0F"/>
<path d="M25.375 20.1256H22.5067C21.881 18.9735 20.1187 18.974 19.4933 20.1256H16.6075L16.625 21.0006C16.4589 24.5526 11.4246 24.4528 11.375 20.8474C11.375 20.8474 11.375 20.1256 11.375 20.1256H8.50666C7.88102 18.9735 6.1187 18.974 5.49335 20.1256H2.625C1.65985 20.1256 0.875 20.9104 0.875 21.8756V24.5006C0.875 25.4657 1.65985 26.2506 2.625 26.2506H5.49334C6.11899 27.4026 7.8813 27.4021 8.50665 26.2506H19.4933C20.119 27.4026 21.8813 27.4021 22.5067 26.2506H25.375C26.3401 26.2506 27.125 25.4657 27.125 24.5006V21.8756C27.125 20.9104 26.3401 20.1256 25.375 20.1256ZM7.875 25.3756C7.84509 26.528 6.15547 26.5302 6.125 25.3755V21.0006C6.15491 19.8481 7.84453 19.846 7.875 21.0006C7.875 21.0006 7.875 25.3756 7.875 25.3756ZM21.875 25.3756C21.8451 26.528 20.1555 26.5302 20.125 25.3755V21.0006C20.1549 19.8481 21.8445 19.846 21.875 21.0006C21.875 21.0006 21.875 25.3756 21.875 25.3756Z" fill="#0F0F0F"/>
</g>
<defs>
<clipPath id="clip0_322_1125">
<rect width="28" height="28" fill="white"/>
</clipPath>
</defs>
</svg>
