<svg viewBox="0 0 14 22" xmlns="http://www.w3.org/2000/svg">
<g clip-path="url(#clip0_322_2306)">
<path d="M10.8518 0.48327C11.5079 -0.16109 12.5716 -0.16109 13.2277 0.48327C13.8837 1.12763 13.8837 2.17236 13.2277 2.81673L10.8518 0.48327ZM2.51971 11L1.33182 12.1668C0.675723 11.5224 0.675723 10.4777 1.33182 9.8333L2.51971 11ZM13.2277 19.1835C13.8837 19.8278 13.8837 20.8724 13.2277 21.5167C12.5716 22.1611 11.5079 22.1611 10.8518 21.5167L13.2277 19.1835ZM13.2277 2.81673L3.70758 12.1668L1.33182 9.8333L10.8518 0.48327L13.2277 2.81673ZM3.70758 9.8333L13.2277 19.1835L10.8518 21.5167L1.33182 12.1668L3.70758 9.8333Z" />
</g>
<defs>
<clipPath id="clip0_322_2306">
<rect width="14" height="22" fill="white" transform="matrix(-1 0 0 1 14 0)"/>
</clipPath>
</defs>
</svg>
