<svg viewBox="0 0 36 36" xmlns="http://www.w3.org/2000/svg">
  <path fill-rule="evenodd" clip-rule="evenodd" d="M15.3004 22.7544H13.09C13.2498 22.9499 13.419 23.1369 13.5975 23.3156C14.434 24.153 15.4563 24.781 16.5814 25.1486C16.2327 24.7223 15.9389 24.2539 15.7068 23.7544C15.5527 23.4289 15.417 23.0951 15.3001 22.7544H15.3004ZM22.3097 5.10124C24.8781 5.77742 27.186 7.20492 28.9381 9.20089C30.6901 11.1969 31.8064 13.6704 32.1439 16.3047C32.4815 18.939 32.0249 21.6141 30.8327 23.9873C29.6406 26.3606 27.7671 28.3239 25.4522 29.6257C25.3878 29.6628 25.3167 29.6866 25.243 29.696C25.1694 29.7053 25.0946 29.7 25.023 29.6802C24.9514 29.6605 24.8844 29.6267 24.8259 29.5809C24.7675 29.5351 24.7187 29.4782 24.6823 29.4134C24.646 29.3486 24.6229 29.2772 24.6144 29.2035C24.6058 29.1297 24.612 29.0549 24.6325 28.9836C24.653 28.9122 24.6875 28.8456 24.7339 28.7876C24.7803 28.7296 24.8378 28.6814 24.9029 28.6458C26.9996 27.4648 28.7008 25.6911 29.7933 23.547C30.8858 21.4029 31.3208 18.9839 31.0438 16.5936C30.7669 14.2032 29.7903 11.9478 28.2365 10.1103C26.6827 8.27286 24.6209 6.93509 22.3097 6.26484V8.13797C22.3096 8.22488 22.2894 8.31058 22.2506 8.38835C22.2118 8.46613 22.1555 8.53385 22.0862 8.58622C22.0168 8.63858 21.9363 8.67416 21.8508 8.69017C21.7654 8.70617 21.6774 8.70217 21.5938 8.67846C21.16 8.55374 20.7179 8.45962 20.2708 8.39679C19.8209 8.33441 19.3673 8.30337 18.9131 8.30391C17.6397 8.30391 16.3789 8.55471 15.2025 9.04199C14.0261 9.52928 12.9571 10.2435 12.0568 11.1439C11.1564 12.0443 10.4422 13.1132 9.95487 14.2896C9.46758 15.466 9.21678 16.7269 9.21678 18.0002C9.21678 19.2735 9.46758 20.5344 9.95487 21.7108C10.4422 22.8872 11.1564 23.9561 12.0568 24.8565C12.9571 25.7569 14.0261 26.4711 15.2025 26.9584C16.3789 27.4457 17.6397 27.6965 18.9131 27.6965C19.3672 27.697 19.8207 27.666 20.2705 27.6036C20.7085 27.542 21.1417 27.4504 21.5671 27.3294C21.6517 27.3009 21.7419 27.2929 21.8303 27.3062C21.9186 27.3194 22.0025 27.3535 22.075 27.4055C22.1476 27.4576 22.2067 27.5262 22.2475 27.6056C22.2883 27.6851 22.3097 27.7731 22.3097 27.8624V32.6669C25.391 31.952 28.1689 30.2848 30.2492 27.902C32.3295 25.5192 33.6065 22.5418 33.8991 19.3922C34.1917 16.2426 33.485 13.0809 31.8793 10.3557C30.2735 7.63042 27.8503 5.48007 24.9535 4.20975C24.8171 4.15031 24.71 4.03913 24.6556 3.90068C24.6012 3.76222 24.604 3.60783 24.6635 3.47147C24.7229 3.33511 24.8341 3.22794 24.9725 3.17355C25.111 3.11915 25.2654 3.12199 25.4017 3.18143C28.535 4.55487 31.1523 6.8862 32.8774 9.84044C34.6026 12.7947 35.3469 16.2198 35.0033 19.6235C34.6598 23.0273 33.2461 26.2346 30.9654 28.7845C28.6847 31.3344 25.6543 33.0958 22.3098 33.8154V35.4375C22.3098 35.5867 22.2505 35.7298 22.1451 35.8352C22.0396 35.9407 21.8965 36 21.7473 36H16.0789V35.9982C15.9532 35.9982 15.8311 35.9559 15.7322 35.8781C15.6334 35.8003 15.5636 35.6916 15.534 35.5693L14.712 32.1855C13.7209 31.8906 12.7631 31.4937 11.8539 31.0013L8.91247 32.793C8.80412 32.8698 8.67207 32.9059 8.53969 32.8947C8.40732 32.8835 8.28317 32.8259 8.18923 32.7319L4.18142 28.7241L4.18227 28.7232C4.09331 28.6342 4.03686 28.5179 4.02196 28.3929C4.00707 28.2679 4.0346 28.1416 4.10014 28.0342L5.91181 25.0594C5.41933 24.1501 5.02245 23.1922 4.72754 22.2011L1.38833 21.3899C1.25593 21.3691 1.1353 21.3017 1.04817 21.1999C0.961043 21.0981 0.913139 20.9685 0.913086 20.8344V15.1658H0.914844C0.914879 15.0401 0.957189 14.918 1.03498 14.8191C1.11276 14.7203 1.22151 14.6505 1.34375 14.6209L4.72754 13.799C5.02248 12.8078 5.41936 11.8499 5.91181 10.9406L4.12011 7.99938C4.04326 7.89104 4.00723 7.759 4.0184 7.62664C4.02957 7.49428 4.08722 7.37015 4.18114 7.27622L8.18895 3.26841L8.18987 3.26925C8.2789 3.18031 8.39523 3.12386 8.52019 3.10897C8.64515 3.09407 8.77149 3.1216 8.87893 3.18712L11.8536 4.99908C12.7628 4.50662 13.7206 4.10977 14.7117 3.81488L15.5231 0.475242C15.5439 0.342782 15.6113 0.222108 15.7133 0.134972C15.8152 0.0478357 15.9448 -3.08439e-05 16.0789 1.49113e-08H21.7472C21.8964 1.49113e-08 22.0395 0.0592632 22.145 0.164752C22.2505 0.270242 22.3097 0.413316 22.3097 0.5625V5.10124ZM13.09 13.2456H15.3004C15.4172 12.9049 15.553 12.5711 15.7071 12.2456C15.9392 11.7461 16.233 11.2777 16.5817 10.8514C15.4566 11.219 14.4342 11.847 13.5978 12.6844C13.4194 12.8628 13.2502 13.0499 13.0903 13.2456H13.09ZM16.7161 13.2456H21.11C21.0498 13.0971 20.9869 12.9539 20.9212 12.816C20.3657 11.6503 19.6522 10.9292 18.9131 10.9292C18.174 10.9292 17.4606 11.6503 16.9049 12.816C16.8393 12.9537 16.7763 13.0969 16.7161 13.2456ZM22.526 13.2456H24.7364C24.5766 13.0501 24.4075 12.8631 24.2289 12.6844C23.3925 11.8471 22.3701 11.219 21.2451 10.8515C21.5937 11.2778 21.8875 11.7461 22.1195 12.2456C22.2737 12.571 22.4095 12.9049 22.5263 13.2456H22.526ZM25.6057 14.5733H22.8997C23.0996 15.4818 23.2173 16.4065 23.2512 17.3362H26.4014C26.3175 16.3724 26.0473 15.4341 25.6056 14.5733H25.6057ZM21.5373 14.5733H16.2889C16.0679 15.479 15.9388 16.4046 15.9037 17.3362H21.9225C21.8873 16.4046 21.7582 15.479 21.5372 14.5733H21.5373ZM14.9266 14.5733H12.2207C11.7791 15.4341 11.5088 16.3724 11.425 17.3362H14.5754C14.6093 16.4065 14.727 15.4818 14.9269 14.5733H14.9266ZM26.4016 18.6638H23.2516C23.2176 19.5935 23.1 20.5182 22.9 21.4267H25.6059C26.0476 20.5659 26.3178 19.6276 26.4016 18.6638H26.4016ZM21.9227 18.6638H15.9039C15.9391 19.5954 16.0681 20.521 16.2891 21.4267H21.5371C21.7582 20.521 21.8872 19.5954 21.9224 18.6638H21.9227ZM14.575 18.6638H11.425C11.5089 19.6276 11.7791 20.5659 12.2207 21.4267H14.9264C14.7264 20.5182 14.6088 19.5935 14.5748 18.6638H14.575ZM24.7364 22.7544H22.526C22.4092 23.0951 22.2734 23.4289 22.1193 23.7544C21.8872 24.2539 21.5934 24.7223 21.2448 25.1486C22.6135 24.7006 23.8252 23.8697 24.7364 22.7544ZM21.1103 22.7544H16.7165C16.7766 22.903 16.8395 23.0462 16.9052 23.1839C17.4606 24.3497 18.1742 25.0708 18.9134 25.0708C19.6525 25.0708 20.3658 24.3497 20.9215 23.1839C20.9869 23.0464 21.0498 22.9032 21.11 22.7544H21.1103Z" />
</svg>
