<svg viewBox="0 0 22 22" xmlns="http://www.w3.org/2000/svg">
  <path d="M19.0486 18.0764L14.9449 13.9727C15.9156 12.7875 16.5 11.2736 16.5 9.625C16.5 5.83413 13.4159 2.75 9.625 2.75C5.83413 2.75 2.75 5.83413 2.75 9.625C2.75 13.4159 5.83413 16.5 9.625 16.5C11.2736 16.5 12.7875 15.9156 13.9727 14.9449L18.0764 19.0486C18.3452 19.3174 18.7798 19.3174 19.0486 19.0486C19.3174 18.7798 19.3174 18.3452 19.0486 18.0764ZM4.125 9.625C4.125 6.59244 6.59244 4.125 9.625 4.125C12.6576 4.125 15.125 6.59244 15.125 9.625C15.125 12.6576 12.6576 15.125 9.625 15.125C6.59244 15.125 4.125 12.6576 4.125 9.625Z" />
</svg>
