<svg viewBox="0 0 36 36" xmlns="http://www.w3.org/2000/svg">
<g clip-path="url(#clip0_334_3268)">
<path d="M22.2961 6.04688H13.7094C12.3941 8.1568 11.0974 9.58392 8.5 10.955V13.2767C8.87958 19.7996 12.3422 25.4932 17.767 28.5139L18.0029 28.6359L18.2386 28.5139C23.6636 25.4932 27.1262 19.7996 27.5058 13.2767V10.955C24.9081 9.58392 23.6114 8.1568 22.2961 6.04688ZM16.5912 20.8315L11.2359 15.7739L12.6789 14.246L16.5744 17.9247L23.3178 11.4068L24.7784 12.918L16.5912 20.8315Z" />
<path d="M32.9109 6.90765C29.9523 5.87604 27.6144 3.60489 26.4966 0.675934L26.2384 0H9.76794L9.51004 0.675934C8.39191 3.60489 6.05402 5.87604 3.09567 6.90765L2.39062 7.1532V12.0344C2.39062 16.8247 3.70734 21.5195 6.19794 25.6111C8.68881 29.7029 12.2547 33.0282 16.51 35.2282L18.0033 36L19.4963 35.2279C23.7516 33.0282 27.3175 29.7029 29.8084 25.6111C32.299 21.5195 33.6157 16.8247 33.6157 12.0344V7.1532L32.9109 6.90765ZM29.606 13.3676C29.4082 16.853 28.4008 20.2225 26.6924 23.1119C24.9008 26.1422 22.3259 28.6485 19.2461 30.3596L19.2181 30.3747L18.0033 31.0029L16.7602 30.3596C13.6805 28.6485 11.1055 26.1422 9.31393 23.1117C7.60556 20.2225 6.59811 16.853 6.40036 13.3673L6.39871 13.308V9.65533L6.98785 9.36722C9.76547 8.00903 10.846 6.75522 12.2173 4.45825L12.523 3.94629H23.483L23.789 4.45825C25.1603 6.75522 26.2408 8.00903 29.0185 9.36722L29.6076 9.65533L29.606 13.3676Z" />
</g>
<defs>
<clipPath id="clip0_334_3268">
<rect width="36" height="36" fill="white"/>
</clipPath>
</defs>
</svg>
