<svg width="28" height="28" viewBox="0 0 28 28" fill="none" xmlns="http://www.w3.org/2000/svg">
<path d="M18.5011 14.4107V4.50133C18.5011 3.3075 18.0268 2.16257 17.1827 1.31841C16.3385 0.474246 15.1936 0 13.9997 0C12.8059 0 11.661 0.474246 10.8168 1.31841C9.97265 2.16257 9.4984 3.3075 9.4984 4.50133V14.4107C8.55451 15.1122 7.78803 16.025 7.2604 17.076C6.73276 18.127 6.45863 19.287 6.45997 20.463C6.45997 24.588 9.82106 27.971 13.9456 28H14.0003C15.5852 27.9999 17.1298 27.5004 18.4147 26.5724C19.6995 25.6444 20.6593 24.3352 21.1577 22.8307C21.656 21.3261 21.6676 19.7028 21.1908 18.1913C20.714 16.6798 19.7731 15.357 18.5016 14.4107H18.5011ZM13.9997 25.9219H13.9604C13.0286 25.9146 12.1141 25.6692 11.3039 25.209C10.4936 24.7487 9.81451 24.089 9.33107 23.2923C8.84763 22.4957 8.57592 21.5887 8.54175 20.6575C8.50757 19.7263 8.71208 18.8019 9.13583 17.972C9.52017 17.2272 10.0689 16.5796 10.7404 16.0781L11.5765 15.4552V4.50133C11.5765 3.85865 11.8318 3.2423 12.2863 2.78786C12.7407 2.33343 13.3571 2.07812 13.9997 2.07812C14.6424 2.07812 15.2588 2.33343 15.7132 2.78786C16.1676 3.2423 16.4229 3.85865 16.4229 4.50133V15.4541L17.2591 16.0781C17.9306 16.5797 18.4791 17.2275 18.8631 17.9725C19.2592 18.7421 19.4644 19.5957 19.4614 20.4613C19.4592 21.9091 18.883 23.2969 17.8592 24.3205C16.8354 25.3441 15.4475 25.92 13.9997 25.9219Z" fill="#0F0F0F"/>
<path d="M14.9839 16.6578V8.21078C14.9839 7.94971 14.8802 7.69933 14.6956 7.51473C14.511 7.33012 14.2606 7.22641 13.9995 7.22641C13.7384 7.22641 13.488 7.33012 13.3034 7.51473C13.1188 7.69933 13.0151 7.94971 13.0151 8.21078V16.6578C12.0897 16.8974 11.2834 17.4661 10.7473 18.2575C10.2112 19.0489 9.98202 20.0086 10.1028 20.9568C10.2235 21.9051 10.6858 22.7768 11.4032 23.4085C12.1205 24.0403 13.0436 24.3889 13.9995 24.3889C14.9554 24.3889 15.8785 24.0403 16.5958 23.4085C17.3132 22.7768 17.7755 21.9051 17.8962 20.9568C18.017 20.0086 17.7878 19.0489 17.2517 18.2575C16.7156 17.4661 15.9093 16.8974 14.9839 16.6578Z" fill="#0F0F0F"/>
<path d="M20.709 5.46875H24.664C24.9251 5.46875 25.1754 5.36504 25.36 5.18043C25.5447 4.99583 25.6484 4.74545 25.6484 4.48438C25.6484 4.2233 25.5447 3.97292 25.36 3.78832C25.1754 3.60371 24.9251 3.5 24.664 3.5H20.709C20.4479 3.5 20.1975 3.60371 20.0129 3.78832C19.8283 3.97292 19.7246 4.2233 19.7246 4.48438C19.7246 4.74545 19.8283 4.99583 20.0129 5.18043C20.1975 5.36504 20.4479 5.46875 20.709 5.46875Z" fill="#0F0F0F"/>
<path d="M24.664 11.9375H20.709C20.4479 11.9375 20.1975 12.0412 20.0129 12.2258C19.8283 12.4104 19.7246 12.6608 19.7246 12.9219C19.7246 13.1829 19.8283 13.4333 20.0129 13.6179C20.1975 13.8025 20.4479 13.9062 20.709 13.9062H24.664C24.9251 13.9062 25.1754 13.8025 25.36 13.6179C25.5447 13.4333 25.6484 13.1829 25.6484 12.9219C25.6484 12.6608 25.5447 12.4104 25.36 12.2258C25.1754 12.0412 24.9251 11.9375 24.664 11.9375Z" fill="#0F0F0F"/>
<path d="M20.709 9.68735H22.687C22.9481 9.68735 23.1985 9.58364 23.3831 9.39903C23.5677 9.21442 23.6714 8.96404 23.6714 8.70297C23.6714 8.4419 23.5677 8.19152 23.3831 8.00691C23.1985 7.82231 22.9481 7.7186 22.687 7.7186H20.709C20.5797 7.7186 20.4517 7.74406 20.3323 7.79353C20.2129 7.843 20.1043 7.91551 20.0129 8.00691C19.9215 8.09832 19.849 8.20684 19.7995 8.32627C19.7501 8.4457 19.7246 8.5737 19.7246 8.70297C19.7246 8.83224 19.7501 8.96025 19.7995 9.07968C19.849 9.19911 19.9215 9.30762 20.0129 9.39903C20.1043 9.49044 20.2129 9.56295 20.3323 9.61242C20.4517 9.66189 20.5797 9.68735 20.709 9.68735Z" fill="#0F0F0F"/>
</svg>
