<svg viewBox="0 0 16 16" xmlns="http://www.w3.org/2000/svg">
  <path fill-rule="evenodd" clip-rule="evenodd" d="M14.2602 2.36704C14.9455 2.56475 15.4859 3.14349 15.6703 3.8777C16.0131 5.21876 15.9999 8.01412 15.9999 8.01412C15.9999 8.01412 15.9999 10.7952 15.6705 12.1364C15.4859 12.8705 14.9456 13.4494 14.2602 13.647C13.0081 14 7.99997 14 7.99997 14C7.99997 14 3.00487 14 1.73974 13.633C1.05432 13.4353 0.514036 12.8564 0.329466 12.1223C0 10.7952 0 8 0 8C0 8 0 5.21876 0.329466 3.8777C0.513914 3.14362 1.0675 2.55063 1.73962 2.35305C2.99169 2 7.99984 2 7.99984 2C7.99984 2 13.0081 2 14.2602 2.36704ZM10.5699 8.00008L6.40527 10.5695V5.43066L10.5699 8.00008Z" />
</svg>
